%TF.GenerationSoftware,KiCad,Pcbnew,9.0.2*%
%TF.CreationDate,2025-07-07T16:52:20+05:30*%
%TF.ProjectId,Joystick,4a6f7973-7469-4636-9b2e-6b696361645f,rev?*%
%TF.SameCoordinates,Original*%
%TF.FileFunction,Legend,Top*%
%TF.FilePolarity,Positive*%
%FSLAX46Y46*%
G04 Gerber Fmt 4.6, Leading zero omitted, Abs format (unit mm)*
G04 Created by KiCad (PCBNEW 9.0.2) date 2025-07-07 16:52:20*
%MOMM*%
%LPD*%
G01*
G04 APERTURE LIST*
%ADD10C,0.275000*%
%ADD11C,0.150000*%
%ADD12C,0.120000*%
%ADD13C,0.100000*%
%ADD14C,0.127000*%
G04 APERTURE END LIST*
D10*
G36*
X134899497Y-62888785D02*
G01*
X134856577Y-62886635D01*
X134809292Y-62884486D01*
X134750655Y-62884486D01*
X134749917Y-62937883D01*
X134743715Y-63221741D01*
X134727173Y-63439617D01*
X134703123Y-63602948D01*
X134674018Y-63722056D01*
X134645309Y-63792721D01*
X134610930Y-63842692D01*
X134571327Y-63876357D01*
X134525657Y-63896362D01*
X134471913Y-63903272D01*
X134404182Y-63897564D01*
X134336068Y-63880189D01*
X134266720Y-63850317D01*
X134195388Y-63806551D01*
X134136000Y-63758359D01*
X134092881Y-63709420D01*
X134063537Y-63659367D01*
X134046325Y-63607451D01*
X134040568Y-63552594D01*
X134045556Y-63506986D01*
X134058753Y-63475147D01*
X134079007Y-63453350D01*
X134107298Y-63439732D01*
X134146490Y-63434716D01*
X134185844Y-63439694D01*
X134214178Y-63453181D01*
X134234394Y-63474697D01*
X134247526Y-63506021D01*
X134252479Y-63550780D01*
X134258974Y-63577281D01*
X134281682Y-63608265D01*
X134328714Y-63646090D01*
X134381348Y-63675623D01*
X134428647Y-63691847D01*
X134471913Y-63696935D01*
X134484657Y-63690535D01*
X134498054Y-63663978D01*
X134511004Y-63597125D01*
X134527527Y-63363788D01*
X134535660Y-63182015D01*
X134538744Y-62937548D01*
X134536528Y-62888785D01*
X134519266Y-62889523D01*
X134430539Y-62888785D01*
X134341878Y-62885829D01*
X134300537Y-62878974D01*
X134266719Y-62858963D01*
X134248387Y-62837750D01*
X134237459Y-62813048D01*
X134233673Y-62783736D01*
X134238914Y-62747698D01*
X134253482Y-62720918D01*
X134277671Y-62701013D01*
X134314316Y-62687611D01*
X134368208Y-62682448D01*
X134444039Y-62684329D01*
X134519266Y-62686210D01*
X134660853Y-62680030D01*
X134802575Y-62673851D01*
X134887822Y-62680310D01*
X134943376Y-62696601D01*
X134977865Y-62719568D01*
X134997275Y-62748510D01*
X135003941Y-62785415D01*
X134997259Y-62822087D01*
X134976873Y-62855067D01*
X134954496Y-62873847D01*
X134929048Y-62884965D01*
X134899497Y-62888785D01*
G37*
G36*
X135537600Y-63042668D02*
G01*
X135600276Y-63064977D01*
X135655393Y-63101823D01*
X135704222Y-63154832D01*
X135738277Y-63210394D01*
X135763079Y-63272673D01*
X135778504Y-63342815D01*
X135783882Y-63422223D01*
X135777715Y-63508299D01*
X135759880Y-63585552D01*
X135730916Y-63655378D01*
X135690722Y-63718899D01*
X135645467Y-63768823D01*
X135595620Y-63806710D01*
X135540575Y-63833719D01*
X135479305Y-63850264D01*
X135410435Y-63855986D01*
X135342681Y-63849916D01*
X135281054Y-63832162D01*
X135224285Y-63802757D01*
X135171455Y-63760878D01*
X135123830Y-63705481D01*
X135088875Y-63641798D01*
X135066197Y-63568315D01*
X135056466Y-63482942D01*
X135056488Y-63482472D01*
X135264616Y-63482472D01*
X135270874Y-63540148D01*
X135288180Y-63585038D01*
X135315730Y-63620096D01*
X135344585Y-63641466D01*
X135375813Y-63654006D01*
X135410368Y-63658247D01*
X135452230Y-63653292D01*
X135489658Y-63638730D01*
X135523812Y-63614119D01*
X135554163Y-63576582D01*
X135573797Y-63530714D01*
X135582449Y-63474277D01*
X135580406Y-63386560D01*
X135568407Y-63324856D01*
X135549350Y-63282692D01*
X135524665Y-63254995D01*
X135494031Y-63238578D01*
X135455437Y-63232678D01*
X135411626Y-63237647D01*
X135373564Y-63252805D01*
X135339824Y-63278491D01*
X135309685Y-63316435D01*
X135284992Y-63365562D01*
X135269857Y-63420476D01*
X135264616Y-63482472D01*
X135056488Y-63482472D01*
X135060305Y-63401481D01*
X135076731Y-63325878D01*
X135105584Y-63254949D01*
X135147410Y-63187744D01*
X135196869Y-63132543D01*
X135252351Y-63090390D01*
X135314638Y-63060123D01*
X135385028Y-63041442D01*
X135465243Y-63034939D01*
X135537600Y-63042668D01*
G37*
G36*
X136656983Y-63177132D02*
G01*
X136397719Y-63712921D01*
X136308938Y-63901342D01*
X136251161Y-64038277D01*
X136201592Y-64176506D01*
X136184602Y-64208573D01*
X136163382Y-64229959D01*
X136137495Y-64242702D01*
X136105409Y-64247166D01*
X136065163Y-64240219D01*
X136030250Y-64219426D01*
X136012166Y-64199145D01*
X136001565Y-64176222D01*
X135997943Y-64149707D01*
X136007395Y-64099508D01*
X136050848Y-63978487D01*
X136157262Y-63736631D01*
X136061164Y-63555326D01*
X135894976Y-63257597D01*
X135858169Y-63199834D01*
X135842518Y-63165487D01*
X135837884Y-63136899D01*
X135845762Y-63099291D01*
X135870191Y-63065702D01*
X135905226Y-63042517D01*
X135944612Y-63034939D01*
X135975833Y-63039195D01*
X136001144Y-63051347D01*
X136021988Y-63071680D01*
X136089350Y-63169832D01*
X136171442Y-63308823D01*
X136270707Y-63498256D01*
X136368435Y-63282516D01*
X136422732Y-63174057D01*
X136472879Y-63084912D01*
X136497929Y-63054015D01*
X136526976Y-63036547D01*
X136561539Y-63030641D01*
X136601213Y-63037712D01*
X136636699Y-63059187D01*
X136655297Y-63080001D01*
X136666091Y-63103010D01*
X136669745Y-63129107D01*
X136666792Y-63151085D01*
X136656983Y-63177132D01*
G37*
G36*
X137290164Y-63258471D02*
G01*
X137254545Y-63254194D01*
X137229358Y-63242738D01*
X137211816Y-63224766D01*
X137200765Y-63199028D01*
X137139173Y-63193990D01*
X137038879Y-63199466D01*
X136987041Y-63211870D01*
X136964327Y-63226882D01*
X136958025Y-63243694D01*
X136964883Y-63259705D01*
X136994339Y-63284370D01*
X137066969Y-63322749D01*
X137202815Y-63389657D01*
X137268402Y-63429612D01*
X137319165Y-63473608D01*
X137352348Y-63517342D01*
X137371172Y-63561543D01*
X137377347Y-63607469D01*
X137369753Y-63668263D01*
X137347831Y-63719811D01*
X137311154Y-63764340D01*
X137257118Y-63802857D01*
X137190490Y-63831439D01*
X137111892Y-63849551D01*
X137018945Y-63855986D01*
X136921898Y-63848124D01*
X136836318Y-63825493D01*
X136782475Y-63799321D01*
X136748663Y-63770367D01*
X136729851Y-63738602D01*
X136723613Y-63702577D01*
X136729224Y-63669959D01*
X136744638Y-63647898D01*
X136770947Y-63633677D01*
X136813012Y-63628157D01*
X136850894Y-63632613D01*
X136912956Y-63649650D01*
X136975113Y-63666662D01*
X137013639Y-63671143D01*
X137094175Y-63665111D01*
X137138481Y-63650944D01*
X137160047Y-63632412D01*
X137166913Y-63609417D01*
X137159303Y-63588258D01*
X137129618Y-63560969D01*
X137060991Y-63524384D01*
X136920688Y-63458770D01*
X136862581Y-63425716D01*
X136814146Y-63384206D01*
X136781790Y-63340702D01*
X136762972Y-63294476D01*
X136756659Y-63244164D01*
X136763187Y-63187039D01*
X136781753Y-63139742D01*
X136812190Y-63100048D01*
X136856115Y-63066794D01*
X136916717Y-63040044D01*
X136980708Y-63024489D01*
X137073219Y-63013421D01*
X137202243Y-63009147D01*
X137272072Y-63014799D01*
X137313471Y-63028491D01*
X137340356Y-63049945D01*
X137356936Y-63080801D01*
X137363040Y-63124473D01*
X137356614Y-63192241D01*
X137341035Y-63231276D01*
X137319283Y-63251680D01*
X137290164Y-63258471D01*
G37*
G36*
X138040686Y-63207424D02*
G01*
X138003476Y-63206349D01*
X137966332Y-63205207D01*
X137894934Y-63211185D01*
X137908502Y-63607872D01*
X137909241Y-63644277D01*
X137909979Y-63687465D01*
X137903991Y-63759000D01*
X137888715Y-63806436D01*
X137866719Y-63836645D01*
X137838224Y-63854149D01*
X137801035Y-63860285D01*
X137762324Y-63853830D01*
X137729637Y-63834762D01*
X137711037Y-63814869D01*
X137700250Y-63792631D01*
X137696591Y-63767125D01*
X137698807Y-63685987D01*
X137701091Y-63604782D01*
X137687523Y-63215484D01*
X137546674Y-63203058D01*
X137503392Y-63192301D01*
X137475332Y-63172995D01*
X137458498Y-63145131D01*
X137452372Y-63105666D01*
X137459560Y-63066614D01*
X137480918Y-63034201D01*
X137513137Y-63012371D01*
X137554533Y-63004849D01*
X137682284Y-63013446D01*
X137678523Y-62934525D01*
X137675500Y-62860843D01*
X137683208Y-62822687D01*
X137706263Y-62791661D01*
X137740031Y-62771101D01*
X137780683Y-62764123D01*
X137818098Y-62770567D01*
X137847079Y-62789123D01*
X137869743Y-62821589D01*
X137885644Y-62873189D01*
X137891912Y-62951653D01*
X137890434Y-63013446D01*
X137966332Y-63004849D01*
X138045880Y-63008387D01*
X138084277Y-63016133D01*
X138117562Y-63035506D01*
X138137233Y-63064843D01*
X138144392Y-63107614D01*
X138136970Y-63147042D01*
X138115040Y-63178945D01*
X138082280Y-63200122D01*
X138040686Y-63207424D01*
G37*
G36*
X138406946Y-62910278D02*
G01*
X138362031Y-62902162D01*
X138323525Y-62877836D01*
X138303729Y-62854306D01*
X138292137Y-62828190D01*
X138288196Y-62798512D01*
X138292139Y-62768837D01*
X138303731Y-62742744D01*
X138323525Y-62719256D01*
X138348624Y-62701125D01*
X138376146Y-62690398D01*
X138406946Y-62686747D01*
X138437735Y-62690406D01*
X138465116Y-62701139D01*
X138489965Y-62719256D01*
X138509515Y-62742715D01*
X138520986Y-62768809D01*
X138524891Y-62798512D01*
X138520987Y-62828218D01*
X138509517Y-62854336D01*
X138489965Y-62877836D01*
X138465121Y-62895913D01*
X138437740Y-62906625D01*
X138406946Y-62910278D01*
G37*
G36*
X138470822Y-63460374D02*
G01*
X138473442Y-63597596D01*
X138476061Y-63734817D01*
X138468596Y-63774754D01*
X138446709Y-63806417D01*
X138413982Y-63827282D01*
X138372356Y-63834493D01*
X138330718Y-63827285D01*
X138297935Y-63806417D01*
X138276100Y-63774759D01*
X138268650Y-63734817D01*
X138266031Y-63597596D01*
X138263411Y-63460374D01*
X138270934Y-63293263D01*
X138278456Y-63126018D01*
X138285909Y-63086087D01*
X138307741Y-63054485D01*
X138340530Y-63033566D01*
X138382162Y-63026342D01*
X138423782Y-63033568D01*
X138456516Y-63054485D01*
X138478400Y-63086093D01*
X138485867Y-63126018D01*
X138478345Y-63293263D01*
X138470822Y-63460374D01*
G37*
G36*
X139012254Y-63860285D02*
G01*
X138930553Y-63854037D01*
X138858066Y-63836033D01*
X138793256Y-63806834D01*
X138734922Y-63766251D01*
X138683238Y-63712562D01*
X138646869Y-63652091D01*
X138624680Y-63583458D01*
X138616977Y-63504570D01*
X138623059Y-63432289D01*
X138641816Y-63357335D01*
X138674488Y-63278708D01*
X138722899Y-63195468D01*
X138777086Y-63124857D01*
X138831521Y-63074112D01*
X138886593Y-63039929D01*
X138943149Y-63020055D01*
X139002447Y-63013446D01*
X139053832Y-63017558D01*
X139114128Y-63030955D01*
X139185006Y-63055560D01*
X139248637Y-63087372D01*
X139286438Y-63117540D01*
X139305977Y-63146338D01*
X139312019Y-63175117D01*
X139305699Y-63209751D01*
X139286495Y-63240537D01*
X139255680Y-63263571D01*
X139216575Y-63271367D01*
X139183915Y-63264027D01*
X139138796Y-63236977D01*
X139106603Y-63219094D01*
X139062363Y-63207101D01*
X139002447Y-63202588D01*
X138977550Y-63207649D01*
X138949403Y-63224703D01*
X138916320Y-63258484D01*
X138876980Y-63315764D01*
X138838673Y-63391079D01*
X138818442Y-63453147D01*
X138812365Y-63504704D01*
X138818988Y-63554415D01*
X138837899Y-63594912D01*
X138869457Y-63628425D01*
X138907690Y-63651413D01*
X138954556Y-63665937D01*
X139012254Y-63671143D01*
X139064180Y-63662701D01*
X139135437Y-63632455D01*
X139202853Y-63600288D01*
X139227859Y-63593767D01*
X139265486Y-63601109D01*
X139297377Y-63623253D01*
X139319254Y-63655142D01*
X139326325Y-63690420D01*
X139320731Y-63715070D01*
X139301858Y-63741965D01*
X139263957Y-63772703D01*
X139198574Y-63808163D01*
X139120496Y-63839377D01*
X139059531Y-63855555D01*
X139012254Y-63860285D01*
G37*
G36*
X140089474Y-63843090D02*
G01*
X140053221Y-63836819D01*
X140023758Y-63818461D01*
X139999337Y-63786133D01*
X139956276Y-63715968D01*
X139888847Y-63624597D01*
X139767880Y-63470583D01*
X139668674Y-63538220D01*
X139661152Y-63738041D01*
X139653711Y-63778181D01*
X139631867Y-63810246D01*
X139599092Y-63831472D01*
X139557446Y-63838792D01*
X139518823Y-63833601D01*
X139490639Y-63819387D01*
X139470173Y-63796321D01*
X139456667Y-63762157D01*
X139451524Y-63712719D01*
X139460122Y-63535198D01*
X139468786Y-63357676D01*
X139472144Y-63108890D01*
X139475570Y-62861582D01*
X139472144Y-62785415D01*
X139468786Y-62709181D01*
X139476239Y-62669181D01*
X139498071Y-62637514D01*
X139530860Y-62616594D01*
X139572492Y-62609371D01*
X139614107Y-62616612D01*
X139646845Y-62637581D01*
X139668729Y-62669253D01*
X139676197Y-62709248D01*
X139679959Y-62787363D01*
X139683720Y-62865478D01*
X139679220Y-63077389D01*
X139675458Y-63286278D01*
X139789049Y-63189138D01*
X139986575Y-62999274D01*
X140022390Y-62974212D01*
X140061667Y-62966161D01*
X140101054Y-62973738D01*
X140136088Y-62996923D01*
X140160520Y-63030568D01*
X140168395Y-63068187D01*
X140161495Y-63101128D01*
X140139043Y-63134951D01*
X140044796Y-63233397D01*
X139927938Y-63341959D01*
X140084235Y-63543056D01*
X140158170Y-63649736D01*
X140190076Y-63711305D01*
X140197680Y-63744086D01*
X140194037Y-63770108D01*
X140183251Y-63793191D01*
X140164634Y-63814209D01*
X140129124Y-63835945D01*
X140089474Y-63843090D01*
G37*
G36*
X141096779Y-62636592D02*
G01*
X141120565Y-62652019D01*
X141135482Y-62677615D01*
X141141172Y-62717644D01*
X141138552Y-62748675D01*
X141135933Y-62779706D01*
X141135933Y-63066508D01*
X141191620Y-63039016D01*
X141242594Y-63020297D01*
X141293499Y-63008597D01*
X141341060Y-63004849D01*
X141410625Y-63010244D01*
X141472865Y-63025853D01*
X141529028Y-63051281D01*
X141580082Y-63086776D01*
X141626653Y-63133204D01*
X141670701Y-63195847D01*
X141702166Y-63264431D01*
X141721430Y-63340109D01*
X141728075Y-63424372D01*
X141720477Y-63509315D01*
X141698354Y-63585721D01*
X141661884Y-63655287D01*
X141610130Y-63719235D01*
X141546121Y-63773644D01*
X141476137Y-63811907D01*
X141398884Y-63835110D01*
X141312514Y-63843090D01*
X141243081Y-63838988D01*
X141176625Y-63826836D01*
X141112626Y-63806686D01*
X141081869Y-63827518D01*
X141044989Y-63834493D01*
X141007216Y-63827700D01*
X140975471Y-63807492D01*
X140953855Y-63777221D01*
X140946590Y-63739989D01*
X140948806Y-63684912D01*
X140951090Y-63629769D01*
X140951090Y-63287957D01*
X141135933Y-63287957D01*
X141135933Y-63605588D01*
X141205996Y-63631520D01*
X141264178Y-63645436D01*
X141312514Y-63649650D01*
X141373425Y-63642286D01*
X141425044Y-63621075D01*
X141469550Y-63585774D01*
X141503536Y-63539949D01*
X141524071Y-63486961D01*
X141531209Y-63424708D01*
X141525215Y-63361698D01*
X141508224Y-63308822D01*
X141480834Y-63264045D01*
X141441866Y-63227470D01*
X141396030Y-63205797D01*
X141341060Y-63198289D01*
X141301123Y-63203383D01*
X141250922Y-63220723D01*
X141199153Y-63247273D01*
X141135933Y-63287957D01*
X140951090Y-63287957D01*
X140951090Y-62780109D01*
X140957267Y-62728458D01*
X140975136Y-62684127D01*
X140998724Y-62653872D01*
X141026742Y-62636707D01*
X141060773Y-62630864D01*
X141096779Y-62636592D01*
G37*
G36*
X142616020Y-63177132D02*
G01*
X142356756Y-63712921D01*
X142267975Y-63901342D01*
X142210198Y-64038277D01*
X142160629Y-64176506D01*
X142143639Y-64208573D01*
X142122419Y-64229959D01*
X142096532Y-64242702D01*
X142064446Y-64247166D01*
X142024200Y-64240219D01*
X141989287Y-64219426D01*
X141971203Y-64199145D01*
X141960602Y-64176222D01*
X141956980Y-64149707D01*
X141966432Y-64099508D01*
X142009885Y-63978487D01*
X142116299Y-63736631D01*
X142020201Y-63555326D01*
X141854013Y-63257597D01*
X141817206Y-63199834D01*
X141801555Y-63165487D01*
X141796921Y-63136899D01*
X141804798Y-63099291D01*
X141829228Y-63065702D01*
X141864263Y-63042517D01*
X141903649Y-63034939D01*
X141934870Y-63039195D01*
X141960181Y-63051347D01*
X141981025Y-63071680D01*
X142048387Y-63169832D01*
X142130479Y-63308823D01*
X142229744Y-63498256D01*
X142327472Y-63282516D01*
X142381769Y-63174057D01*
X142431916Y-63084912D01*
X142456966Y-63054015D01*
X142486013Y-63036547D01*
X142520576Y-63030641D01*
X142560250Y-63037712D01*
X142595736Y-63059187D01*
X142614334Y-63080001D01*
X142625128Y-63103010D01*
X142628782Y-63129107D01*
X142625829Y-63151085D01*
X142616020Y-63177132D01*
G37*
G36*
X144284779Y-62910278D02*
G01*
X144102152Y-62901278D01*
X143919593Y-62893083D01*
X143939877Y-63198625D01*
X143952223Y-63382603D01*
X143955662Y-63505711D01*
X143960901Y-63581744D01*
X143966207Y-63657710D01*
X143960047Y-63711983D01*
X143942161Y-63759333D01*
X143917702Y-63792488D01*
X143888923Y-63811040D01*
X143854240Y-63817298D01*
X143815345Y-63810708D01*
X143781364Y-63790969D01*
X143761527Y-63769469D01*
X143749969Y-63745268D01*
X143746034Y-63717354D01*
X143749728Y-63685383D01*
X143753490Y-63652672D01*
X143748586Y-63548295D01*
X143743750Y-63443045D01*
X143740308Y-63333381D01*
X143727966Y-63170213D01*
X143706943Y-62897382D01*
X143667852Y-62897382D01*
X143508887Y-62891278D01*
X143401871Y-62875889D01*
X143363821Y-62861150D01*
X143338763Y-62840243D01*
X143323786Y-62812840D01*
X143318450Y-62776750D01*
X143325104Y-62740369D01*
X143345519Y-62707166D01*
X143368718Y-62686992D01*
X143395754Y-62675996D01*
X143428134Y-62673851D01*
X143547623Y-62686008D01*
X143667852Y-62694068D01*
X143804939Y-62692590D01*
X143942094Y-62691046D01*
X144113436Y-62697494D01*
X144284779Y-62703942D01*
X144326471Y-62711476D01*
X144360274Y-62733629D01*
X144383054Y-62766646D01*
X144390701Y-62806707D01*
X144383067Y-62846837D01*
X144360274Y-62880187D01*
X144326439Y-62902654D01*
X144284779Y-62910278D01*
G37*
G36*
X144682205Y-63125144D02*
G01*
X144739933Y-63077318D01*
X144799814Y-63044410D01*
X144864336Y-63024486D01*
X144933946Y-63017745D01*
X144998148Y-63023022D01*
X145048588Y-63037484D01*
X145088112Y-63059845D01*
X145118789Y-63089949D01*
X145141424Y-63128451D01*
X145158983Y-63182375D01*
X145169903Y-63256187D01*
X145178164Y-63442037D01*
X145193210Y-63589468D01*
X145205276Y-63670242D01*
X145218733Y-63735422D01*
X145222494Y-63763229D01*
X145218893Y-63789847D01*
X145208386Y-63812718D01*
X145190523Y-63832814D01*
X145155966Y-63853386D01*
X145115766Y-63860285D01*
X145080497Y-63855389D01*
X145053443Y-63841680D01*
X145032557Y-63819000D01*
X145017300Y-63785125D01*
X145001203Y-63717777D01*
X144984254Y-63613716D01*
X144973761Y-63512264D01*
X144970753Y-63439284D01*
X144972567Y-63382528D01*
X144974447Y-63325772D01*
X144972970Y-63261157D01*
X144964840Y-63236834D01*
X144952069Y-63224089D01*
X144933879Y-63219782D01*
X144881512Y-63227805D01*
X144831748Y-63252364D01*
X144782888Y-63296285D01*
X144746938Y-63344137D01*
X144688183Y-63441769D01*
X144683672Y-63629668D01*
X144673528Y-63726812D01*
X144661920Y-63768737D01*
X144637886Y-63803543D01*
X144607525Y-63823356D01*
X144568760Y-63830194D01*
X144529113Y-63823202D01*
X144493936Y-63802051D01*
X144475594Y-63781515D01*
X144464917Y-63758666D01*
X144461293Y-63732601D01*
X144469555Y-63692771D01*
X144473210Y-63657647D01*
X144478555Y-63490062D01*
X144477005Y-63314244D01*
X144480100Y-62987788D01*
X144481577Y-62963004D01*
X144486078Y-62844387D01*
X144478891Y-62775676D01*
X144471771Y-62706964D01*
X144479538Y-62667851D01*
X144502534Y-62636775D01*
X144536291Y-62616319D01*
X144576954Y-62609371D01*
X144611176Y-62614367D01*
X144638295Y-62628596D01*
X144660085Y-62652593D01*
X144676898Y-62688963D01*
X144686971Y-62740004D01*
X144691205Y-62827058D01*
X144686705Y-62979460D01*
X144682205Y-63125144D01*
G37*
G36*
X145792704Y-63031511D02*
G01*
X145864274Y-63045873D01*
X145923380Y-63068120D01*
X145974597Y-63100877D01*
X146009101Y-63139601D01*
X146029677Y-63185151D01*
X146036824Y-63239731D01*
X146031587Y-63277687D01*
X146015648Y-63313901D01*
X145987531Y-63349461D01*
X145944403Y-63384946D01*
X145891049Y-63415678D01*
X145775344Y-63469912D01*
X145522125Y-63580871D01*
X145562019Y-63618531D01*
X145609308Y-63645351D01*
X145662879Y-63661232D01*
X145726514Y-63666845D01*
X145792585Y-63661935D01*
X145848901Y-63648041D01*
X145897117Y-63625940D01*
X145957574Y-63597067D01*
X145997062Y-63589468D01*
X146032842Y-63594695D01*
X146055900Y-63608486D01*
X146069932Y-63630686D01*
X146075177Y-63664561D01*
X146068514Y-63701941D01*
X146047970Y-63736684D01*
X146010329Y-63770235D01*
X145949709Y-63802790D01*
X145878396Y-63827495D01*
X145804226Y-63842369D01*
X145726514Y-63847389D01*
X145636690Y-63841473D01*
X145558963Y-63824667D01*
X145491483Y-63797937D01*
X145432726Y-63761617D01*
X145387300Y-63720616D01*
X145352491Y-63674303D01*
X145327407Y-63621983D01*
X145311874Y-63562522D01*
X145306453Y-63494427D01*
X145313123Y-63399964D01*
X145315004Y-63391729D01*
X145507080Y-63391729D01*
X145676139Y-63319458D01*
X145771736Y-63273306D01*
X145837675Y-63235231D01*
X145802972Y-63220205D01*
X145759768Y-63210436D01*
X145706162Y-63206886D01*
X145661409Y-63212127D01*
X145622016Y-63227421D01*
X145586673Y-63253097D01*
X145557531Y-63286589D01*
X145530865Y-63331923D01*
X145507080Y-63391729D01*
X145315004Y-63391729D01*
X145332343Y-63315819D01*
X145363430Y-63240384D01*
X145406397Y-63172363D01*
X145454572Y-63119254D01*
X145507763Y-63078907D01*
X145566633Y-63050113D01*
X145632292Y-63032455D01*
X145706229Y-63026342D01*
X145792704Y-63031511D01*
G37*
G36*
X146800712Y-63864584D02*
G01*
X146758148Y-63858445D01*
X146728654Y-63841838D01*
X146708686Y-63814803D01*
X146697745Y-63773976D01*
X146676722Y-63618887D01*
X146668161Y-63537541D01*
X146665438Y-63463799D01*
X146668058Y-63397170D01*
X146670677Y-63330473D01*
X146672155Y-63303875D01*
X146673700Y-63269083D01*
X146668822Y-63230139D01*
X146657665Y-63212318D01*
X146641393Y-63206886D01*
X146598756Y-63214833D01*
X146554216Y-63240528D01*
X146505783Y-63289434D01*
X146466031Y-63347010D01*
X146431214Y-63416135D01*
X146401741Y-63498525D01*
X146394958Y-63566027D01*
X146390457Y-63633597D01*
X146395293Y-63698480D01*
X146400197Y-63763296D01*
X146392666Y-63803542D01*
X146370509Y-63835769D01*
X146337388Y-63857220D01*
X146295752Y-63864584D01*
X146254163Y-63857239D01*
X146221331Y-63835903D01*
X146199487Y-63803838D01*
X146192047Y-63763699D01*
X146187547Y-63699152D01*
X146183046Y-63634605D01*
X146193524Y-63430619D01*
X146204070Y-63226566D01*
X146201450Y-63158123D01*
X146198831Y-63090554D01*
X146206512Y-63051272D01*
X146229257Y-63019827D01*
X146262817Y-62999050D01*
X146304014Y-62991953D01*
X146347345Y-62999361D01*
X146377839Y-63019966D01*
X146398737Y-63055269D01*
X146409197Y-63111375D01*
X146409936Y-63119637D01*
X146468802Y-63068920D01*
X146526370Y-63035020D01*
X146583515Y-63015539D01*
X146641393Y-63009147D01*
X146697009Y-63014337D01*
X146742783Y-63028917D01*
X146780705Y-63052193D01*
X146812107Y-63084569D01*
X146837520Y-63127495D01*
X146855857Y-63181973D01*
X146868677Y-63258999D01*
X146873588Y-63364930D01*
X146873588Y-63418126D01*
X146872849Y-63466822D01*
X146876408Y-63529181D01*
X146888969Y-63617410D01*
X146901594Y-63705485D01*
X146905157Y-63767192D01*
X146897582Y-63805715D01*
X146875066Y-63836844D01*
X146841852Y-63857504D01*
X146800712Y-63864584D01*
G37*
G36*
X147672806Y-63377624D02*
G01*
X147673545Y-63528481D01*
X147674283Y-63679270D01*
X147676903Y-63725951D01*
X147679590Y-63772565D01*
X147671933Y-63810862D01*
X147649163Y-63841613D01*
X147615650Y-63861922D01*
X147574406Y-63868882D01*
X147535918Y-63862821D01*
X147506345Y-63845618D01*
X147483463Y-63816358D01*
X147418566Y-63835990D01*
X147352330Y-63847747D01*
X147284313Y-63851688D01*
X147214406Y-63846309D01*
X147155184Y-63831115D01*
X147104776Y-63806954D01*
X147067755Y-63778083D01*
X147039564Y-63743993D01*
X147019356Y-63704018D01*
X147007049Y-63656971D01*
X146984609Y-63474886D01*
X146977764Y-63323555D01*
X146983014Y-63223626D01*
X147000332Y-63102039D01*
X147012851Y-63064139D01*
X147033142Y-63038875D01*
X147061782Y-63023404D01*
X147101754Y-63017745D01*
X147142421Y-63024649D01*
X147176107Y-63044947D01*
X147199200Y-63075712D01*
X147206937Y-63113860D01*
X147196056Y-63216693D01*
X147185175Y-63323152D01*
X147192295Y-63506853D01*
X147201762Y-63581936D01*
X147213721Y-63636821D01*
X147250125Y-63649516D01*
X147284380Y-63653949D01*
X147369386Y-63648276D01*
X147467678Y-63629970D01*
X147466939Y-63498659D01*
X147465462Y-63372587D01*
X147469313Y-63224013D01*
X147479701Y-63107009D01*
X147490875Y-63066790D01*
X147510815Y-63040136D01*
X147540025Y-63023778D01*
X147581929Y-63017745D01*
X147623332Y-63024759D01*
X147657827Y-63045418D01*
X147675223Y-63065573D01*
X147684829Y-63088341D01*
X147687112Y-63114801D01*
X147672806Y-63377624D01*
G37*
G36*
X148444888Y-63272374D02*
G01*
X148434593Y-63326134D01*
X148413981Y-63360175D01*
X148383708Y-63380196D01*
X148340443Y-63387431D01*
X148297610Y-63380881D01*
X148269640Y-63363412D01*
X148252342Y-63334832D01*
X148245806Y-63290643D01*
X148242044Y-63215484D01*
X148176533Y-63231636D01*
X148120859Y-63256887D01*
X148073479Y-63291014D01*
X148033356Y-63334529D01*
X148000042Y-63388640D01*
X148000781Y-63765647D01*
X147993362Y-63804941D01*
X147971496Y-63836441D01*
X147938763Y-63857358D01*
X147897143Y-63864584D01*
X147867453Y-63860992D01*
X147843886Y-63850913D01*
X147825006Y-63834493D01*
X147807207Y-63804333D01*
X147800960Y-63765311D01*
X147800960Y-63272643D01*
X147802438Y-63203058D01*
X147803982Y-63133473D01*
X147810439Y-63094347D01*
X147829103Y-63063150D01*
X147858661Y-63042386D01*
X147900904Y-63034939D01*
X147939163Y-63040555D01*
X147967032Y-63056063D01*
X147987201Y-63081711D01*
X148000042Y-63120577D01*
X148069065Y-63077104D01*
X148140729Y-63046557D01*
X148215834Y-63028234D01*
X148295375Y-63022043D01*
X148340988Y-63027519D01*
X148376542Y-63042766D01*
X148404463Y-63067460D01*
X148425836Y-63103199D01*
X148440200Y-63153219D01*
X148445627Y-63221999D01*
X148444888Y-63272374D01*
G37*
G36*
X149020748Y-63030294D02*
G01*
X149075345Y-63043141D01*
X149139191Y-63066709D01*
X149195519Y-63096244D01*
X149229368Y-63124552D01*
X149247097Y-63151911D01*
X149252636Y-63179550D01*
X149248304Y-63204832D01*
X149235374Y-63226633D01*
X149223687Y-63301793D01*
X149219590Y-63407514D01*
X149225716Y-63540288D01*
X149239874Y-63613044D01*
X149274465Y-63690823D01*
X149303750Y-63764035D01*
X149296167Y-63800237D01*
X149273323Y-63829791D01*
X149240510Y-63849451D01*
X149203066Y-63855986D01*
X149181268Y-63851048D01*
X149146733Y-63831761D01*
X149093383Y-63789155D01*
X149025773Y-63819206D01*
X148971610Y-63839060D01*
X148920568Y-63852198D01*
X148882211Y-63855986D01*
X148791660Y-63848992D01*
X148718241Y-63829603D01*
X148658705Y-63799364D01*
X148610588Y-63758594D01*
X148573215Y-63707799D01*
X148545001Y-63644275D01*
X148526693Y-63565240D01*
X148520425Y-63472800D01*
X148728130Y-63472800D01*
X148732883Y-63539487D01*
X148745491Y-63588759D01*
X148764199Y-63624597D01*
X148791698Y-63652451D01*
X148826930Y-63669392D01*
X148872404Y-63675442D01*
X148918043Y-63671536D01*
X148960729Y-63659994D01*
X149000896Y-63641068D01*
X149039247Y-63614454D01*
X149021386Y-63446293D01*
X149016679Y-63346258D01*
X149020037Y-63290912D01*
X149030246Y-63221193D01*
X149003514Y-63210312D01*
X148983633Y-63206886D01*
X148934420Y-63211845D01*
X148888803Y-63226521D01*
X148845808Y-63251245D01*
X148804767Y-63287151D01*
X148770700Y-63329641D01*
X148747041Y-63374265D01*
X148732914Y-63421682D01*
X148728130Y-63472800D01*
X148520425Y-63472800D01*
X148520047Y-63467225D01*
X148525486Y-63395976D01*
X148541433Y-63330098D01*
X148567758Y-63268600D01*
X148604886Y-63210695D01*
X148653777Y-63155840D01*
X148724595Y-63098747D01*
X148800644Y-63058727D01*
X148883169Y-63034590D01*
X148973893Y-63026342D01*
X149020748Y-63030294D01*
G37*
D11*
X223104819Y-89948333D02*
X223819104Y-89948333D01*
X223819104Y-89948333D02*
X223961961Y-89995952D01*
X223961961Y-89995952D02*
X224057200Y-90091190D01*
X224057200Y-90091190D02*
X224104819Y-90234047D01*
X224104819Y-90234047D02*
X224104819Y-90329285D01*
X223104819Y-89043571D02*
X223104819Y-89234047D01*
X223104819Y-89234047D02*
X223152438Y-89329285D01*
X223152438Y-89329285D02*
X223200057Y-89376904D01*
X223200057Y-89376904D02*
X223342914Y-89472142D01*
X223342914Y-89472142D02*
X223533390Y-89519761D01*
X223533390Y-89519761D02*
X223914342Y-89519761D01*
X223914342Y-89519761D02*
X224009580Y-89472142D01*
X224009580Y-89472142D02*
X224057200Y-89424523D01*
X224057200Y-89424523D02*
X224104819Y-89329285D01*
X224104819Y-89329285D02*
X224104819Y-89138809D01*
X224104819Y-89138809D02*
X224057200Y-89043571D01*
X224057200Y-89043571D02*
X224009580Y-88995952D01*
X224009580Y-88995952D02*
X223914342Y-88948333D01*
X223914342Y-88948333D02*
X223676247Y-88948333D01*
X223676247Y-88948333D02*
X223581009Y-88995952D01*
X223581009Y-88995952D02*
X223533390Y-89043571D01*
X223533390Y-89043571D02*
X223485771Y-89138809D01*
X223485771Y-89138809D02*
X223485771Y-89329285D01*
X223485771Y-89329285D02*
X223533390Y-89424523D01*
X223533390Y-89424523D02*
X223581009Y-89472142D01*
X223581009Y-89472142D02*
X223676247Y-89519761D01*
X122104819Y-89333333D02*
X122819104Y-89333333D01*
X122819104Y-89333333D02*
X122961961Y-89380952D01*
X122961961Y-89380952D02*
X123057200Y-89476190D01*
X123057200Y-89476190D02*
X123104819Y-89619047D01*
X123104819Y-89619047D02*
X123104819Y-89714285D01*
X122104819Y-88380952D02*
X122104819Y-88857142D01*
X122104819Y-88857142D02*
X122581009Y-88904761D01*
X122581009Y-88904761D02*
X122533390Y-88857142D01*
X122533390Y-88857142D02*
X122485771Y-88761904D01*
X122485771Y-88761904D02*
X122485771Y-88523809D01*
X122485771Y-88523809D02*
X122533390Y-88428571D01*
X122533390Y-88428571D02*
X122581009Y-88380952D01*
X122581009Y-88380952D02*
X122676247Y-88333333D01*
X122676247Y-88333333D02*
X122914342Y-88333333D01*
X122914342Y-88333333D02*
X123009580Y-88380952D01*
X123009580Y-88380952D02*
X123057200Y-88428571D01*
X123057200Y-88428571D02*
X123104819Y-88523809D01*
X123104819Y-88523809D02*
X123104819Y-88761904D01*
X123104819Y-88761904D02*
X123057200Y-88857142D01*
X123057200Y-88857142D02*
X123009580Y-88904761D01*
X121666666Y-128009819D02*
X121666666Y-128724104D01*
X121666666Y-128724104D02*
X121619047Y-128866961D01*
X121619047Y-128866961D02*
X121523809Y-128962200D01*
X121523809Y-128962200D02*
X121380952Y-129009819D01*
X121380952Y-129009819D02*
X121285714Y-129009819D01*
X122571428Y-128343152D02*
X122571428Y-129009819D01*
X122333333Y-127962200D02*
X122095238Y-128676485D01*
X122095238Y-128676485D02*
X122714285Y-128676485D01*
X122666666Y-106009819D02*
X122666666Y-106724104D01*
X122666666Y-106724104D02*
X122619047Y-106866961D01*
X122619047Y-106866961D02*
X122523809Y-106962200D01*
X122523809Y-106962200D02*
X122380952Y-107009819D01*
X122380952Y-107009819D02*
X122285714Y-107009819D01*
X123047619Y-106009819D02*
X123666666Y-106009819D01*
X123666666Y-106009819D02*
X123333333Y-106390771D01*
X123333333Y-106390771D02*
X123476190Y-106390771D01*
X123476190Y-106390771D02*
X123571428Y-106438390D01*
X123571428Y-106438390D02*
X123619047Y-106486009D01*
X123619047Y-106486009D02*
X123666666Y-106581247D01*
X123666666Y-106581247D02*
X123666666Y-106819342D01*
X123666666Y-106819342D02*
X123619047Y-106914580D01*
X123619047Y-106914580D02*
X123571428Y-106962200D01*
X123571428Y-106962200D02*
X123476190Y-107009819D01*
X123476190Y-107009819D02*
X123190476Y-107009819D01*
X123190476Y-107009819D02*
X123095238Y-106962200D01*
X123095238Y-106962200D02*
X123047619Y-106914580D01*
X236344819Y-131141904D02*
X237154342Y-131141904D01*
X237154342Y-131141904D02*
X237249580Y-131094285D01*
X237249580Y-131094285D02*
X237297200Y-131046666D01*
X237297200Y-131046666D02*
X237344819Y-130951428D01*
X237344819Y-130951428D02*
X237344819Y-130760952D01*
X237344819Y-130760952D02*
X237297200Y-130665714D01*
X237297200Y-130665714D02*
X237249580Y-130618095D01*
X237249580Y-130618095D02*
X237154342Y-130570476D01*
X237154342Y-130570476D02*
X236344819Y-130570476D01*
X237344819Y-129570476D02*
X237344819Y-130141904D01*
X237344819Y-129856190D02*
X236344819Y-129856190D01*
X236344819Y-129856190D02*
X236487676Y-129951428D01*
X236487676Y-129951428D02*
X236582914Y-130046666D01*
X236582914Y-130046666D02*
X236630533Y-130141904D01*
X186855713Y-131242800D02*
X186727142Y-131195180D01*
X186727142Y-131195180D02*
X186512856Y-131195180D01*
X186512856Y-131195180D02*
X186427142Y-131242800D01*
X186427142Y-131242800D02*
X186384284Y-131290419D01*
X186384284Y-131290419D02*
X186341427Y-131385657D01*
X186341427Y-131385657D02*
X186341427Y-131480895D01*
X186341427Y-131480895D02*
X186384284Y-131576133D01*
X186384284Y-131576133D02*
X186427142Y-131623752D01*
X186427142Y-131623752D02*
X186512856Y-131671371D01*
X186512856Y-131671371D02*
X186684284Y-131718990D01*
X186684284Y-131718990D02*
X186769999Y-131766609D01*
X186769999Y-131766609D02*
X186812856Y-131814228D01*
X186812856Y-131814228D02*
X186855713Y-131909466D01*
X186855713Y-131909466D02*
X186855713Y-132004704D01*
X186855713Y-132004704D02*
X186812856Y-132099942D01*
X186812856Y-132099942D02*
X186769999Y-132147561D01*
X186769999Y-132147561D02*
X186684284Y-132195180D01*
X186684284Y-132195180D02*
X186469999Y-132195180D01*
X186469999Y-132195180D02*
X186341427Y-132147561D01*
X186041427Y-132195180D02*
X185827141Y-131195180D01*
X185827141Y-131195180D02*
X185655713Y-131909466D01*
X185655713Y-131909466D02*
X185484284Y-131195180D01*
X185484284Y-131195180D02*
X185269999Y-132195180D01*
X184412856Y-131290419D02*
X184455713Y-131242800D01*
X184455713Y-131242800D02*
X184584285Y-131195180D01*
X184584285Y-131195180D02*
X184669999Y-131195180D01*
X184669999Y-131195180D02*
X184798570Y-131242800D01*
X184798570Y-131242800D02*
X184884285Y-131338038D01*
X184884285Y-131338038D02*
X184927142Y-131433276D01*
X184927142Y-131433276D02*
X184969999Y-131623752D01*
X184969999Y-131623752D02*
X184969999Y-131766609D01*
X184969999Y-131766609D02*
X184927142Y-131957085D01*
X184927142Y-131957085D02*
X184884285Y-132052323D01*
X184884285Y-132052323D02*
X184798570Y-132147561D01*
X184798570Y-132147561D02*
X184669999Y-132195180D01*
X184669999Y-132195180D02*
X184584285Y-132195180D01*
X184584285Y-132195180D02*
X184455713Y-132147561D01*
X184455713Y-132147561D02*
X184412856Y-132099942D01*
X183598570Y-131195180D02*
X184027142Y-131195180D01*
X184027142Y-131195180D02*
X184027142Y-132195180D01*
X183298571Y-131195180D02*
X183298571Y-132195180D01*
X182784285Y-131195180D02*
X183169999Y-131766609D01*
X182784285Y-132195180D02*
X183298571Y-131623752D01*
X186696285Y-127115180D02*
X186139142Y-127115180D01*
X186139142Y-127115180D02*
X186439142Y-126734228D01*
X186439142Y-126734228D02*
X186310571Y-126734228D01*
X186310571Y-126734228D02*
X186224857Y-126686609D01*
X186224857Y-126686609D02*
X186181999Y-126638990D01*
X186181999Y-126638990D02*
X186139142Y-126543752D01*
X186139142Y-126543752D02*
X186139142Y-126305657D01*
X186139142Y-126305657D02*
X186181999Y-126210419D01*
X186181999Y-126210419D02*
X186224857Y-126162800D01*
X186224857Y-126162800D02*
X186310571Y-126115180D01*
X186310571Y-126115180D02*
X186567714Y-126115180D01*
X186567714Y-126115180D02*
X186653428Y-126162800D01*
X186653428Y-126162800D02*
X186696285Y-126210419D01*
X185881999Y-127115180D02*
X185581999Y-126115180D01*
X185581999Y-126115180D02*
X185281999Y-127115180D01*
X185067713Y-127115180D02*
X184510570Y-127115180D01*
X184510570Y-127115180D02*
X184810570Y-126734228D01*
X184810570Y-126734228D02*
X184681999Y-126734228D01*
X184681999Y-126734228D02*
X184596285Y-126686609D01*
X184596285Y-126686609D02*
X184553427Y-126638990D01*
X184553427Y-126638990D02*
X184510570Y-126543752D01*
X184510570Y-126543752D02*
X184510570Y-126305657D01*
X184510570Y-126305657D02*
X184553427Y-126210419D01*
X184553427Y-126210419D02*
X184596285Y-126162800D01*
X184596285Y-126162800D02*
X184681999Y-126115180D01*
X184681999Y-126115180D02*
X184939142Y-126115180D01*
X184939142Y-126115180D02*
X185024856Y-126162800D01*
X185024856Y-126162800D02*
X185067713Y-126210419D01*
X186267713Y-134687561D02*
X186353428Y-134735180D01*
X186353428Y-134735180D02*
X186481999Y-134735180D01*
X186481999Y-134735180D02*
X186610570Y-134687561D01*
X186610570Y-134687561D02*
X186696285Y-134592323D01*
X186696285Y-134592323D02*
X186739142Y-134497085D01*
X186739142Y-134497085D02*
X186781999Y-134306609D01*
X186781999Y-134306609D02*
X186781999Y-134163752D01*
X186781999Y-134163752D02*
X186739142Y-133973276D01*
X186739142Y-133973276D02*
X186696285Y-133878038D01*
X186696285Y-133878038D02*
X186610570Y-133782800D01*
X186610570Y-133782800D02*
X186481999Y-133735180D01*
X186481999Y-133735180D02*
X186396285Y-133735180D01*
X186396285Y-133735180D02*
X186267713Y-133782800D01*
X186267713Y-133782800D02*
X186224856Y-133830419D01*
X186224856Y-133830419D02*
X186224856Y-134163752D01*
X186224856Y-134163752D02*
X186396285Y-134163752D01*
X185839142Y-133735180D02*
X185839142Y-134735180D01*
X185839142Y-134735180D02*
X185324856Y-133735180D01*
X185324856Y-133735180D02*
X185324856Y-134735180D01*
X184896285Y-133735180D02*
X184896285Y-134735180D01*
X184896285Y-134735180D02*
X184681999Y-134735180D01*
X184681999Y-134735180D02*
X184553428Y-134687561D01*
X184553428Y-134687561D02*
X184467713Y-134592323D01*
X184467713Y-134592323D02*
X184424856Y-134497085D01*
X184424856Y-134497085D02*
X184381999Y-134306609D01*
X184381999Y-134306609D02*
X184381999Y-134163752D01*
X184381999Y-134163752D02*
X184424856Y-133973276D01*
X184424856Y-133973276D02*
X184467713Y-133878038D01*
X184467713Y-133878038D02*
X184553428Y-133782800D01*
X184553428Y-133782800D02*
X184681999Y-133735180D01*
X184681999Y-133735180D02*
X184896285Y-133735180D01*
X186824856Y-128702800D02*
X186696285Y-128655180D01*
X186696285Y-128655180D02*
X186481999Y-128655180D01*
X186481999Y-128655180D02*
X186396285Y-128702800D01*
X186396285Y-128702800D02*
X186353427Y-128750419D01*
X186353427Y-128750419D02*
X186310570Y-128845657D01*
X186310570Y-128845657D02*
X186310570Y-128940895D01*
X186310570Y-128940895D02*
X186353427Y-129036133D01*
X186353427Y-129036133D02*
X186396285Y-129083752D01*
X186396285Y-129083752D02*
X186481999Y-129131371D01*
X186481999Y-129131371D02*
X186653427Y-129178990D01*
X186653427Y-129178990D02*
X186739142Y-129226609D01*
X186739142Y-129226609D02*
X186781999Y-129274228D01*
X186781999Y-129274228D02*
X186824856Y-129369466D01*
X186824856Y-129369466D02*
X186824856Y-129464704D01*
X186824856Y-129464704D02*
X186781999Y-129559942D01*
X186781999Y-129559942D02*
X186739142Y-129607561D01*
X186739142Y-129607561D02*
X186653427Y-129655180D01*
X186653427Y-129655180D02*
X186439142Y-129655180D01*
X186439142Y-129655180D02*
X186310570Y-129607561D01*
X186010570Y-129655180D02*
X185796284Y-128655180D01*
X185796284Y-128655180D02*
X185624856Y-129369466D01*
X185624856Y-129369466D02*
X185453427Y-128655180D01*
X185453427Y-128655180D02*
X185239142Y-129655180D01*
X184724856Y-129655180D02*
X184553428Y-129655180D01*
X184553428Y-129655180D02*
X184467713Y-129607561D01*
X184467713Y-129607561D02*
X184381999Y-129512323D01*
X184381999Y-129512323D02*
X184339142Y-129321847D01*
X184339142Y-129321847D02*
X184339142Y-128988514D01*
X184339142Y-128988514D02*
X184381999Y-128798038D01*
X184381999Y-128798038D02*
X184467713Y-128702800D01*
X184467713Y-128702800D02*
X184553428Y-128655180D01*
X184553428Y-128655180D02*
X184724856Y-128655180D01*
X184724856Y-128655180D02*
X184810571Y-128702800D01*
X184810571Y-128702800D02*
X184896285Y-128798038D01*
X184896285Y-128798038D02*
X184939142Y-128988514D01*
X184939142Y-128988514D02*
X184939142Y-129321847D01*
X184939142Y-129321847D02*
X184896285Y-129512323D01*
X184896285Y-129512323D02*
X184810571Y-129607561D01*
X184810571Y-129607561D02*
X184724856Y-129655180D01*
X181833333Y-104185009D02*
X181976190Y-104232628D01*
X181976190Y-104232628D02*
X182023809Y-104280247D01*
X182023809Y-104280247D02*
X182071428Y-104375485D01*
X182071428Y-104375485D02*
X182071428Y-104518342D01*
X182071428Y-104518342D02*
X182023809Y-104613580D01*
X182023809Y-104613580D02*
X181976190Y-104661200D01*
X181976190Y-104661200D02*
X181880952Y-104708819D01*
X181880952Y-104708819D02*
X181500000Y-104708819D01*
X181500000Y-104708819D02*
X181500000Y-103708819D01*
X181500000Y-103708819D02*
X181833333Y-103708819D01*
X181833333Y-103708819D02*
X181928571Y-103756438D01*
X181928571Y-103756438D02*
X181976190Y-103804057D01*
X181976190Y-103804057D02*
X182023809Y-103899295D01*
X182023809Y-103899295D02*
X182023809Y-103994533D01*
X182023809Y-103994533D02*
X181976190Y-104089771D01*
X181976190Y-104089771D02*
X181928571Y-104137390D01*
X181928571Y-104137390D02*
X181833333Y-104185009D01*
X181833333Y-104185009D02*
X181500000Y-104185009D01*
X182500000Y-104708819D02*
X182500000Y-104042152D01*
X182500000Y-104232628D02*
X182547619Y-104137390D01*
X182547619Y-104137390D02*
X182595238Y-104089771D01*
X182595238Y-104089771D02*
X182690476Y-104042152D01*
X182690476Y-104042152D02*
X182785714Y-104042152D01*
X183547619Y-104708819D02*
X183547619Y-103708819D01*
X183547619Y-104661200D02*
X183452381Y-104708819D01*
X183452381Y-104708819D02*
X183261905Y-104708819D01*
X183261905Y-104708819D02*
X183166667Y-104661200D01*
X183166667Y-104661200D02*
X183119048Y-104613580D01*
X183119048Y-104613580D02*
X183071429Y-104518342D01*
X183071429Y-104518342D02*
X183071429Y-104232628D01*
X183071429Y-104232628D02*
X183119048Y-104137390D01*
X183119048Y-104137390D02*
X183166667Y-104089771D01*
X183166667Y-104089771D02*
X183261905Y-104042152D01*
X183261905Y-104042152D02*
X183452381Y-104042152D01*
X183452381Y-104042152D02*
X183547619Y-104089771D01*
X184547619Y-104708819D02*
X183976191Y-104708819D01*
X184261905Y-104708819D02*
X184261905Y-103708819D01*
X184261905Y-103708819D02*
X184166667Y-103851676D01*
X184166667Y-103851676D02*
X184071429Y-103946914D01*
X184071429Y-103946914D02*
X183976191Y-103994533D01*
X193529065Y-75059925D02*
X194166486Y-75059925D01*
X194166486Y-75059925D02*
X194241476Y-75022430D01*
X194241476Y-75022430D02*
X194278972Y-74984934D01*
X194278972Y-74984934D02*
X194316467Y-74909944D01*
X194316467Y-74909944D02*
X194316467Y-74759962D01*
X194316467Y-74759962D02*
X194278972Y-74684972D01*
X194278972Y-74684972D02*
X194241476Y-74647476D01*
X194241476Y-74647476D02*
X194166486Y-74609981D01*
X194166486Y-74609981D02*
X193529065Y-74609981D01*
X193604056Y-74272523D02*
X193566560Y-74235028D01*
X193566560Y-74235028D02*
X193529065Y-74160037D01*
X193529065Y-74160037D02*
X193529065Y-73972561D01*
X193529065Y-73972561D02*
X193566560Y-73897570D01*
X193566560Y-73897570D02*
X193604056Y-73860075D01*
X193604056Y-73860075D02*
X193679046Y-73822579D01*
X193679046Y-73822579D02*
X193754037Y-73822579D01*
X193754037Y-73822579D02*
X193866523Y-73860075D01*
X193866523Y-73860075D02*
X194316467Y-74310019D01*
X194316467Y-74310019D02*
X194316467Y-73822579D01*
D12*
%TO.C,J6*%
X224650000Y-95270000D02*
X224650000Y-94000000D01*
X225920000Y-95270000D02*
X224650000Y-95270000D01*
X228030000Y-92922642D02*
X228030000Y-92610000D01*
X228890000Y-92922642D02*
X228890000Y-92610000D01*
X230570000Y-92922642D02*
X230570000Y-92610000D01*
X231430000Y-92922642D02*
X231430000Y-92610000D01*
X233110000Y-92922642D02*
X233110000Y-92610000D01*
X233970000Y-92922642D02*
X233970000Y-92610000D01*
X235650000Y-92922642D02*
X235650000Y-92610000D01*
X236510000Y-92922642D02*
X236510000Y-92610000D01*
X225490000Y-92840000D02*
X225490000Y-92610000D01*
X226350000Y-92840000D02*
X226350000Y-92610000D01*
X224540000Y-92610000D02*
X237460000Y-92610000D01*
X227190000Y-92610000D02*
X227190000Y-89850000D01*
X229730000Y-92610000D02*
X229730000Y-89850000D01*
X232270000Y-92610000D02*
X232270000Y-89850000D01*
X234810000Y-92610000D02*
X234810000Y-89850000D01*
X237460000Y-92610000D02*
X237460000Y-89850000D01*
X224540000Y-89850000D02*
X224540000Y-92610000D01*
X228030000Y-89850000D02*
X228030000Y-83850000D01*
X230570000Y-89850000D02*
X230570000Y-83850000D01*
X233110000Y-89850000D02*
X233110000Y-83850000D01*
X235650000Y-89850000D02*
X235650000Y-83850000D01*
X237460000Y-89850000D02*
X224540000Y-89850000D01*
X228030000Y-83850000D02*
X228890000Y-83850000D01*
X228890000Y-83850000D02*
X228890000Y-89850000D01*
X230570000Y-83850000D02*
X231430000Y-83850000D01*
X231430000Y-83850000D02*
X231430000Y-89850000D01*
X233110000Y-83850000D02*
X233970000Y-83850000D01*
X233970000Y-83850000D02*
X233970000Y-89850000D01*
X235650000Y-83850000D02*
X236510000Y-83850000D01*
X236510000Y-83850000D02*
X236510000Y-89850000D01*
X225490000Y-89850000D02*
X226350000Y-89850000D01*
X226350000Y-83850000D01*
X225490000Y-83850000D01*
X225490000Y-89850000D01*
G36*
X225490000Y-89850000D02*
G01*
X226350000Y-89850000D01*
X226350000Y-83850000D01*
X225490000Y-83850000D01*
X225490000Y-89850000D01*
G37*
%TO.C,J5*%
X123650000Y-94655000D02*
X123650000Y-93385000D01*
X124920000Y-94655000D02*
X123650000Y-94655000D01*
X127030000Y-92307642D02*
X127030000Y-91995000D01*
X127890000Y-92307642D02*
X127890000Y-91995000D01*
X129570000Y-92307642D02*
X129570000Y-91995000D01*
X130430000Y-92307642D02*
X130430000Y-91995000D01*
X132110000Y-92307642D02*
X132110000Y-91995000D01*
X132970000Y-92307642D02*
X132970000Y-91995000D01*
X134650000Y-92307642D02*
X134650000Y-91995000D01*
X135510000Y-92307642D02*
X135510000Y-91995000D01*
X124490000Y-92225000D02*
X124490000Y-91995000D01*
X125350000Y-92225000D02*
X125350000Y-91995000D01*
X123540000Y-91995000D02*
X136460000Y-91995000D01*
X126190000Y-91995000D02*
X126190000Y-89235000D01*
X128730000Y-91995000D02*
X128730000Y-89235000D01*
X131270000Y-91995000D02*
X131270000Y-89235000D01*
X133810000Y-91995000D02*
X133810000Y-89235000D01*
X136460000Y-91995000D02*
X136460000Y-89235000D01*
X123540000Y-89235000D02*
X123540000Y-91995000D01*
X127030000Y-89235000D02*
X127030000Y-83235000D01*
X129570000Y-89235000D02*
X129570000Y-83235000D01*
X132110000Y-89235000D02*
X132110000Y-83235000D01*
X134650000Y-89235000D02*
X134650000Y-83235000D01*
X136460000Y-89235000D02*
X123540000Y-89235000D01*
X127030000Y-83235000D02*
X127890000Y-83235000D01*
X127890000Y-83235000D02*
X127890000Y-89235000D01*
X129570000Y-83235000D02*
X130430000Y-83235000D01*
X130430000Y-83235000D02*
X130430000Y-89235000D01*
X132110000Y-83235000D02*
X132970000Y-83235000D01*
X132970000Y-83235000D02*
X132970000Y-89235000D01*
X134650000Y-83235000D02*
X135510000Y-83235000D01*
X135510000Y-83235000D02*
X135510000Y-89235000D01*
X124490000Y-89235000D02*
X125350000Y-89235000D01*
X125350000Y-83235000D01*
X124490000Y-83235000D01*
X124490000Y-89235000D01*
G36*
X124490000Y-89235000D02*
G01*
X125350000Y-89235000D01*
X125350000Y-83235000D01*
X124490000Y-83235000D01*
X124490000Y-89235000D01*
G37*
%TO.C,J4*%
X116345000Y-129555000D02*
X117615000Y-129555000D01*
X116345000Y-130825000D02*
X116345000Y-129555000D01*
X118692358Y-132935000D02*
X119005000Y-132935000D01*
X118692358Y-133795000D02*
X119005000Y-133795000D01*
X118775000Y-130395000D02*
X119005000Y-130395000D01*
X118775000Y-131255000D02*
X119005000Y-131255000D01*
X119005000Y-129445000D02*
X119005000Y-134745000D01*
X119005000Y-132095000D02*
X121765000Y-132095000D01*
X119005000Y-134745000D02*
X121765000Y-134745000D01*
X121765000Y-129445000D02*
X119005000Y-129445000D01*
X121765000Y-132935000D02*
X127765000Y-132935000D01*
X121765000Y-134745000D02*
X121765000Y-129445000D01*
X127765000Y-132935000D02*
X127765000Y-133795000D01*
X127765000Y-133795000D02*
X121765000Y-133795000D01*
X121765000Y-130395000D02*
X127765000Y-130395000D01*
X127765000Y-131255000D01*
X121765000Y-131255000D01*
X121765000Y-130395000D01*
G36*
X121765000Y-130395000D02*
G01*
X127765000Y-130395000D01*
X127765000Y-131255000D01*
X121765000Y-131255000D01*
X121765000Y-130395000D01*
G37*
%TO.C,J3*%
X117345000Y-107555000D02*
X118615000Y-107555000D01*
X117345000Y-108825000D02*
X117345000Y-107555000D01*
X119692358Y-110935000D02*
X120005000Y-110935000D01*
X119692358Y-111795000D02*
X120005000Y-111795000D01*
X119775000Y-108395000D02*
X120005000Y-108395000D01*
X119775000Y-109255000D02*
X120005000Y-109255000D01*
X120005000Y-107445000D02*
X120005000Y-112745000D01*
X120005000Y-110095000D02*
X122765000Y-110095000D01*
X120005000Y-112745000D02*
X122765000Y-112745000D01*
X122765000Y-107445000D02*
X120005000Y-107445000D01*
X122765000Y-110935000D02*
X128765000Y-110935000D01*
X122765000Y-112745000D02*
X122765000Y-107445000D01*
X128765000Y-110935000D02*
X128765000Y-111795000D01*
X128765000Y-111795000D02*
X122765000Y-111795000D01*
X122765000Y-108395000D02*
X128765000Y-108395000D01*
X128765000Y-109255000D01*
X122765000Y-109255000D01*
X122765000Y-108395000D01*
G36*
X122765000Y-108395000D02*
G01*
X128765000Y-108395000D01*
X128765000Y-109255000D01*
X122765000Y-109255000D01*
X122765000Y-108395000D01*
G37*
%TO.C,U1*%
X182375000Y-119005000D02*
X235525000Y-119005000D01*
X182375000Y-141755000D02*
X182375000Y-119005000D01*
X183490000Y-121430000D02*
X231810000Y-121430000D01*
X183490000Y-124090000D02*
X183490000Y-121430000D01*
X183550000Y-136730000D02*
X234350000Y-136730000D01*
X183550000Y-139270000D02*
X183550000Y-136730000D01*
X187300000Y-125240000D02*
X187300000Y-135520000D01*
X187300000Y-135520000D02*
X189960000Y-135520000D01*
X189960000Y-125240000D02*
X187300000Y-125240000D01*
X189960000Y-135520000D02*
X189960000Y-125240000D01*
X193427191Y-126587718D02*
X193427191Y-134387718D01*
X193427191Y-134387718D02*
X193427193Y-134388337D01*
X193427193Y-126587100D02*
X193427191Y-126587718D01*
X193427196Y-134388666D02*
X193427191Y-134387718D01*
X194336149Y-126594188D02*
X194336149Y-126780774D01*
X194536149Y-126571800D02*
X195818233Y-126571800D01*
X195618233Y-127180774D02*
X194736149Y-127180774D01*
X196018233Y-126780774D02*
X196018233Y-126594188D01*
X196827191Y-126487718D02*
X193527191Y-126487718D01*
X196827191Y-134487718D02*
X193527191Y-134487718D01*
X196827191Y-134487718D02*
X196827810Y-134487717D01*
X196827810Y-126487720D02*
X196827191Y-126487718D01*
X196927189Y-134388337D02*
X196927191Y-134387718D01*
X196927191Y-126587718D02*
X196927189Y-126587100D01*
X196927191Y-126587718D02*
X196927191Y-134387718D01*
X196937191Y-127987718D02*
X196937191Y-127487718D01*
X196937191Y-132987718D02*
X196937191Y-133487718D01*
X197632412Y-127267950D02*
X197632412Y-133567950D01*
X198057412Y-133567950D02*
X198057412Y-127267950D01*
X202157412Y-127267950D02*
X202157412Y-133567950D01*
X202582412Y-133567950D02*
X202582412Y-127267950D01*
X203698834Y-129383127D02*
X203910966Y-129170995D01*
X203698834Y-129383127D02*
X204405940Y-130090233D01*
X203698834Y-131645868D02*
X204405940Y-130938762D01*
X203910966Y-129170995D02*
X204618072Y-129878101D01*
X203910966Y-131858000D02*
X203698834Y-131645868D01*
X203910966Y-131858000D02*
X204618072Y-131150894D01*
X204031676Y-130464498D02*
X204031676Y-130564498D01*
X204052387Y-129029573D02*
X204264519Y-128817441D01*
X204052387Y-129029573D02*
X204759494Y-129736680D01*
X204052387Y-131999422D02*
X204759494Y-131292315D01*
X204264519Y-128817441D02*
X204971626Y-129524548D01*
X204264519Y-132211554D02*
X204052387Y-131999422D01*
X204264519Y-132211554D02*
X204971626Y-131504447D01*
X204405940Y-128676020D02*
X204618072Y-128463888D01*
X204405940Y-128676020D02*
X205113047Y-129383127D01*
X204405940Y-132352975D02*
X205113047Y-131645868D01*
X204618072Y-128463888D02*
X205325179Y-129170995D01*
X204618072Y-132565107D02*
X204405940Y-132352975D01*
X204618072Y-132565107D02*
X205325179Y-131858000D01*
X204759494Y-128322467D02*
X204971626Y-128110334D01*
X204759494Y-128322467D02*
X205466601Y-129029573D01*
X204759494Y-132706529D02*
X205466601Y-131999422D01*
X204971626Y-128110334D02*
X205678733Y-128817441D01*
X204971626Y-132918661D02*
X204759494Y-132706529D01*
X204971626Y-132918661D02*
X205678733Y-132211554D01*
X205113047Y-127968913D02*
X205325179Y-127756781D01*
X205113047Y-127968913D02*
X205820154Y-128676020D01*
X205113047Y-133060082D02*
X205820154Y-132352975D01*
X205325179Y-127756781D02*
X206032286Y-128463888D01*
X205325179Y-133272214D02*
X205113047Y-133060082D01*
X205325179Y-133272214D02*
X206032286Y-132565107D01*
X205466601Y-127615360D02*
X205678733Y-127403228D01*
X205466601Y-127615360D02*
X206173707Y-128322467D01*
X205466601Y-133413635D02*
X206173707Y-132706529D01*
X205678733Y-127403228D02*
X206385839Y-128110334D01*
X205678733Y-133625767D02*
X205466601Y-133413635D01*
X205678733Y-133625767D02*
X206385839Y-132918661D01*
X205820154Y-127261806D02*
X206032286Y-127049674D01*
X205820154Y-127261806D02*
X206527261Y-127968913D01*
X205820154Y-133767189D02*
X206527261Y-133060082D01*
X206032286Y-127049674D02*
X206739393Y-127756781D01*
X206032286Y-133979321D02*
X205820154Y-133767189D01*
X206032286Y-133979321D02*
X206739393Y-133272214D01*
X206173707Y-126908253D02*
X206385839Y-126696121D01*
X206173707Y-126908253D02*
X206880814Y-127615360D01*
X206173707Y-134120742D02*
X206880814Y-133413635D01*
X206385839Y-126696121D02*
X207092946Y-127403228D01*
X206385839Y-134332874D02*
X206173707Y-134120742D01*
X206385839Y-134332874D02*
X207092946Y-133625767D01*
X206527261Y-126554700D02*
X206739393Y-126342568D01*
X206527261Y-126554700D02*
X207234368Y-127261806D01*
X206527261Y-134474296D02*
X207234368Y-133767189D01*
X206739393Y-126342568D02*
X207446500Y-127049674D01*
X206739393Y-134686428D02*
X206527261Y-134474296D01*
X206739393Y-134686428D02*
X207446500Y-133979321D01*
X206849305Y-128825270D02*
X207379635Y-128294940D01*
X206880814Y-126201146D02*
X207092946Y-125989014D01*
X206880814Y-126201146D02*
X207587921Y-126908253D01*
X206880814Y-134827849D02*
X207587921Y-134120742D01*
X206944492Y-128920458D02*
X206849305Y-128825270D01*
X207092946Y-125989014D02*
X207800053Y-126696121D01*
X207092946Y-135039981D02*
X206880814Y-134827849D01*
X207092946Y-135039981D02*
X207800053Y-134332874D01*
X207182461Y-128682489D02*
X206944492Y-128920458D01*
X207234368Y-125847593D02*
X207446500Y-125635461D01*
X207234368Y-125847593D02*
X207941474Y-126554700D01*
X207234368Y-135181402D02*
X207941474Y-134474296D01*
X207277648Y-128587301D02*
X207440827Y-128750480D01*
X207311644Y-129287609D02*
X207753585Y-128845667D01*
X207345639Y-128845667D02*
X207182461Y-128682489D01*
X207379635Y-128294940D02*
X207638001Y-128553306D01*
X207379635Y-128485315D02*
X207277648Y-128587301D01*
X207406831Y-129382797D02*
X207311644Y-129287609D01*
X207440827Y-128750480D02*
X207345639Y-128845667D01*
X207446500Y-125635461D02*
X208153606Y-126342568D01*
X207446500Y-135393534D02*
X207234368Y-135181402D01*
X207446500Y-135393534D02*
X208153606Y-134686428D01*
X207542813Y-128648493D02*
X207379635Y-128485315D01*
X207587921Y-125494039D02*
X207800053Y-125281907D01*
X207587921Y-125494039D02*
X208295028Y-126201146D01*
X207587921Y-135534956D02*
X208295028Y-134827849D01*
X207638001Y-128553306D02*
X207542813Y-128648493D01*
X207644800Y-128736882D02*
X207790024Y-128705330D01*
X207672734Y-129570594D02*
X207686239Y-129506271D01*
X207672734Y-129570594D02*
X207686239Y-129506271D01*
X207677759Y-129636026D02*
X207672734Y-129570594D01*
X207677759Y-129636026D02*
X207672734Y-129570594D01*
X207686239Y-129506271D02*
X207749398Y-129391315D01*
X207686239Y-129506271D02*
X207749398Y-129391315D01*
X207703443Y-129696418D02*
X207677759Y-129636026D01*
X207703443Y-129696418D02*
X207677759Y-129636026D01*
X207744555Y-129747717D02*
X207703443Y-129696418D01*
X207744555Y-129747717D02*
X207703443Y-129696418D01*
X207749398Y-129391315D02*
X207836768Y-129292815D01*
X207749398Y-129391315D02*
X207836768Y-129292815D01*
X207753585Y-128845667D02*
X207644800Y-128736882D01*
X207790024Y-128705330D02*
X207937161Y-128852466D01*
X207796304Y-129789035D02*
X207744555Y-129747717D01*
X207796304Y-129789035D02*
X207744555Y-129747717D01*
X207800053Y-125281907D02*
X208507160Y-125989014D01*
X207800053Y-135747088D02*
X207587921Y-135534956D01*
X207800053Y-135747088D02*
X208507160Y-135039981D01*
X207811791Y-129582121D02*
X207818141Y-129620038D01*
X207811791Y-129582121D02*
X207818141Y-129620038D01*
X207818141Y-129620038D02*
X207839318Y-129652105D01*
X207818141Y-129620038D02*
X207839318Y-129652105D01*
X207833632Y-129508762D02*
X207811791Y-129582121D01*
X207833632Y-129508762D02*
X207811791Y-129582121D01*
X207836768Y-129292815D02*
X207968893Y-129180801D01*
X207836768Y-129292815D02*
X207968893Y-129180801D01*
X207857436Y-129814126D02*
X207796304Y-129789035D01*
X207857436Y-129814126D02*
X207796304Y-129789035D01*
X207923461Y-129816884D02*
X207857436Y-129814126D01*
X207923461Y-129816884D02*
X207857436Y-129814126D01*
X207930893Y-129389064D02*
X207833632Y-129508762D01*
X207930893Y-129389064D02*
X207833632Y-129508762D01*
X207933868Y-129673777D02*
X208037323Y-129615817D01*
X207933868Y-129673777D02*
X208037323Y-129615817D01*
X207937161Y-128852466D02*
X207406831Y-129382797D01*
X207968893Y-129180801D02*
X208092160Y-129124537D01*
X207968893Y-129180801D02*
X208092160Y-129124537D01*
X207987810Y-129801233D02*
X207923461Y-129816884D01*
X207987810Y-129801233D02*
X207923461Y-129816884D01*
X208037323Y-129615817D02*
X208106926Y-129552987D01*
X208037323Y-129615817D02*
X208106926Y-129552987D01*
X208056011Y-129283847D02*
X207930893Y-129389064D01*
X208056011Y-129283847D02*
X207930893Y-129389064D01*
X208092160Y-129124537D02*
X208216990Y-129132776D01*
X208092160Y-129124537D02*
X208216990Y-129132776D01*
X208102916Y-129736220D02*
X207987810Y-129801233D01*
X208102916Y-129736220D02*
X207987810Y-129801233D01*
X208106926Y-129552987D02*
X208207437Y-129431389D01*
X208106926Y-129552987D02*
X208207437Y-129431389D01*
X208132275Y-129256047D02*
X208056011Y-129283847D01*
X208132275Y-129256047D02*
X208056011Y-129283847D01*
X208154733Y-129804341D02*
X208249920Y-129899528D01*
X208172448Y-129262581D02*
X208132275Y-129256047D01*
X208172448Y-129262581D02*
X208132275Y-129256047D01*
X208202114Y-129648174D02*
X208102916Y-129736220D01*
X208202114Y-129648174D02*
X208102916Y-129736220D01*
X208206469Y-129284953D02*
X208172448Y-129262581D01*
X208206469Y-129284953D02*
X208172448Y-129262581D01*
X208207437Y-129431389D02*
X208232191Y-129357089D01*
X208207437Y-129431389D02*
X208232191Y-129357089D01*
X208216990Y-129132776D02*
X208299320Y-129187429D01*
X208216990Y-129132776D02*
X208299320Y-129187429D01*
X208227521Y-129318056D02*
X208206469Y-129284953D01*
X208227521Y-129318056D02*
X208206469Y-129284953D01*
X208232191Y-129357089D02*
X208227521Y-129318056D01*
X208232191Y-129357089D02*
X208227521Y-129318056D01*
X208290535Y-129548459D02*
X208202114Y-129648174D01*
X208290535Y-129548459D02*
X208202114Y-129648174D01*
X208299320Y-129187429D02*
X208340428Y-129239733D01*
X208299320Y-129187429D02*
X208340428Y-129239733D01*
X208340428Y-129239733D02*
X208365272Y-129301348D01*
X208340428Y-129239733D02*
X208365272Y-129301348D01*
X208355397Y-129432570D02*
X208290535Y-129548459D01*
X208355397Y-129432570D02*
X208290535Y-129548459D01*
X208365272Y-129301348D02*
X208369756Y-129367609D01*
X208365272Y-129301348D02*
X208369756Y-129367609D01*
X208369756Y-129367609D02*
X208355397Y-129432570D01*
X208369756Y-129367609D02*
X208355397Y-129432570D01*
X208372304Y-129858734D02*
X208460692Y-129770345D01*
X208415754Y-130073649D02*
X208433704Y-130049139D01*
X208415754Y-130073649D02*
X208433704Y-130049139D01*
X208419898Y-129593569D02*
X208491004Y-129553079D01*
X208419898Y-129593569D02*
X208491004Y-129553079D01*
X208433704Y-130049139D02*
X208443084Y-130020258D01*
X208433704Y-130049139D02*
X208443084Y-130020258D01*
X208438230Y-129959959D02*
X208372304Y-129858734D01*
X208438230Y-129959959D02*
X208372304Y-129858734D01*
X208443084Y-130020258D02*
X208438230Y-129959959D01*
X208443084Y-130020258D02*
X208438230Y-129959959D01*
X208460692Y-129770345D02*
X208539549Y-129822029D01*
X208460692Y-129770345D02*
X208539549Y-129822029D01*
X208491004Y-129553079D02*
X208554074Y-129540769D01*
X208491004Y-129553079D02*
X208554074Y-129540769D01*
X208515085Y-129688756D02*
X208419898Y-129593569D01*
X208532826Y-127060159D02*
X208666790Y-127093623D01*
X208539549Y-129822029D02*
X208586330Y-129826944D01*
X208539549Y-129822029D02*
X208586330Y-129826944D01*
X208554074Y-129540769D02*
X208654741Y-129561266D01*
X208554074Y-129540769D02*
X208654741Y-129561266D01*
X208586330Y-129826944D02*
X208608994Y-129820206D01*
X208586330Y-129826944D02*
X208608994Y-129820206D01*
X208608994Y-129820206D02*
X208628333Y-129806678D01*
X208608994Y-129820206D02*
X208628333Y-129806678D01*
X208654741Y-129561266D02*
X208720545Y-129608654D01*
X208654741Y-129561266D02*
X208720545Y-129608654D01*
X208656257Y-127184185D02*
X208665403Y-127218932D01*
X208656257Y-127184185D02*
X208665403Y-127218932D01*
X208665403Y-127218932D02*
X208685700Y-127248515D01*
X208665403Y-127218932D02*
X208685700Y-127248515D01*
X208666790Y-127093623D02*
X208656257Y-127184185D01*
X208666790Y-127093623D02*
X208656257Y-127184185D01*
X208810763Y-130775512D02*
X208681663Y-130684825D01*
X208810763Y-130775512D02*
X208681663Y-130684825D01*
X208881424Y-125614750D02*
X204031676Y-130464498D01*
X208881424Y-125614750D02*
X208981424Y-125614750D01*
X208881424Y-135414245D02*
X204031676Y-130564498D01*
X208895835Y-127621829D02*
X209330977Y-127186686D01*
X208945041Y-127278398D02*
X208897216Y-127348483D01*
X208945041Y-127278398D02*
X208897216Y-127348483D01*
X208953282Y-126980755D02*
X208956920Y-127042524D01*
X208953282Y-126980755D02*
X208956920Y-127042524D01*
X208953308Y-126902080D02*
X208953282Y-126980755D01*
X208953308Y-126902080D02*
X208953282Y-126980755D01*
X208956920Y-127042524D02*
X208961916Y-127114997D01*
X208956920Y-127042524D02*
X208961916Y-127114997D01*
X208957879Y-126885741D02*
X208953308Y-126902080D01*
X208957879Y-126885741D02*
X208953308Y-126902080D01*
X208961916Y-127114997D02*
X208964038Y-127172026D01*
X208961916Y-127114997D02*
X208964038Y-127172026D01*
X208964038Y-127172026D02*
X208945041Y-127278398D01*
X208964038Y-127172026D02*
X208945041Y-127278398D01*
X208969881Y-126867872D02*
X208957879Y-126885741D01*
X208969881Y-126867872D02*
X208957879Y-126885741D01*
X208981424Y-135414245D02*
X208881424Y-135414245D01*
X208981424Y-135414245D02*
X213831171Y-130564498D01*
X208991022Y-127717016D02*
X208895835Y-127621829D01*
X209008551Y-130809227D02*
X208810763Y-130775512D01*
X209008551Y-130809227D02*
X208810763Y-130775512D01*
X209011951Y-130670483D02*
X209008551Y-130809227D01*
X209113406Y-127839400D02*
X209733293Y-127398627D01*
X209125942Y-130804872D02*
X209234969Y-130742608D01*
X209125942Y-130804872D02*
X209234969Y-130742608D01*
X209203766Y-130315003D02*
X209141771Y-130220255D01*
X209203766Y-130315003D02*
X209141771Y-130220255D01*
X209205725Y-127012778D02*
X209069424Y-127006722D01*
X209209868Y-127935862D02*
X209113406Y-127839400D01*
X209224848Y-130457586D02*
X209203766Y-130315003D01*
X209224848Y-130457586D02*
X209203766Y-130315003D01*
X209234969Y-130742608D02*
X209334271Y-130739112D01*
X209234969Y-130742608D02*
X209334271Y-130739112D01*
X209235790Y-127091499D02*
X209330977Y-126996311D01*
X209240677Y-130128786D02*
X209344432Y-130302176D01*
X209240677Y-130128786D02*
X209344432Y-130302176D01*
X209330977Y-126996311D02*
X209616540Y-127281874D01*
X209330977Y-127186686D02*
X209235790Y-127091499D01*
X209334271Y-130739112D02*
X209356628Y-130646495D01*
X209334271Y-130739112D02*
X209356628Y-130646495D01*
X209344432Y-130302176D02*
X209361361Y-130460667D01*
X209344432Y-130302176D02*
X209361361Y-130460667D01*
X209356628Y-130646495D02*
X209399925Y-130585282D01*
X209356628Y-130646495D02*
X209399925Y-130585282D01*
X209361361Y-130460667D02*
X209224848Y-130457586D01*
X209376021Y-128102015D02*
X209601348Y-127657418D01*
X209426165Y-127281874D02*
X208991022Y-127717016D01*
X209468872Y-128194866D02*
X209376021Y-128102015D01*
X209473759Y-131449724D02*
X209908901Y-131014581D01*
X209521352Y-127377061D02*
X209426165Y-127281874D01*
X209568946Y-131544912D02*
X209473759Y-131449724D01*
X209583182Y-127988343D02*
X210074948Y-127740282D01*
X209601348Y-127657418D02*
X209209868Y-127935862D01*
X209616540Y-127281874D02*
X209521352Y-127377061D01*
X209624218Y-130942435D02*
X209550673Y-130955514D01*
X209624218Y-130942435D02*
X209550673Y-130955514D01*
X209635769Y-128361762D02*
X209914107Y-127970177D01*
X209704397Y-130892729D02*
X209624218Y-130942435D01*
X209704397Y-130892729D02*
X209624218Y-130942435D01*
X209732125Y-128458118D02*
X209635769Y-128361762D01*
X209733293Y-127398627D02*
X209832093Y-127497426D01*
X209813714Y-130919394D02*
X209908901Y-130824207D01*
X209832093Y-127497426D02*
X209583182Y-127988343D01*
X209863963Y-131535457D02*
X209952517Y-131477659D01*
X209863963Y-131535457D02*
X209952517Y-131477659D01*
X209908901Y-130824207D02*
X210194464Y-131109769D01*
X209908901Y-131014581D02*
X209813714Y-130919394D01*
X209914107Y-127970177D02*
X209468872Y-128194866D01*
X209942897Y-128342534D02*
X210038084Y-128437721D01*
X209952517Y-131477659D02*
X210030860Y-131448449D01*
X209952517Y-131477659D02*
X210030860Y-131448449D01*
X210004089Y-131109769D02*
X209568946Y-131544912D01*
X210030860Y-131448449D02*
X210430308Y-131318416D01*
X210062795Y-125281907D02*
X209355688Y-125989014D01*
X210062795Y-135747088D02*
X209355688Y-135039981D01*
X210062795Y-135747088D02*
X210274927Y-135534956D01*
X210074948Y-127740282D02*
X210172791Y-127838125D01*
X210099276Y-131204956D02*
X210004089Y-131109769D01*
X210160468Y-128396927D02*
X210248856Y-128308538D01*
X210172791Y-127838125D02*
X209732125Y-128458118D01*
X210187664Y-128913658D02*
X210235896Y-128865427D01*
X210194464Y-131109769D02*
X210099276Y-131204956D01*
X210203919Y-128611842D02*
X210221869Y-128587332D01*
X210203919Y-128611842D02*
X210221869Y-128587332D01*
X210208062Y-128131761D02*
X210279168Y-128091271D01*
X210208062Y-128131761D02*
X210279168Y-128091271D01*
X210221869Y-128587332D02*
X210231249Y-128558451D01*
X210221869Y-128587332D02*
X210231249Y-128558451D01*
X210226394Y-128498152D02*
X210160468Y-128396927D01*
X210226394Y-128498152D02*
X210160468Y-128396927D01*
X210231249Y-128558451D02*
X210226394Y-128498152D01*
X210231249Y-128558451D02*
X210226394Y-128498152D01*
X210235896Y-128865427D02*
X210560022Y-128855335D01*
X210248856Y-128308538D02*
X210327713Y-128360222D01*
X210248856Y-128308538D02*
X210327713Y-128360222D01*
X210274927Y-125494039D02*
X209567820Y-126201146D01*
X210274927Y-125494039D02*
X210062795Y-125281907D01*
X210274927Y-135534956D02*
X209567820Y-134827849D01*
X210279168Y-128091271D02*
X210342238Y-128078962D01*
X210279168Y-128091271D02*
X210342238Y-128078962D01*
X210303249Y-128226949D02*
X210208062Y-128131761D01*
X210327713Y-128360222D02*
X210374494Y-128365137D01*
X210327713Y-128360222D02*
X210374494Y-128365137D01*
X210342238Y-128078962D02*
X210442905Y-128099459D01*
X210342238Y-128078962D02*
X210442905Y-128099459D01*
X210374494Y-128365137D02*
X210397158Y-128358399D01*
X210374494Y-128365137D02*
X210397158Y-128358399D01*
X210397158Y-128358399D02*
X210416497Y-128344871D01*
X210397158Y-128358399D02*
X210416497Y-128344871D01*
X210416348Y-125635461D02*
X209709241Y-126342568D01*
X210416348Y-135393534D02*
X209709241Y-134686428D01*
X210416348Y-135393534D02*
X210628480Y-135181402D01*
X210430308Y-131318416D02*
X210471846Y-131445368D01*
X210442905Y-128099459D02*
X210508710Y-128146847D01*
X210442905Y-128099459D02*
X210508710Y-128146847D01*
X210451130Y-129000347D02*
X210629606Y-129178823D01*
X210471846Y-131445368D02*
X210197757Y-131534607D01*
X210541218Y-129267212D02*
X210187664Y-128913658D01*
X210560022Y-128855335D02*
X210711522Y-128840050D01*
X210560022Y-128855335D02*
X210711522Y-128840050D01*
X210569902Y-128992273D02*
X210451130Y-129000347D01*
X210628480Y-125847593D02*
X209921373Y-126554700D01*
X210628480Y-125847593D02*
X210416348Y-125635461D01*
X210628480Y-135181402D02*
X209921373Y-134474296D01*
X210629606Y-129178823D02*
X210541218Y-129267212D01*
X210650004Y-128668891D02*
X210554816Y-128573703D01*
X210711522Y-128840050D02*
X210817431Y-128787025D01*
X210711522Y-128840050D02*
X210817431Y-128787025D01*
X210720242Y-128625551D02*
X210650004Y-128668891D01*
X210720242Y-128625551D02*
X210650004Y-128668891D01*
X210769901Y-125989014D02*
X210062795Y-126696121D01*
X210769901Y-135039981D02*
X210062795Y-134332874D01*
X210769901Y-135039981D02*
X210982033Y-134827849D01*
X210772673Y-128622298D02*
X210720242Y-128625551D01*
X210772673Y-128622298D02*
X210720242Y-128625551D01*
X210818600Y-128647112D02*
X210772673Y-128622298D01*
X210818600Y-128647112D02*
X210772673Y-128622298D01*
X210982033Y-126201146D02*
X210274927Y-126908253D01*
X210982033Y-126201146D02*
X210769901Y-125989014D01*
X210982033Y-134827849D02*
X210274927Y-134120742D01*
X211123455Y-126342568D02*
X210416348Y-127049674D01*
X211123455Y-134686428D02*
X210416348Y-133979321D01*
X211123455Y-134686428D02*
X211335587Y-134474296D01*
X211335587Y-126554700D02*
X210628480Y-127261806D01*
X211335587Y-126554700D02*
X211123455Y-126342568D01*
X211335587Y-134474296D02*
X210628480Y-133767189D01*
X211477008Y-126696121D02*
X210769901Y-127403228D01*
X211477008Y-134332874D02*
X210769901Y-133625767D01*
X211477008Y-134332874D02*
X211689140Y-134120742D01*
X211689140Y-126908253D02*
X210982033Y-127615360D01*
X211689140Y-126908253D02*
X211477008Y-126696121D01*
X211689140Y-134120742D02*
X210982033Y-133413635D01*
X211830562Y-127049674D02*
X211123455Y-127756781D01*
X211830562Y-133979321D02*
X211123455Y-133272214D01*
X211830562Y-133979321D02*
X212042694Y-133767189D01*
X212042694Y-127261806D02*
X211335587Y-127968913D01*
X212042694Y-127261806D02*
X211830562Y-127049674D01*
X212042694Y-133767189D02*
X211335587Y-133060082D01*
X212184115Y-127403228D02*
X211477008Y-128110334D01*
X212184115Y-133625767D02*
X211477008Y-132918661D01*
X212184115Y-133625767D02*
X212396247Y-133413635D01*
X212396247Y-127615360D02*
X211689140Y-128322467D01*
X212396247Y-127615360D02*
X212184115Y-127403228D01*
X212396247Y-133413635D02*
X211689140Y-132706529D01*
X212537668Y-127756781D02*
X211830562Y-128463888D01*
X212537668Y-133272214D02*
X211830562Y-132565107D01*
X212537668Y-133272214D02*
X212749800Y-133060082D01*
X212749800Y-127968913D02*
X212042694Y-128676020D01*
X212749800Y-127968913D02*
X212537668Y-127756781D01*
X212749800Y-133060082D02*
X212042694Y-132352975D01*
X212891222Y-128110334D02*
X212184115Y-128817441D01*
X212891222Y-132918661D02*
X212184115Y-132211554D01*
X212891222Y-132918661D02*
X213103354Y-132706529D01*
X213103354Y-128322467D02*
X212396247Y-129029573D01*
X213103354Y-128322467D02*
X212891222Y-128110334D01*
X213103354Y-132706529D02*
X212396247Y-131999422D01*
X213244775Y-128463888D02*
X212537668Y-129170995D01*
X213244775Y-132565107D02*
X212537668Y-131858000D01*
X213244775Y-132565107D02*
X213456907Y-132352975D01*
X213456907Y-128676020D02*
X212749800Y-129383127D01*
X213456907Y-128676020D02*
X213244775Y-128463888D01*
X213456907Y-132352975D02*
X212749800Y-131645868D01*
X213598329Y-128817441D02*
X212891222Y-129524548D01*
X213598329Y-132211554D02*
X212891222Y-131504447D01*
X213598329Y-132211554D02*
X213810461Y-131999422D01*
X213810461Y-129029573D02*
X213103354Y-129736680D01*
X213810461Y-129029573D02*
X213598329Y-128817441D01*
X213810461Y-131999422D02*
X213103354Y-131292315D01*
X213831171Y-130464498D02*
X208981424Y-125614750D01*
X213831171Y-130564498D02*
X213831171Y-130464498D01*
X213951882Y-129170995D02*
X213244775Y-129878101D01*
X213951882Y-131858000D02*
X213244775Y-131150894D01*
X213951882Y-131858000D02*
X214164014Y-131645868D01*
X214164014Y-129383127D02*
X213456907Y-130090233D01*
X214164014Y-129383127D02*
X213951882Y-129170995D01*
X214164014Y-131645868D02*
X213456907Y-130938762D01*
X219350000Y-130310000D02*
X219350000Y-134790000D01*
X219350000Y-134790000D02*
X219650000Y-135090000D01*
X219650000Y-130010000D02*
X219350000Y-130310000D01*
X219650000Y-135090000D02*
X221590000Y-135090000D01*
X220301802Y-130961801D02*
X220938199Y-130961801D01*
X220301802Y-131598198D02*
X220301802Y-130961801D01*
X220301802Y-133501801D02*
X220938199Y-133501801D01*
X220301802Y-134138198D02*
X220301802Y-133501801D01*
X220938199Y-130961801D02*
X220938199Y-131598198D01*
X220938199Y-131598198D02*
X220301802Y-131598198D01*
X220938199Y-133501801D02*
X220938199Y-134138198D01*
X220938199Y-134138198D02*
X220301802Y-134138198D01*
X221277723Y-125217533D02*
X221277723Y-128517533D01*
X221377723Y-128617533D02*
X227177723Y-128617533D01*
X221427723Y-127767533D02*
X221427723Y-125967533D01*
X221527723Y-125867533D02*
X222177723Y-125867533D01*
X221590000Y-130010000D02*
X219650000Y-130010000D01*
X221590000Y-135090000D02*
X221990000Y-135090000D01*
X221890000Y-132450000D02*
X221890000Y-130110000D01*
X221890000Y-132450000D02*
X226958600Y-132450000D01*
X221890000Y-134990000D02*
X221890000Y-132650000D01*
X221990000Y-130010000D02*
X221590000Y-130010000D01*
X221990000Y-130010000D02*
X226870000Y-130010000D01*
X222177723Y-127867533D02*
X221527723Y-127867533D01*
X222277723Y-125967533D02*
X222277723Y-127767533D01*
X222560000Y-130680000D02*
X226300000Y-130680000D01*
X222560000Y-131880000D02*
X222560000Y-130680000D01*
X222560000Y-133220000D02*
X226300000Y-133220000D01*
X222560000Y-134420000D02*
X222560000Y-133220000D01*
X222777723Y-127767533D02*
X222777723Y-125967533D01*
X222841802Y-130961801D02*
X223478199Y-130961801D01*
X222841802Y-131598198D02*
X222841802Y-130961801D01*
X222841802Y-133501801D02*
X223478199Y-133501801D01*
X222841802Y-134138198D02*
X222841802Y-133501801D01*
X222877723Y-125867533D02*
X225677723Y-125867533D01*
X223478199Y-130961801D02*
X223478199Y-131598198D01*
X223478199Y-131598198D02*
X222841802Y-131598198D01*
X223478199Y-133501801D02*
X223478199Y-134138198D01*
X223478199Y-134138198D02*
X222841802Y-134138198D01*
X225381802Y-130961801D02*
X226018199Y-130961801D01*
X225381802Y-131598198D02*
X225381802Y-130961801D01*
X225381802Y-133501801D02*
X226018199Y-133501801D01*
X225381802Y-134138198D02*
X225381802Y-133501801D01*
X225677723Y-127867533D02*
X222877723Y-127867533D01*
X225765497Y-130009000D02*
X225720625Y-130009000D01*
X225777723Y-125967533D02*
X225777723Y-127767533D01*
X225848830Y-130009000D02*
X225814876Y-130009000D01*
X226018199Y-130961801D02*
X226018199Y-131598198D01*
X226018199Y-131598198D02*
X225381802Y-131598198D01*
X226018199Y-133501801D02*
X226018199Y-134138198D01*
X226018199Y-134138198D02*
X225381802Y-134138198D01*
X226277723Y-127767533D02*
X226277723Y-125967533D01*
X226300000Y-130680000D02*
X226300000Y-131880000D01*
X226300000Y-131880000D02*
X222560000Y-131880000D01*
X226300000Y-133220000D02*
X226300000Y-134420000D01*
X226300000Y-134420000D02*
X222560000Y-134420000D01*
X226377723Y-125867533D02*
X227027723Y-125867533D01*
X226377723Y-127867533D02*
X226277723Y-127767533D01*
X226577997Y-130009000D02*
X226388894Y-130009000D01*
X226870000Y-135090000D02*
X221990000Y-135090000D01*
X226958600Y-132650000D02*
X221890000Y-132650000D01*
X226970000Y-130110000D02*
X226970000Y-134990000D01*
X226971000Y-132091472D02*
X226971000Y-131902369D01*
X227027723Y-127867533D02*
X226377723Y-127867533D01*
X227127723Y-125967533D02*
X227127723Y-127767533D01*
X227177723Y-125117533D02*
X221377723Y-125117533D01*
X227277622Y-128522017D02*
X227277723Y-128517533D01*
X227277723Y-128517533D02*
X227277723Y-125217533D01*
X229790000Y-133830011D02*
X229790000Y-126929988D01*
X229800000Y-134076410D02*
X229800000Y-126683589D01*
X231810000Y-121430000D02*
X231810000Y-124090000D01*
X231810000Y-124090000D02*
X183490000Y-124090000D01*
X233080000Y-121430000D02*
X234410000Y-121430000D01*
X234350000Y-136730000D02*
X234350000Y-139270000D01*
X234350000Y-139270000D02*
X183550000Y-139270000D01*
X234410000Y-121430000D02*
X234410000Y-122760000D01*
X234800000Y-126690103D02*
X234800000Y-127180000D01*
X234800000Y-126929988D02*
X234804215Y-126929988D01*
X234800000Y-127180000D02*
X234800064Y-127183589D01*
X234800000Y-133580000D02*
X234800064Y-133576410D01*
X234800000Y-133830011D02*
X234804215Y-133830011D01*
X234800000Y-134069896D02*
X234800000Y-133580000D01*
X234800064Y-127183589D02*
X229790000Y-127183589D01*
X234800064Y-133576410D02*
X229790000Y-133576410D01*
X234800331Y-126688513D02*
X234800000Y-126690103D01*
X234800331Y-134071486D02*
X234800000Y-134069896D01*
X234805575Y-126683589D02*
X229800000Y-126683589D01*
X234805575Y-126683589D02*
X234808500Y-126683572D01*
X234805575Y-134076410D02*
X229800000Y-134076410D01*
X234805575Y-134076410D02*
X234808500Y-134076427D01*
X234808500Y-126683572D02*
X234800331Y-126688513D01*
X234808500Y-134076427D02*
X234800331Y-134071486D01*
X234821175Y-133518464D02*
X234821175Y-127241535D01*
X234900000Y-126920728D02*
X234900000Y-126665072D01*
X234900000Y-133839271D02*
X234900000Y-134094927D01*
X234964569Y-127280000D02*
X234964569Y-133480000D01*
X235099531Y-126507784D02*
X235262422Y-126692659D01*
X235099531Y-134252215D02*
X235262422Y-134067340D01*
X235134759Y-126805142D02*
X235450000Y-126527387D01*
X235134759Y-133954857D02*
X235450000Y-134232612D01*
X235245211Y-127280000D02*
X234900000Y-127280000D01*
X235245211Y-133480000D02*
X234900000Y-133480000D01*
X235287108Y-126342512D02*
X234970847Y-126621166D01*
X235287108Y-134417487D02*
X234970847Y-134138833D01*
X235306605Y-127530000D02*
X235450000Y-127530000D01*
X235306605Y-133230000D02*
X235306605Y-127530000D01*
X235306605Y-133230000D02*
X235450000Y-133230000D01*
X235450000Y-126527387D02*
X235287108Y-126342512D01*
X235450000Y-133230000D02*
X235450000Y-127530000D01*
X235450000Y-134232612D02*
X235287108Y-134417487D01*
X235525000Y-119005000D02*
X235525000Y-141755000D01*
X235525000Y-141755000D02*
X182375000Y-141755000D01*
X193427193Y-126587099D02*
G75*
G02*
X193526572Y-126487693I100007J-601D01*
G01*
X193526572Y-134487716D02*
G75*
G02*
X193427184Y-134388337I628J100016D01*
G01*
X194336149Y-126594188D02*
G75*
G02*
X194536147Y-126571819I148551J-422912D01*
G01*
X194736149Y-127180774D02*
G75*
G02*
X194336146Y-126780774I1J400004D01*
G01*
X195818233Y-126571800D02*
G75*
G02*
X196018231Y-126594193I49367J-463400D01*
G01*
X196018233Y-126780774D02*
G75*
G02*
X195618233Y-127180833I-400033J-26D01*
G01*
X196827811Y-126487720D02*
G75*
G02*
X196927180Y-126587100I-611J-99980D01*
G01*
X196927190Y-134388337D02*
G75*
G02*
X196827810Y-134487690I-99990J637D01*
G01*
X197632412Y-127267950D02*
G75*
G02*
X202582412Y-127267950I2475000J0D01*
G01*
X198057412Y-127267950D02*
G75*
G02*
X202157412Y-127267950I2050000J0D01*
G01*
X202157412Y-133567950D02*
G75*
G02*
X198057408Y-133567950I-2050002J0D01*
G01*
X202582412Y-133567950D02*
G75*
G02*
X197632408Y-133567950I-2475002J0D01*
G01*
X207933868Y-129673776D02*
G75*
G02*
X207839286Y-129652138I-29868J86976D01*
G01*
X208154414Y-130157575D02*
G75*
G02*
X208154722Y-129804329I169686J176475D01*
G01*
X208254807Y-130067593D02*
G75*
G02*
X208249959Y-129899564I83493J86493D01*
G01*
X208415755Y-130073649D02*
G75*
G02*
X208254838Y-130067566I-77555J79849D01*
G01*
X208509985Y-130169792D02*
G75*
G02*
X208154419Y-130157572I-171915J176852D01*
G01*
X208515085Y-129688756D02*
G75*
G02*
X208624709Y-129703216I45115J-80744D01*
G01*
X208547487Y-129935968D02*
G75*
G02*
X208509968Y-130169774I-169387J-92732D01*
G01*
X208587007Y-127340198D02*
G75*
G02*
X208532846Y-127060168I174993J179098D01*
G01*
X208624720Y-129703204D02*
G75*
G02*
X208628311Y-129806656I-46320J-53396D01*
G01*
X208681663Y-130684825D02*
G75*
G02*
X208685908Y-130129843I259137J275525D01*
G01*
X208685913Y-130129849D02*
G75*
G02*
X209240668Y-130128794I277887J-267351D01*
G01*
X208720545Y-129608655D02*
G75*
G02*
X208729621Y-129895854I-136145J-148045D01*
G01*
X208729575Y-129895810D02*
G75*
G02*
X208547468Y-129936018I-122475J122210D01*
G01*
X208776426Y-130589213D02*
G75*
G02*
X208781314Y-130224825I172474J179913D01*
G01*
X208781312Y-130224823D02*
G75*
G02*
X209141770Y-130220256I182438J-172077D01*
G01*
X208796503Y-127258820D02*
G75*
G02*
X208685693Y-127248521I-50203J61120D01*
G01*
X208817645Y-127097023D02*
G75*
G02*
X208796477Y-127258804I-204045J-55577D01*
G01*
X208817645Y-127097023D02*
G75*
G02*
X208870129Y-126777255I338555J108623D01*
G01*
X208870126Y-126777252D02*
G75*
G02*
X209143795Y-126781922I134544J-136548D01*
G01*
X208897215Y-127348483D02*
G75*
G02*
X208587003Y-127340201I-151255J148383D01*
G01*
X208969881Y-126867872D02*
G75*
G02*
X209047542Y-126876051I34719J-43128D01*
G01*
X209011951Y-130670483D02*
G75*
G02*
X208776400Y-130589239I-32251J288583D01*
G01*
X209047539Y-126876052D02*
G75*
G02*
X209069398Y-127006713I-105139J-84748D01*
G01*
X209143789Y-126781927D02*
G75*
G02*
X209205751Y-127012784I-191989J-175273D01*
G01*
X209145278Y-131148438D02*
G75*
G02*
X209125961Y-130804891I137322J180038D01*
G01*
X209229735Y-130891454D02*
G75*
G02*
X209390300Y-130903848I74165J-85446D01*
G01*
X209239509Y-131052295D02*
G75*
G02*
X209229738Y-130891457I72091J85095D01*
G01*
X209390256Y-130903884D02*
G75*
G02*
X209397623Y-131063590I-73556J-83416D01*
G01*
X209397587Y-131063557D02*
G75*
G02*
X209239474Y-131052321I-73987J76957D01*
G01*
X209399924Y-130585282D02*
G75*
G02*
X209702248Y-130590403I148776J-143418D01*
G01*
X209484169Y-130807421D02*
G75*
G02*
X209488288Y-130687240I59531J58121D01*
G01*
X209486294Y-131165224D02*
G75*
G02*
X209145283Y-131148434I-162944J161974D01*
G01*
X209488312Y-130687268D02*
G75*
G02*
X209604723Y-130683257I60088J-52632D01*
G01*
X209550673Y-130955515D02*
G75*
G02*
X209486289Y-131165218I-223273J-46185D01*
G01*
X209604641Y-130802109D02*
G75*
G02*
X209484145Y-130807447I-62741J53609D01*
G01*
X209604747Y-130683231D02*
G75*
G02*
X209604619Y-130802085I-54147J-59369D01*
G01*
X209702273Y-130590381D02*
G75*
G02*
X209704436Y-130892770I-142173J-152219D01*
G01*
X209862157Y-131865320D02*
G75*
G02*
X209863973Y-131535467I165543J164020D01*
G01*
X209942579Y-128695769D02*
G75*
G02*
X209942893Y-128342530I169621J176469D01*
G01*
X209955539Y-131768326D02*
G75*
G02*
X209963853Y-131626002I74961J67026D01*
G01*
X209963826Y-131625971D02*
G75*
G02*
X210104821Y-131618405I74174J-64729D01*
G01*
X210042971Y-128605786D02*
G75*
G02*
X210038129Y-128437762I83429J86486D01*
G01*
X210099808Y-131761952D02*
G75*
G02*
X209955577Y-131768286I-75208J67252D01*
G01*
X210104800Y-131618427D02*
G75*
G02*
X210099784Y-131761926I-70500J-69373D01*
G01*
X210189577Y-131862558D02*
G75*
G02*
X209862143Y-131865333I-165077J159058D01*
G01*
X210197757Y-131534607D02*
G75*
G02*
X210189575Y-131862555I-163657J-159993D01*
G01*
X210203918Y-128611842D02*
G75*
G02*
X210042933Y-128605819I-77618J79842D01*
G01*
X210298149Y-128707986D02*
G75*
G02*
X209942577Y-128695769I-171919J176856D01*
G01*
X210303249Y-128226949D02*
G75*
G02*
X210412904Y-128241378I45151J-80751D01*
G01*
X210335651Y-128474161D02*
G75*
G02*
X210298133Y-128707968I-169351J-92739D01*
G01*
X210412884Y-128241397D02*
G75*
G02*
X210416483Y-128344857I-46284J-53403D01*
G01*
X210508710Y-128146846D02*
G75*
G02*
X210517692Y-128433957I-136110J-147954D01*
G01*
X210517739Y-128434003D02*
G75*
G02*
X210335645Y-128474177I-122439J122203D01*
G01*
X210554816Y-128573703D02*
G75*
G02*
X210919214Y-128557334I189884J-162897D01*
G01*
X210818600Y-128647113D02*
G75*
G02*
X210817405Y-128786996I-65500J-69387D01*
G01*
X210919206Y-128557342D02*
G75*
G02*
X210919329Y-128875537I-156006J-159158D01*
G01*
X210919312Y-128875520D02*
G75*
G02*
X210569904Y-128992232I-326712J396720D01*
G01*
X221277723Y-125217533D02*
G75*
G02*
X221377723Y-125117523I99977J33D01*
G01*
X221377723Y-128617533D02*
G75*
G02*
X221277667Y-128517533I-23J100033D01*
G01*
X221427723Y-125967533D02*
G75*
G02*
X221527723Y-125867523I99977J33D01*
G01*
X221527723Y-127867533D02*
G75*
G02*
X221427667Y-127767533I-23J100033D01*
G01*
X221890000Y-130110000D02*
G75*
G02*
X221990000Y-130010000I100000J0D01*
G01*
X221990000Y-135089999D02*
G75*
G02*
X221890001Y-134990000I0J99999D01*
G01*
X222177723Y-125867533D02*
G75*
G02*
X222277667Y-125967533I-23J-99967D01*
G01*
X222277723Y-127767533D02*
G75*
G02*
X222177723Y-127867523I-100023J33D01*
G01*
X222777723Y-125967533D02*
G75*
G02*
X222877723Y-125867523I99977J33D01*
G01*
X222877723Y-127867533D02*
G75*
G02*
X222777667Y-127767533I-23J100033D01*
G01*
X225677723Y-125867533D02*
G75*
G02*
X225777667Y-125967533I-23J-99967D01*
G01*
X225777723Y-127767533D02*
G75*
G02*
X225677723Y-127867523I-100023J33D01*
G01*
X226277723Y-125967533D02*
G75*
G02*
X226377723Y-125867523I99977J33D01*
G01*
X226870000Y-130010000D02*
G75*
G02*
X226970000Y-130110000I0J-100000D01*
G01*
X226970000Y-134990000D02*
G75*
G02*
X226870000Y-135090000I-100000J0D01*
G01*
X227027723Y-125867533D02*
G75*
G02*
X227127667Y-125967533I-23J-99967D01*
G01*
X227127723Y-127767533D02*
G75*
G02*
X227027723Y-127867523I-100023J33D01*
G01*
X227177723Y-125117533D02*
G75*
G02*
X227277667Y-125217533I-23J-99967D01*
G01*
X227277723Y-128517533D02*
G75*
G02*
X227177723Y-128617523I-100023J33D01*
G01*
X234800063Y-133576410D02*
G75*
G02*
X234900000Y-133479999I99937J-3590D01*
G01*
X234804215Y-133830011D02*
G75*
G02*
X235134751Y-133954866I-15J-499989D01*
G01*
X234808500Y-134076427D02*
G75*
G02*
X234970856Y-134138823I-2900J-249973D01*
G01*
X234899999Y-127280000D02*
G75*
G02*
X234800064Y-127183589I1J100000D01*
G01*
X234970847Y-126621166D02*
G75*
G02*
X234808500Y-126683558I-165247J187566D01*
G01*
X235101818Y-127280000D02*
G75*
G02*
X235306550Y-127529995I-25118J-229400D01*
G01*
X235134759Y-126805142D02*
G75*
G02*
X234804215Y-126930001I-330559J375142D01*
G01*
X235245212Y-127279999D02*
G75*
G02*
X235449951Y-127529996I-25112J-229401D01*
G01*
X235306605Y-133230000D02*
G75*
G02*
X235101823Y-133480055I-229905J-20600D01*
G01*
X235449999Y-133230000D02*
G75*
G02*
X235245217Y-133480049I-229899J-20600D01*
G01*
X195603067Y-133539145D02*
G75*
G02*
X194751315Y-133539145I-425876J0D01*
G01*
X194751315Y-133539145D02*
G75*
G02*
X195603067Y-133539145I425876J0D01*
G01*
X205181424Y-130514498D02*
G75*
G02*
X204681424Y-130514498I-250000J0D01*
G01*
X204681424Y-130514498D02*
G75*
G02*
X205181424Y-130514498I250000J0D01*
G01*
D13*
X188784940Y-126831620D02*
X188276940Y-126831620D01*
X188276940Y-126323620D01*
X188784940Y-126323620D01*
X188784940Y-126831620D01*
G36*
X188784940Y-126831620D02*
G01*
X188276940Y-126831620D01*
X188276940Y-126323620D01*
X188784940Y-126323620D01*
X188784940Y-126831620D01*
G37*
X188784940Y-129371620D02*
X188276940Y-129371620D01*
X188276940Y-128863620D01*
X188784940Y-128863620D01*
X188784940Y-129371620D01*
G36*
X188784940Y-129371620D02*
G01*
X188276940Y-129371620D01*
X188276940Y-128863620D01*
X188784940Y-128863620D01*
X188784940Y-129371620D01*
G37*
X188784940Y-131911620D02*
X188276940Y-131911620D01*
X188276940Y-131403620D01*
X188784940Y-131403620D01*
X188784940Y-131911620D01*
G36*
X188784940Y-131911620D02*
G01*
X188276940Y-131911620D01*
X188276940Y-131403620D01*
X188784940Y-131403620D01*
X188784940Y-131911620D01*
G37*
X188784940Y-134451620D02*
X188276940Y-134451620D01*
X188276940Y-133943620D01*
X188784940Y-133943620D01*
X188784940Y-134451620D01*
G36*
X188784940Y-134451620D02*
G01*
X188276940Y-134451620D01*
X188276940Y-133943620D01*
X188784940Y-133943620D01*
X188784940Y-134451620D01*
G37*
D12*
%TO.C,Brd1*%
X169600000Y-91700000D02*
X197000000Y-91700000D01*
X169600000Y-119000000D02*
X169600000Y-91700000D01*
X170022000Y-94995000D02*
X193122000Y-94995000D01*
X170022000Y-111595000D02*
X170022000Y-94995000D01*
X178301000Y-92189000D02*
X178301000Y-94602000D01*
X178301000Y-92189000D02*
X188080000Y-92189000D01*
X188080000Y-92189000D02*
X188080000Y-94602000D01*
X188080000Y-94602000D02*
X178301000Y-94602000D01*
X193122000Y-94995000D02*
X196208000Y-94995000D01*
X193122000Y-111595000D02*
X170022000Y-111595000D01*
X193122000Y-111595000D02*
X196462000Y-111620000D01*
X196462000Y-94983000D02*
X196208000Y-94995000D01*
X196462000Y-111620000D02*
X196462000Y-94983000D01*
X197000000Y-91700000D02*
X197000000Y-119000000D01*
X197000000Y-119000000D02*
X169600000Y-119000000D01*
D14*
%TO.C,U2*%
X167500000Y-64460000D02*
X196500000Y-64460000D01*
X167500000Y-79540000D02*
X167500000Y-64460000D01*
X196500000Y-64460000D02*
X196500000Y-79540000D01*
X196500000Y-79540000D02*
X167500000Y-79540000D01*
%TD*%
M02*
