%TF.GenerationSoftware,KiCad,Pcbnew,9.0.2*%
%TF.CreationDate,2025-07-07T16:52:20+05:30*%
%TF.ProjectId,Joystick,4a6f7973-7469-4636-9b2e-6b696361645f,rev?*%
%TF.SameCoordinates,Original*%
%TF.FileFunction,Copper,L1,Top*%
%TF.FilePolarity,Positive*%
%FSLAX46Y46*%
G04 Gerber Fmt 4.6, Leading zero omitted, Abs format (unit mm)*
G04 Created by KiCad (PCBNEW 9.0.2) date 2025-07-07 16:52:20*
%MOMM*%
%LPD*%
G01*
G04 APERTURE LIST*
G04 Aperture macros list*
%AMRoundRect*
0 Rectangle with rounded corners*
0 $1 Rounding radius*
0 $2 $3 $4 $5 $6 $7 $8 $9 X,Y pos of 4 corners*
0 Add a 4 corners polygon primitive as box body*
4,1,4,$2,$3,$4,$5,$6,$7,$8,$9,$2,$3,0*
0 Add four circle primitives for the rounded corners*
1,1,$1+$1,$2,$3*
1,1,$1+$1,$4,$5*
1,1,$1+$1,$6,$7*
1,1,$1+$1,$8,$9*
0 Add four rect primitives between the rounded corners*
20,1,$1+$1,$2,$3,$4,$5,0*
20,1,$1+$1,$4,$5,$6,$7,0*
20,1,$1+$1,$6,$7,$8,$9,0*
20,1,$1+$1,$8,$9,$2,$3,0*%
G04 Aperture macros list end*
%TA.AperFunction,ComponentPad*%
%ADD10R,1.700000X1.700000*%
%TD*%
%TA.AperFunction,ComponentPad*%
%ADD11C,1.700000*%
%TD*%
%TA.AperFunction,ComponentPad*%
%ADD12O,1.600000X2.000000*%
%TD*%
%TA.AperFunction,ComponentPad*%
%ADD13R,1.408000X1.408000*%
%TD*%
%TA.AperFunction,ComponentPad*%
%ADD14RoundRect,0.250000X-0.350000X-0.350000X0.350000X-0.350000X0.350000X0.350000X-0.350000X0.350000X0*%
%TD*%
%TA.AperFunction,ComponentPad*%
%ADD15C,1.200000*%
%TD*%
%TA.AperFunction,ViaPad*%
%ADD16C,0.600000*%
%TD*%
%TA.AperFunction,ViaPad*%
%ADD17C,1.000000*%
%TD*%
%TA.AperFunction,Conductor*%
%ADD18C,0.400000*%
%TD*%
G04 APERTURE END LIST*
D10*
%TO.P,J6,1,Pin_1*%
%TO.N,GND*%
X225920000Y-94000000D03*
D11*
%TO.P,J6,2,Pin_2*%
%TO.N,/VIN*%
X228460000Y-94000000D03*
%TO.P,J6,3,Pin_3*%
%TO.N,/VX*%
X231000000Y-94000000D03*
%TO.P,J6,4,Pin_4*%
%TO.N,/KY*%
X233540000Y-94000000D03*
%TO.P,J6,5,Pin_5*%
%TO.N,/S1*%
X236080000Y-94000000D03*
%TD*%
D10*
%TO.P,J5,1,Pin_1*%
%TO.N,GND*%
X124920000Y-93385000D03*
D11*
%TO.P,J5,2,Pin_2*%
%TO.N,/VIN*%
X127460000Y-93385000D03*
%TO.P,J5,3,Pin_3*%
%TO.N,/KX*%
X130000000Y-93385000D03*
%TO.P,J5,4,Pin_4*%
%TO.N,/VY*%
X132540000Y-93385000D03*
%TO.P,J5,5,Pin_5*%
%TO.N,/S2*%
X135080000Y-93385000D03*
%TD*%
D10*
%TO.P,J4,1,Pin_1*%
%TO.N,GND*%
X117615000Y-130825000D03*
D11*
%TO.P,J4,2,Pin_2*%
%TO.N,Net-(J3-Pin_1)*%
X117615000Y-133365000D03*
%TD*%
D10*
%TO.P,J3,1,Pin_1*%
%TO.N,Net-(J3-Pin_1)*%
X118615000Y-108825000D03*
D11*
%TO.P,J3,2,Pin_2*%
%TO.N,Net-(J3-Pin_2)*%
X118615000Y-111365000D03*
%TD*%
D10*
%TO.P,U1,1,PB12*%
%TO.N,Net-(U1-PB12)*%
X233080000Y-122760000D03*
D11*
%TO.P,U1,2,PB13*%
%TO.N,unconnected-(U1-PB13-Pad2)*%
X230540000Y-122760000D03*
%TO.P,U1,3,PB14*%
%TO.N,unconnected-(U1-PB14-Pad3)*%
X228000000Y-122760000D03*
%TO.P,U1,4,PB15*%
%TO.N,unconnected-(U1-PB15-Pad4)*%
X225460000Y-122760000D03*
%TO.P,U1,5,PA8*%
%TO.N,unconnected-(U1-PA8-Pad5)*%
X222920000Y-122760000D03*
%TO.P,U1,6,PA9*%
%TO.N,unconnected-(U1-PA9-Pad6)*%
X220380000Y-122760000D03*
%TO.P,U1,7,PA10*%
%TO.N,unconnected-(U1-PA10-Pad7)*%
X217840000Y-122760000D03*
%TO.P,U1,8,PA11*%
%TO.N,unconnected-(U1-PA11-Pad8)*%
X215300000Y-122760000D03*
%TO.P,U1,9,PA12*%
%TO.N,unconnected-(U1-PA12-Pad9)*%
X212760000Y-122760000D03*
%TO.P,U1,10,PA15*%
%TO.N,unconnected-(U1-PA15-Pad10)*%
X210220000Y-122760000D03*
%TO.P,U1,11,PB3*%
%TO.N,unconnected-(U1-PB3-Pad11)*%
X207680000Y-122760000D03*
%TO.P,U1,12,PB4*%
%TO.N,unconnected-(U1-PB4-Pad12)*%
X205140000Y-122760000D03*
%TO.P,U1,13,PB5*%
%TO.N,unconnected-(U1-PB5-Pad13)*%
X202600000Y-122760000D03*
%TO.P,U1,14,PB6*%
%TO.N,/SCL*%
X200060000Y-122760000D03*
%TO.P,U1,15,PB7*%
%TO.N,/SDL*%
X197520000Y-122760000D03*
%TO.P,U1,16,PB8*%
%TO.N,unconnected-(U1-PB8-Pad16)*%
X194980000Y-122760000D03*
%TO.P,U1,17,PB9*%
%TO.N,unconnected-(U1-PB9-Pad17)*%
X192440000Y-122760000D03*
%TO.P,U1,18,5V*%
%TO.N,/POW*%
X189900000Y-122760000D03*
%TO.P,U1,19,GND*%
%TO.N,GND*%
X187360000Y-122760000D03*
%TO.P,U1,20,3V3*%
%TO.N,/VIN*%
X184820000Y-122760000D03*
%TO.P,U1,21,VBat*%
%TO.N,unconnected-(U1-VBat-Pad21)*%
X184820000Y-138000000D03*
%TO.P,U1,22,PC13*%
%TO.N,unconnected-(U1-PC13-Pad22)*%
X187360000Y-138000000D03*
%TO.P,U1,23,PC14*%
%TO.N,unconnected-(U1-PC14-Pad23)*%
X189900000Y-138000000D03*
%TO.P,U1,24,PC15*%
%TO.N,/S1*%
X192440000Y-138000000D03*
%TO.P,U1,25,PA0*%
%TO.N,/KY*%
X194980000Y-138000000D03*
%TO.P,U1,26,PA1*%
%TO.N,/VX*%
X197520000Y-138000000D03*
%TO.P,U1,27,PA2*%
%TO.N,/VY*%
X200060000Y-138000000D03*
%TO.P,U1,28,PA3*%
%TO.N,/KX*%
X202600000Y-138000000D03*
%TO.P,U1,29,PA4*%
%TO.N,/S2*%
X205140000Y-138000000D03*
%TO.P,U1,30,PA5*%
%TO.N,Net-(U1-PA5)*%
X207680000Y-138000000D03*
%TO.P,U1,31,PA6*%
%TO.N,Net-(U1-PA6)*%
X210220000Y-138000000D03*
%TO.P,U1,32,PA7*%
%TO.N,Net-(U1-PA7)*%
X212760000Y-138000000D03*
%TO.P,U1,33,PB0*%
%TO.N,unconnected-(U1-PB0-Pad33)*%
X215300000Y-138000000D03*
%TO.P,U1,34,PB1*%
%TO.N,unconnected-(U1-PB1-Pad34)*%
X217840000Y-138000000D03*
%TO.P,U1,35,PB10*%
%TO.N,Net-(U1-PB10)*%
X220380000Y-138000000D03*
%TO.P,U1,36,PB11*%
%TO.N,unconnected-(U1-PB11-Pad36)*%
X222920000Y-138000000D03*
%TO.P,U1,37,RST*%
%TO.N,unconnected-(U1-RST-Pad37)*%
X225460000Y-138000000D03*
%TO.P,U1,38,3V3*%
%TO.N,unconnected-(U1-3V3-Pad38)*%
X228000000Y-138000000D03*
%TO.P,U1,39,GND*%
%TO.N,unconnected-(U1-GND-Pad39)*%
X230540000Y-138000000D03*
%TO.P,U1,40,GND*%
%TO.N,unconnected-(U1-GND-Pad40)*%
X233080000Y-138000000D03*
%TD*%
D12*
%TO.P,Brd1,1,GND*%
%TO.N,GND*%
X179380000Y-93400000D03*
%TO.P,Brd1,2,VCC*%
%TO.N,/VIN*%
X181920000Y-93400000D03*
%TO.P,Brd1,3,SCL*%
%TO.N,/SCL*%
X184460000Y-93400000D03*
%TO.P,Brd1,4,SDA*%
%TO.N,/SDL*%
X187000000Y-93400000D03*
%TD*%
D13*
%TO.P,U2,P$1,GND*%
%TO.N,GND*%
X195230000Y-78270000D03*
%TO.P,U2,P$2,VCC*%
%TO.N,/VIN*%
X192690000Y-78270000D03*
%TO.P,U2,P$3,CE*%
%TO.N,Net-(U1-PB12)*%
X195230000Y-75730000D03*
%TO.P,U2,P$4,CSN*%
%TO.N,Net-(U1-PB10)*%
X192690000Y-75730000D03*
%TO.P,U2,P$5,SCK*%
%TO.N,Net-(U1-PA5)*%
X195230000Y-73190000D03*
%TO.P,U2,P$6,MOSI*%
%TO.N,Net-(U1-PA7)*%
X192690000Y-73190000D03*
%TO.P,U2,P$7,MISO*%
%TO.N,Net-(U1-PA6)*%
X195230000Y-70650000D03*
%TO.P,U2,P$8,IRQ*%
%TO.N,unconnected-(U2-IRQ-PadP$8)*%
X192690000Y-70650000D03*
%TD*%
D14*
%TO.P,C2,1*%
%TO.N,/POW*%
X163000000Y-121100000D03*
D15*
%TO.P,C2,2*%
%TO.N,GND*%
X164500000Y-121100000D03*
%TD*%
D16*
%TO.N,/KX*%
X158000000Y-133000000D03*
X156000000Y-129000000D03*
D17*
%TO.N,Net-(U1-PA5)*%
X237000000Y-117000000D03*
%TD*%
D18*
%TO.N,/KX*%
X157000000Y-132000000D02*
X158000000Y-133000000D01*
X157000000Y-130000000D02*
X157000000Y-132000000D01*
X156000000Y-129000000D02*
X157000000Y-130000000D01*
%TO.N,Net-(U1-PA5)*%
X225742000Y-133000000D02*
X209000000Y-133000000D01*
X237000000Y-121742000D02*
X225742000Y-133000000D01*
X237000000Y-117000000D02*
X237000000Y-121742000D01*
X209000000Y-136680000D02*
X207680000Y-138000000D01*
X209000000Y-133000000D02*
X209000000Y-136680000D01*
%TD*%
M02*
