%TF.GenerationSoftware,KiCad,Pcbnew,9.0.2*%
%TF.CreationDate,2025-07-07T16:52:20+05:30*%
%TF.ProjectId,Joystick,4a6f7973-7469-4636-9b2e-6b696361645f,rev?*%
%TF.SameCoordinates,Original*%
%TF.FileFunction,Copper,L2,Bot*%
%TF.FilePolarity,Positive*%
%FSLAX46Y46*%
G04 Gerber Fmt 4.6, Leading zero omitted, Abs format (unit mm)*
G04 Created by KiCad (PCBNEW 9.0.2) date 2025-07-07 16:52:20*
%MOMM*%
%LPD*%
G01*
G04 APERTURE LIST*
G04 Aperture macros list*
%AMRoundRect*
0 Rectangle with rounded corners*
0 $1 Rounding radius*
0 $2 $3 $4 $5 $6 $7 $8 $9 X,Y pos of 4 corners*
0 Add a 4 corners polygon primitive as box body*
4,1,4,$2,$3,$4,$5,$6,$7,$8,$9,$2,$3,0*
0 Add four circle primitives for the rounded corners*
1,1,$1+$1,$2,$3*
1,1,$1+$1,$4,$5*
1,1,$1+$1,$6,$7*
1,1,$1+$1,$8,$9*
0 Add four rect primitives between the rounded corners*
20,1,$1+$1,$2,$3,$4,$5,0*
20,1,$1+$1,$4,$5,$6,$7,0*
20,1,$1+$1,$6,$7,$8,$9,0*
20,1,$1+$1,$8,$9,$2,$3,0*%
G04 Aperture macros list end*
%TA.AperFunction,ComponentPad*%
%ADD10R,1.700000X1.700000*%
%TD*%
%TA.AperFunction,ComponentPad*%
%ADD11C,1.700000*%
%TD*%
%TA.AperFunction,ComponentPad*%
%ADD12O,1.600000X2.000000*%
%TD*%
%TA.AperFunction,ComponentPad*%
%ADD13R,1.408000X1.408000*%
%TD*%
%TA.AperFunction,SMDPad,CuDef*%
%ADD14RoundRect,0.250000X-1.050000X-0.550000X1.050000X-0.550000X1.050000X0.550000X-1.050000X0.550000X0*%
%TD*%
%TA.AperFunction,SMDPad,CuDef*%
%ADD15RoundRect,0.750000X-1.750000X-0.750000X1.750000X-0.750000X1.750000X0.750000X-1.750000X0.750000X0*%
%TD*%
%TA.AperFunction,ComponentPad*%
%ADD16RoundRect,0.250000X-0.350000X-0.350000X0.350000X-0.350000X0.350000X0.350000X-0.350000X0.350000X0*%
%TD*%
%TA.AperFunction,ComponentPad*%
%ADD17C,1.200000*%
%TD*%
%TA.AperFunction,ViaPad*%
%ADD18C,0.600000*%
%TD*%
%TA.AperFunction,ViaPad*%
%ADD19C,1.000000*%
%TD*%
%TA.AperFunction,Conductor*%
%ADD20C,0.400000*%
%TD*%
%TA.AperFunction,Conductor*%
%ADD21C,0.800000*%
%TD*%
%TA.AperFunction,Conductor*%
%ADD22C,1.000000*%
%TD*%
G04 APERTURE END LIST*
D10*
%TO.P,J6,1,Pin_1*%
%TO.N,GND*%
X225920000Y-94000000D03*
D11*
%TO.P,J6,2,Pin_2*%
%TO.N,/VIN*%
X228460000Y-94000000D03*
%TO.P,J6,3,Pin_3*%
%TO.N,/VX*%
X231000000Y-94000000D03*
%TO.P,J6,4,Pin_4*%
%TO.N,/KY*%
X233540000Y-94000000D03*
%TO.P,J6,5,Pin_5*%
%TO.N,/S1*%
X236080000Y-94000000D03*
%TD*%
D10*
%TO.P,J5,1,Pin_1*%
%TO.N,GND*%
X124920000Y-93385000D03*
D11*
%TO.P,J5,2,Pin_2*%
%TO.N,/VIN*%
X127460000Y-93385000D03*
%TO.P,J5,3,Pin_3*%
%TO.N,/KX*%
X130000000Y-93385000D03*
%TO.P,J5,4,Pin_4*%
%TO.N,/VY*%
X132540000Y-93385000D03*
%TO.P,J5,5,Pin_5*%
%TO.N,/S2*%
X135080000Y-93385000D03*
%TD*%
D10*
%TO.P,J4,1,Pin_1*%
%TO.N,GND*%
X117615000Y-130825000D03*
D11*
%TO.P,J4,2,Pin_2*%
%TO.N,Net-(J3-Pin_1)*%
X117615000Y-133365000D03*
%TD*%
D10*
%TO.P,J3,1,Pin_1*%
%TO.N,Net-(J3-Pin_1)*%
X118615000Y-108825000D03*
D11*
%TO.P,J3,2,Pin_2*%
%TO.N,Net-(J3-Pin_2)*%
X118615000Y-111365000D03*
%TD*%
D10*
%TO.P,U1,1,PB12*%
%TO.N,Net-(U1-PB12)*%
X233080000Y-122760000D03*
D11*
%TO.P,U1,2,PB13*%
%TO.N,unconnected-(U1-PB13-Pad2)*%
X230540000Y-122760000D03*
%TO.P,U1,3,PB14*%
%TO.N,unconnected-(U1-PB14-Pad3)*%
X228000000Y-122760000D03*
%TO.P,U1,4,PB15*%
%TO.N,unconnected-(U1-PB15-Pad4)*%
X225460000Y-122760000D03*
%TO.P,U1,5,PA8*%
%TO.N,unconnected-(U1-PA8-Pad5)*%
X222920000Y-122760000D03*
%TO.P,U1,6,PA9*%
%TO.N,unconnected-(U1-PA9-Pad6)*%
X220380000Y-122760000D03*
%TO.P,U1,7,PA10*%
%TO.N,unconnected-(U1-PA10-Pad7)*%
X217840000Y-122760000D03*
%TO.P,U1,8,PA11*%
%TO.N,unconnected-(U1-PA11-Pad8)*%
X215300000Y-122760000D03*
%TO.P,U1,9,PA12*%
%TO.N,unconnected-(U1-PA12-Pad9)*%
X212760000Y-122760000D03*
%TO.P,U1,10,PA15*%
%TO.N,unconnected-(U1-PA15-Pad10)*%
X210220000Y-122760000D03*
%TO.P,U1,11,PB3*%
%TO.N,unconnected-(U1-PB3-Pad11)*%
X207680000Y-122760000D03*
%TO.P,U1,12,PB4*%
%TO.N,unconnected-(U1-PB4-Pad12)*%
X205140000Y-122760000D03*
%TO.P,U1,13,PB5*%
%TO.N,unconnected-(U1-PB5-Pad13)*%
X202600000Y-122760000D03*
%TO.P,U1,14,PB6*%
%TO.N,/SCL*%
X200060000Y-122760000D03*
%TO.P,U1,15,PB7*%
%TO.N,/SDL*%
X197520000Y-122760000D03*
%TO.P,U1,16,PB8*%
%TO.N,unconnected-(U1-PB8-Pad16)*%
X194980000Y-122760000D03*
%TO.P,U1,17,PB9*%
%TO.N,unconnected-(U1-PB9-Pad17)*%
X192440000Y-122760000D03*
%TO.P,U1,18,5V*%
%TO.N,/POW*%
X189900000Y-122760000D03*
%TO.P,U1,19,GND*%
%TO.N,GND*%
X187360000Y-122760000D03*
%TO.P,U1,20,3V3*%
%TO.N,/VIN*%
X184820000Y-122760000D03*
%TO.P,U1,21,VBat*%
%TO.N,unconnected-(U1-VBat-Pad21)*%
X184820000Y-138000000D03*
%TO.P,U1,22,PC13*%
%TO.N,unconnected-(U1-PC13-Pad22)*%
X187360000Y-138000000D03*
%TO.P,U1,23,PC14*%
%TO.N,unconnected-(U1-PC14-Pad23)*%
X189900000Y-138000000D03*
%TO.P,U1,24,PC15*%
%TO.N,/S1*%
X192440000Y-138000000D03*
%TO.P,U1,25,PA0*%
%TO.N,/KY*%
X194980000Y-138000000D03*
%TO.P,U1,26,PA1*%
%TO.N,/VX*%
X197520000Y-138000000D03*
%TO.P,U1,27,PA2*%
%TO.N,/VY*%
X200060000Y-138000000D03*
%TO.P,U1,28,PA3*%
%TO.N,/KX*%
X202600000Y-138000000D03*
%TO.P,U1,29,PA4*%
%TO.N,/S2*%
X205140000Y-138000000D03*
%TO.P,U1,30,PA5*%
%TO.N,Net-(U1-PA5)*%
X207680000Y-138000000D03*
%TO.P,U1,31,PA6*%
%TO.N,Net-(U1-PA6)*%
X210220000Y-138000000D03*
%TO.P,U1,32,PA7*%
%TO.N,Net-(U1-PA7)*%
X212760000Y-138000000D03*
%TO.P,U1,33,PB0*%
%TO.N,unconnected-(U1-PB0-Pad33)*%
X215300000Y-138000000D03*
%TO.P,U1,34,PB1*%
%TO.N,unconnected-(U1-PB1-Pad34)*%
X217840000Y-138000000D03*
%TO.P,U1,35,PB10*%
%TO.N,Net-(U1-PB10)*%
X220380000Y-138000000D03*
%TO.P,U1,36,PB11*%
%TO.N,unconnected-(U1-PB11-Pad36)*%
X222920000Y-138000000D03*
%TO.P,U1,37,RST*%
%TO.N,unconnected-(U1-RST-Pad37)*%
X225460000Y-138000000D03*
%TO.P,U1,38,3V3*%
%TO.N,unconnected-(U1-3V3-Pad38)*%
X228000000Y-138000000D03*
%TO.P,U1,39,GND*%
%TO.N,unconnected-(U1-GND-Pad39)*%
X230540000Y-138000000D03*
%TO.P,U1,40,GND*%
%TO.N,unconnected-(U1-GND-Pad40)*%
X233080000Y-138000000D03*
%TD*%
D12*
%TO.P,Brd1,1,GND*%
%TO.N,GND*%
X179380000Y-93400000D03*
%TO.P,Brd1,2,VCC*%
%TO.N,/VIN*%
X181920000Y-93400000D03*
%TO.P,Brd1,3,SCL*%
%TO.N,/SCL*%
X184460000Y-93400000D03*
%TO.P,Brd1,4,SDA*%
%TO.N,/SDL*%
X187000000Y-93400000D03*
%TD*%
D13*
%TO.P,U2,P$1,GND*%
%TO.N,GND*%
X195230000Y-78270000D03*
%TO.P,U2,P$2,VCC*%
%TO.N,/VIN*%
X192690000Y-78270000D03*
%TO.P,U2,P$3,CE*%
%TO.N,Net-(U1-PB12)*%
X195230000Y-75730000D03*
%TO.P,U2,P$4,CSN*%
%TO.N,Net-(U1-PB10)*%
X192690000Y-75730000D03*
%TO.P,U2,P$5,SCK*%
%TO.N,Net-(U1-PA5)*%
X195230000Y-73190000D03*
%TO.P,U2,P$6,MOSI*%
%TO.N,Net-(U1-PA7)*%
X192690000Y-73190000D03*
%TO.P,U2,P$7,MISO*%
%TO.N,Net-(U1-PA6)*%
X195230000Y-70650000D03*
%TO.P,U2,P$8,IRQ*%
%TO.N,unconnected-(U2-IRQ-PadP$8)*%
X192690000Y-70650000D03*
%TD*%
D14*
%TO.P,C1,1*%
%TO.N,/POW*%
X172000000Y-115000000D03*
%TO.P,C1,2*%
%TO.N,GND*%
X175600000Y-115000000D03*
%TD*%
D15*
%TO.P,U3,1,VIN+*%
%TO.N,Net-(J3-Pin_2)*%
X127000000Y-118100000D03*
%TO.P,U3,2,VIN-*%
%TO.N,GND*%
X127000000Y-124900000D03*
%TO.P,U3,3,VOUT-*%
X157500000Y-124900000D03*
%TO.P,U3,4,VOUT-*%
%TO.N,/POW*%
X157500000Y-118100000D03*
%TD*%
D16*
%TO.P,C2,1*%
%TO.N,/POW*%
X163000000Y-121100000D03*
D17*
%TO.P,C2,2*%
%TO.N,GND*%
X164500000Y-121100000D03*
%TD*%
D18*
%TO.N,/KX*%
X158000000Y-133000000D03*
X156000000Y-129000000D03*
D19*
%TO.N,Net-(U1-PA5)*%
X237000000Y-117000000D03*
%TD*%
D20*
%TO.N,/KX*%
X155000000Y-128000000D02*
X156000000Y-129000000D01*
X197000000Y-133000000D02*
X158000000Y-133000000D01*
X197600000Y-133000000D02*
X197000000Y-133000000D01*
X199800000Y-135200000D02*
X199600000Y-135000000D01*
X199800000Y-135200000D02*
X197600000Y-133000000D01*
%TO.N,/S2*%
X203000000Y-135860000D02*
X205140000Y-138000000D01*
X203000000Y-135000000D02*
X203000000Y-135860000D01*
X198000000Y-130000000D02*
X203000000Y-135000000D01*
X181000000Y-131000000D02*
X182000000Y-130000000D01*
X155000000Y-131000000D02*
X181000000Y-131000000D01*
X144000000Y-120000000D02*
X155000000Y-131000000D01*
X144000000Y-102305000D02*
X144000000Y-120000000D01*
X182000000Y-130000000D02*
X198000000Y-130000000D01*
X135080000Y-93385000D02*
X144000000Y-102305000D01*
%TO.N,/KX*%
X202600000Y-138000000D02*
X199800000Y-135200000D01*
X146000000Y-104000000D02*
X146000000Y-119000000D01*
X146000000Y-97000000D02*
X146000000Y-100000000D01*
X146000000Y-119000000D02*
X155000000Y-128000000D01*
X139000000Y-90000000D02*
X146000000Y-97000000D01*
X138000000Y-89000000D02*
X139000000Y-90000000D01*
X132000000Y-89000000D02*
X138000000Y-89000000D01*
X146000000Y-100000000D02*
X146000000Y-104000000D01*
X131000000Y-90000000D02*
X132000000Y-89000000D01*
X131000000Y-92385000D02*
X131000000Y-90000000D01*
X130000000Y-93385000D02*
X131000000Y-92385000D01*
D21*
%TO.N,/POW*%
X190000000Y-125000000D02*
X189900000Y-124900000D01*
X186000000Y-129000000D02*
X190000000Y-125000000D01*
X179000000Y-129000000D02*
X186000000Y-129000000D01*
X172000000Y-122000000D02*
X179000000Y-129000000D01*
X172000000Y-115000000D02*
X172000000Y-122000000D01*
X189900000Y-124900000D02*
X189900000Y-122760000D01*
D20*
%TO.N,/S1*%
X243000000Y-100920000D02*
X236080000Y-94000000D01*
X243000000Y-101000000D02*
X243000000Y-100920000D01*
X246000000Y-101000000D02*
X243000000Y-101000000D01*
X254000000Y-109000000D02*
X246000000Y-101000000D01*
X254000000Y-135000000D02*
X254000000Y-109000000D01*
X239000000Y-150000000D02*
X254000000Y-135000000D01*
X235000000Y-150000000D02*
X239000000Y-150000000D01*
X229000000Y-144000000D02*
X235000000Y-150000000D01*
X196000000Y-144000000D02*
X229000000Y-144000000D01*
X194000000Y-142000000D02*
X196000000Y-144000000D01*
X194000000Y-139560000D02*
X194000000Y-142000000D01*
X192440000Y-138000000D02*
X194000000Y-139560000D01*
%TO.N,/KY*%
X196000000Y-139020000D02*
X194980000Y-138000000D01*
X196000000Y-140000000D02*
X196000000Y-139020000D01*
X198000000Y-142000000D02*
X196000000Y-140000000D01*
X229000000Y-142000000D02*
X198000000Y-142000000D01*
X235000000Y-148000000D02*
X229000000Y-142000000D01*
X239000000Y-148000000D02*
X235000000Y-148000000D01*
X252000000Y-135000000D02*
X239000000Y-148000000D01*
X252000000Y-110000000D02*
X252000000Y-135000000D01*
X245000000Y-103000000D02*
X252000000Y-110000000D01*
X242000000Y-103000000D02*
X245000000Y-103000000D01*
X233540000Y-94540000D02*
X242000000Y-103000000D01*
X233540000Y-94000000D02*
X233540000Y-94540000D01*
X233540000Y-94000000D02*
X234000000Y-94000000D01*
%TO.N,/VX*%
X199000000Y-139480000D02*
X197520000Y-138000000D01*
X199000000Y-140000000D02*
X199000000Y-139480000D01*
X200000000Y-141000000D02*
X199000000Y-140000000D01*
X236000000Y-147000000D02*
X230000000Y-141000000D01*
X251000000Y-111000000D02*
X251000000Y-134000000D01*
X244000000Y-104000000D02*
X251000000Y-111000000D01*
X251000000Y-134000000D02*
X238000000Y-147000000D01*
X241000000Y-104000000D02*
X244000000Y-104000000D01*
X231000000Y-94000000D02*
X241000000Y-104000000D01*
X238000000Y-147000000D02*
X236000000Y-147000000D01*
X230000000Y-141000000D02*
X200000000Y-141000000D01*
%TO.N,Net-(U1-PB10)*%
X222380000Y-140000000D02*
X220380000Y-138000000D01*
X238000000Y-140000000D02*
X222380000Y-140000000D01*
X248000000Y-130000000D02*
X238000000Y-140000000D01*
X248000000Y-126000000D02*
X248000000Y-130000000D01*
X246000000Y-124000000D02*
X248000000Y-126000000D01*
X246000000Y-111000000D02*
X246000000Y-124000000D01*
X238000000Y-103000000D02*
X246000000Y-111000000D01*
X232132786Y-103000000D02*
X238000000Y-103000000D01*
X210000000Y-80867214D02*
X232132786Y-103000000D01*
X209000000Y-79000000D02*
X210000000Y-80000000D01*
X209000000Y-74000000D02*
X209000000Y-79000000D01*
X202000000Y-67000000D02*
X209000000Y-74000000D01*
X190000000Y-67000000D02*
X202000000Y-67000000D01*
X188000000Y-69000000D02*
X190000000Y-67000000D01*
X188000000Y-74000000D02*
X188000000Y-69000000D01*
X189730000Y-75730000D02*
X188000000Y-74000000D01*
X210000000Y-80000000D02*
X210000000Y-80867214D01*
X192690000Y-75730000D02*
X189730000Y-75730000D01*
%TO.N,Net-(U1-PA7)*%
X216760000Y-134000000D02*
X212760000Y-138000000D01*
X219000000Y-134000000D02*
X216760000Y-134000000D01*
X221000000Y-132000000D02*
X219000000Y-134000000D01*
X242000000Y-121000000D02*
X242000000Y-126000000D01*
X244000000Y-114000000D02*
X244000000Y-119000000D01*
X236000000Y-106000000D02*
X244000000Y-114000000D01*
X234000000Y-106000000D02*
X236000000Y-106000000D01*
X207000000Y-76000000D02*
X207000000Y-79000000D01*
X242000000Y-126000000D02*
X236000000Y-132000000D01*
X191000000Y-69000000D02*
X200000000Y-69000000D01*
X200000000Y-69000000D02*
X207000000Y-76000000D01*
X190000000Y-72000000D02*
X190000000Y-70000000D01*
X244000000Y-119000000D02*
X242000000Y-121000000D01*
X207000000Y-79000000D02*
X234000000Y-106000000D01*
X191190000Y-73190000D02*
X190000000Y-72000000D01*
X192690000Y-73190000D02*
X191190000Y-73190000D01*
X190000000Y-70000000D02*
X191000000Y-69000000D01*
X236000000Y-132000000D02*
X221000000Y-132000000D01*
%TO.N,/VY*%
X135000000Y-97000000D02*
X137000000Y-97000000D01*
X134080000Y-96080000D02*
X135000000Y-97000000D01*
X137000000Y-97000000D02*
X142000000Y-102000000D01*
X134080000Y-94925000D02*
X134080000Y-96080000D01*
X197060000Y-135000000D02*
X200060000Y-138000000D01*
X185000000Y-135000000D02*
X197060000Y-135000000D01*
X180000000Y-138000000D02*
X182000000Y-138000000D01*
X177000000Y-141000000D02*
X180000000Y-138000000D01*
X160000000Y-141000000D02*
X177000000Y-141000000D01*
X154000000Y-135000000D02*
X160000000Y-141000000D01*
X142000000Y-120000000D02*
X154000000Y-132000000D01*
X154000000Y-132000000D02*
X154000000Y-135000000D01*
X132540000Y-93385000D02*
X134080000Y-94925000D01*
X142000000Y-102000000D02*
X142000000Y-120000000D01*
X182000000Y-138000000D02*
X185000000Y-135000000D01*
D21*
%TO.N,/VIN*%
X127460000Y-91620000D02*
X127460000Y-93385000D01*
X128080000Y-91000000D02*
X127460000Y-91620000D01*
X128080000Y-88000000D02*
X128080000Y-91000000D01*
X142000000Y-78000000D02*
X138080000Y-78000000D01*
X143000000Y-79000000D02*
X142000000Y-78000000D01*
X156000000Y-87000000D02*
X148000000Y-79000000D01*
X177120000Y-87000000D02*
X156000000Y-87000000D01*
X148000000Y-79000000D02*
X143000000Y-79000000D01*
X181920000Y-91800000D02*
X177120000Y-87000000D01*
X181920000Y-93400000D02*
X181920000Y-91800000D01*
X138080000Y-78000000D02*
X128080000Y-88000000D01*
X228460000Y-91460000D02*
X228460000Y-94000000D01*
X227000000Y-90000000D02*
X228460000Y-91460000D01*
X227000000Y-82000000D02*
X227000000Y-90000000D01*
X226270000Y-81270000D02*
X227000000Y-82000000D01*
X226270000Y-79270000D02*
X226270000Y-81270000D01*
X185000000Y-65000000D02*
X208000000Y-65000000D01*
X181000000Y-69000000D02*
X185000000Y-65000000D01*
X217000000Y-74000000D02*
X221000000Y-74000000D01*
X181000000Y-77000000D02*
X181000000Y-69000000D01*
X221000000Y-74000000D02*
X226270000Y-79270000D01*
X182270000Y-78270000D02*
X181000000Y-77000000D01*
X192690000Y-78270000D02*
X182270000Y-78270000D01*
X208000000Y-65000000D02*
X217000000Y-74000000D01*
D20*
%TO.N,/SCL*%
X191000000Y-91000000D02*
X191000000Y-113700000D01*
X191000000Y-113700000D02*
X200060000Y-122760000D01*
X184600000Y-93400000D02*
X188000000Y-90000000D01*
X190000000Y-90000000D02*
X191000000Y-91000000D01*
X184460000Y-93400000D02*
X184600000Y-93400000D01*
X188000000Y-90000000D02*
X190000000Y-90000000D01*
%TO.N,/SDL*%
X186000000Y-98000000D02*
X187000000Y-97000000D01*
X186000000Y-113000000D02*
X186000000Y-98000000D01*
X197520000Y-122760000D02*
X191760000Y-117000000D01*
X187000000Y-97000000D02*
X187000000Y-93400000D01*
X190000000Y-117000000D02*
X186000000Y-113000000D01*
X191760000Y-117000000D02*
X190000000Y-117000000D01*
D21*
%TO.N,/VIN*%
X182000000Y-117000000D02*
X181920000Y-116920000D01*
X182000000Y-94000000D02*
X182000000Y-93000000D01*
X181920000Y-93920000D02*
X182000000Y-94000000D01*
X181920000Y-93400000D02*
X181920000Y-93920000D01*
X192690000Y-84310000D02*
X192690000Y-78270000D01*
X190000000Y-87000000D02*
X192690000Y-84310000D01*
X184820000Y-122820000D02*
X182000000Y-120000000D01*
X182000000Y-120000000D02*
X182000000Y-117000000D01*
X181920000Y-116920000D02*
X181920000Y-93400000D01*
X182000000Y-93000000D02*
X188000000Y-87000000D01*
X184820000Y-122760000D02*
X184820000Y-122820000D01*
X188000000Y-87000000D02*
X190000000Y-87000000D01*
D22*
%TO.N,GND*%
X177000000Y-120000000D02*
X177000000Y-116400000D01*
X119725000Y-130825000D02*
X120000000Y-131100000D01*
X164500000Y-121100000D02*
X165400000Y-122000000D01*
X181000000Y-127000000D02*
X181000000Y-124000000D01*
X166000000Y-122000000D02*
X167000000Y-123000000D01*
X167000000Y-123000000D02*
X165000000Y-125000000D01*
X120000000Y-131100000D02*
X121000000Y-130100000D01*
X181000000Y-124000000D02*
X177000000Y-120000000D01*
X185000000Y-127000000D02*
X181000000Y-127000000D01*
X165400000Y-122000000D02*
X166000000Y-122000000D01*
D20*
X157500000Y-124900000D02*
X162200000Y-124900000D01*
D22*
X164900000Y-124900000D02*
X157500000Y-124900000D01*
X121800000Y-130100000D02*
X127000000Y-124900000D01*
X117615000Y-130825000D02*
X119725000Y-130825000D01*
X177000000Y-116400000D02*
X175600000Y-115000000D01*
X187360000Y-124640000D02*
X185000000Y-127000000D01*
X187360000Y-122760000D02*
X187360000Y-124640000D01*
X165000000Y-125000000D02*
X164900000Y-124900000D01*
X121000000Y-130100000D02*
X121800000Y-130100000D01*
D21*
%TO.N,/POW*%
X166000000Y-114000000D02*
X166000000Y-112000000D01*
X168398000Y-111398000D02*
X170379314Y-111398000D01*
X157500000Y-118100000D02*
X160500000Y-121100000D01*
X172000000Y-113018686D02*
X172000000Y-115000000D01*
X170379314Y-111398000D02*
X172000000Y-113018686D01*
X168000000Y-111000000D02*
X168398000Y-111398000D01*
X166000000Y-112000000D02*
X167000000Y-111000000D01*
X160500000Y-121100000D02*
X163000000Y-121100000D01*
X166000000Y-114000000D02*
X163000000Y-117000000D01*
X167000000Y-111000000D02*
X168000000Y-111000000D01*
X163000000Y-117000000D02*
X163000000Y-121100000D01*
D22*
%TO.N,Net-(J3-Pin_1)*%
X114000000Y-130952081D02*
X116412919Y-133365000D01*
X118615000Y-108825000D02*
X114275000Y-108825000D01*
X112000000Y-111100000D02*
X112000000Y-127100000D01*
X114275000Y-108825000D02*
X112000000Y-111100000D01*
X116412919Y-133365000D02*
X117615000Y-133365000D01*
X112000000Y-127100000D02*
X114000000Y-129100000D01*
X114000000Y-129100000D02*
X114000000Y-130952081D01*
%TO.N,Net-(J3-Pin_2)*%
X122000000Y-118100000D02*
X127000000Y-118100000D01*
X118615000Y-111365000D02*
X118615000Y-114715000D01*
X118615000Y-114715000D02*
X122000000Y-118100000D01*
D20*
%TO.N,Net-(U1-PA5)*%
X195230000Y-73190000D02*
X196810000Y-73190000D01*
X237000000Y-112867214D02*
X237000000Y-117000000D01*
X196810000Y-73190000D02*
X197620000Y-74000000D01*
X200066393Y-75933607D02*
X237000000Y-112867214D01*
X197620000Y-74000000D02*
X198000000Y-74000000D01*
X198132786Y-74000000D02*
X200066393Y-75933607D01*
X198000000Y-74000000D02*
X198132786Y-74000000D01*
%TO.N,Net-(U1-PB12)*%
X233000000Y-113000000D02*
X233080000Y-113080000D01*
X233000000Y-110000000D02*
X233000000Y-113000000D01*
X195230000Y-75730000D02*
X198730000Y-75730000D01*
X198730000Y-75730000D02*
X233000000Y-110000000D01*
X233080000Y-113080000D02*
X233080000Y-122760000D01*
%TO.N,Net-(U1-PA6)*%
X215801000Y-131199000D02*
X227801000Y-131199000D01*
X215000000Y-133220000D02*
X215000000Y-132000000D01*
X241000000Y-115000000D02*
X196650000Y-70650000D01*
X227801000Y-131199000D02*
X241000000Y-118000000D01*
X210220000Y-138000000D02*
X215000000Y-133220000D01*
X215000000Y-132000000D02*
X215801000Y-131199000D01*
X196650000Y-70650000D02*
X195230000Y-70650000D01*
X241000000Y-118000000D02*
X241000000Y-115000000D01*
%TD*%
%TA.AperFunction,Conductor*%
%TO.N,GND*%
G36*
X141642677Y-78920185D02*
G01*
X141663319Y-78936819D01*
X142300536Y-79574035D01*
X142369500Y-79642999D01*
X142425966Y-79699465D01*
X142467120Y-79726963D01*
X142573453Y-79798013D01*
X142621452Y-79817895D01*
X142737334Y-79865895D01*
X142891491Y-79896558D01*
X142911304Y-79900499D01*
X142911308Y-79900500D01*
X142911309Y-79900500D01*
X147575638Y-79900500D01*
X147642677Y-79920185D01*
X147663319Y-79936819D01*
X151529581Y-83803080D01*
X155300536Y-87574035D01*
X155425960Y-87699459D01*
X155425966Y-87699465D01*
X155573446Y-87798009D01*
X155573459Y-87798016D01*
X155655392Y-87831953D01*
X155737334Y-87865894D01*
X155737336Y-87865894D01*
X155737341Y-87865896D01*
X155911304Y-87900499D01*
X155911307Y-87900500D01*
X155911309Y-87900500D01*
X176695638Y-87900500D01*
X176762677Y-87920185D01*
X176783319Y-87936819D01*
X180975976Y-92129476D01*
X181009461Y-92190799D01*
X181004477Y-92260491D01*
X180975977Y-92304837D01*
X180928028Y-92352786D01*
X180807713Y-92518388D01*
X180760203Y-92611630D01*
X180712228Y-92662426D01*
X180644407Y-92679220D01*
X180578272Y-92656682D01*
X180539234Y-92611628D01*
X180491861Y-92518652D01*
X180371582Y-92353105D01*
X180371582Y-92353104D01*
X180226895Y-92208417D01*
X180061349Y-92088140D01*
X179879029Y-91995244D01*
X179684413Y-91932009D01*
X179630000Y-91923390D01*
X179630000Y-92966988D01*
X179572993Y-92934075D01*
X179445826Y-92900000D01*
X179314174Y-92900000D01*
X179187007Y-92934075D01*
X179130000Y-92966988D01*
X179130000Y-91923390D01*
X179075586Y-91932009D01*
X178880970Y-91995244D01*
X178698650Y-92088140D01*
X178533105Y-92208417D01*
X178533104Y-92208417D01*
X178388417Y-92353104D01*
X178388417Y-92353105D01*
X178268140Y-92518650D01*
X178175244Y-92700968D01*
X178112009Y-92895582D01*
X178080000Y-93097682D01*
X178080000Y-93150000D01*
X178946988Y-93150000D01*
X178914075Y-93207007D01*
X178880000Y-93334174D01*
X178880000Y-93465826D01*
X178914075Y-93592993D01*
X178946988Y-93650000D01*
X178080000Y-93650000D01*
X178080000Y-93702317D01*
X178112009Y-93904417D01*
X178175244Y-94099031D01*
X178268140Y-94281349D01*
X178388417Y-94446894D01*
X178388417Y-94446895D01*
X178533104Y-94591582D01*
X178698650Y-94711859D01*
X178880968Y-94804754D01*
X179075578Y-94867988D01*
X179130000Y-94876607D01*
X179130000Y-93833012D01*
X179187007Y-93865925D01*
X179314174Y-93900000D01*
X179445826Y-93900000D01*
X179572993Y-93865925D01*
X179630000Y-93833012D01*
X179630000Y-94876606D01*
X179684421Y-94867988D01*
X179879031Y-94804754D01*
X180061349Y-94711859D01*
X180226894Y-94591582D01*
X180226895Y-94591582D01*
X180371582Y-94446895D01*
X180371582Y-94446894D01*
X180491861Y-94281347D01*
X180539234Y-94188371D01*
X180587208Y-94137575D01*
X180655028Y-94120779D01*
X180721164Y-94143316D01*
X180760203Y-94188369D01*
X180807713Y-94281611D01*
X180928028Y-94447213D01*
X180983181Y-94502366D01*
X181016666Y-94563689D01*
X181019500Y-94590047D01*
X181019500Y-117008696D01*
X181054103Y-117182658D01*
X181054105Y-117182666D01*
X181085256Y-117257871D01*
X181090059Y-117269465D01*
X181099500Y-117316923D01*
X181099500Y-120088696D01*
X181134103Y-120262658D01*
X181134105Y-120262666D01*
X181160513Y-120326420D01*
X181201987Y-120426547D01*
X181261063Y-120514959D01*
X181264471Y-120520060D01*
X181264473Y-120520063D01*
X181300534Y-120574034D01*
X181300535Y-120574035D01*
X181300536Y-120574036D01*
X182371228Y-121644728D01*
X183433181Y-122706680D01*
X183466666Y-122768003D01*
X183469500Y-122794361D01*
X183469500Y-122866287D01*
X183502754Y-123076243D01*
X183560400Y-123253659D01*
X183568444Y-123278414D01*
X183664951Y-123467820D01*
X183789890Y-123639786D01*
X183940213Y-123790109D01*
X184112179Y-123915048D01*
X184112181Y-123915049D01*
X184112184Y-123915051D01*
X184301588Y-124011557D01*
X184503757Y-124077246D01*
X184713713Y-124110500D01*
X184713714Y-124110500D01*
X184926286Y-124110500D01*
X184926287Y-124110500D01*
X185136243Y-124077246D01*
X185338412Y-124011557D01*
X185527816Y-123915051D01*
X185614138Y-123852335D01*
X185699786Y-123790109D01*
X185699788Y-123790106D01*
X185699792Y-123790104D01*
X185850104Y-123639792D01*
X185850106Y-123639788D01*
X185850109Y-123639786D01*
X185935890Y-123521717D01*
X185975051Y-123467816D01*
X185979793Y-123458508D01*
X186027763Y-123407711D01*
X186095583Y-123390911D01*
X186161719Y-123413445D01*
X186200763Y-123458500D01*
X186205373Y-123467547D01*
X186244728Y-123521716D01*
X186877037Y-122889408D01*
X186894075Y-122952993D01*
X186959901Y-123067007D01*
X187052993Y-123160099D01*
X187167007Y-123225925D01*
X187230590Y-123242962D01*
X186598282Y-123875269D01*
X186598282Y-123875270D01*
X186652449Y-123914624D01*
X186841782Y-124011095D01*
X187043870Y-124076757D01*
X187253754Y-124110000D01*
X187466246Y-124110000D01*
X187676127Y-124076757D01*
X187676130Y-124076757D01*
X187878217Y-124011095D01*
X188067554Y-123914622D01*
X188121716Y-123875270D01*
X188121717Y-123875270D01*
X187489408Y-123242962D01*
X187552993Y-123225925D01*
X187667007Y-123160099D01*
X187760099Y-123067007D01*
X187825925Y-122952993D01*
X187842962Y-122889408D01*
X188475270Y-123521717D01*
X188475270Y-123521716D01*
X188514622Y-123467555D01*
X188519232Y-123458507D01*
X188567205Y-123407709D01*
X188635025Y-123390912D01*
X188701161Y-123413447D01*
X188740204Y-123458504D01*
X188744949Y-123467817D01*
X188869890Y-123639786D01*
X188963181Y-123733077D01*
X188996666Y-123794400D01*
X188999500Y-123820758D01*
X188999500Y-124675638D01*
X188979815Y-124742677D01*
X188963181Y-124763319D01*
X185663319Y-128063181D01*
X185601996Y-128096666D01*
X185575638Y-128099500D01*
X179424362Y-128099500D01*
X179357323Y-128079815D01*
X179336681Y-128063181D01*
X172936819Y-121663319D01*
X172903334Y-121601996D01*
X172900500Y-121575638D01*
X172900500Y-116424499D01*
X172920185Y-116357460D01*
X172972989Y-116311705D01*
X173024500Y-116300499D01*
X173100002Y-116300499D01*
X173100008Y-116300499D01*
X173202797Y-116289999D01*
X173369334Y-116234814D01*
X173518656Y-116142712D01*
X173642712Y-116018656D01*
X173694755Y-115934279D01*
X173746701Y-115887556D01*
X173815664Y-115876333D01*
X173879746Y-115904176D01*
X173905831Y-115934280D01*
X173957680Y-116018340D01*
X173957683Y-116018344D01*
X174081654Y-116142315D01*
X174230875Y-116234356D01*
X174230880Y-116234358D01*
X174397302Y-116289505D01*
X174397309Y-116289506D01*
X174500019Y-116299999D01*
X175349999Y-116299999D01*
X175850000Y-116299999D01*
X176699972Y-116299999D01*
X176699986Y-116299998D01*
X176802697Y-116289505D01*
X176969119Y-116234358D01*
X176969124Y-116234356D01*
X177118345Y-116142315D01*
X177242315Y-116018345D01*
X177334356Y-115869124D01*
X177334358Y-115869119D01*
X177389505Y-115702697D01*
X177389506Y-115702690D01*
X177399999Y-115599986D01*
X177400000Y-115599973D01*
X177400000Y-115250000D01*
X175850000Y-115250000D01*
X175850000Y-116299999D01*
X175349999Y-116299999D01*
X175350000Y-116299998D01*
X175350000Y-114750000D01*
X175850000Y-114750000D01*
X177399999Y-114750000D01*
X177399999Y-114400028D01*
X177399998Y-114400013D01*
X177389505Y-114297302D01*
X177334358Y-114130880D01*
X177334356Y-114130875D01*
X177242315Y-113981654D01*
X177118345Y-113857684D01*
X176969124Y-113765643D01*
X176969119Y-113765641D01*
X176802697Y-113710494D01*
X176802690Y-113710493D01*
X176699986Y-113700000D01*
X175850000Y-113700000D01*
X175850000Y-114750000D01*
X175350000Y-114750000D01*
X175350000Y-113700000D01*
X174500028Y-113700000D01*
X174500012Y-113700001D01*
X174397302Y-113710494D01*
X174230880Y-113765641D01*
X174230875Y-113765643D01*
X174081654Y-113857684D01*
X173957682Y-113981656D01*
X173905831Y-114065720D01*
X173853883Y-114112444D01*
X173784920Y-114123665D01*
X173720838Y-114095822D01*
X173694754Y-114065718D01*
X173642712Y-113981344D01*
X173518657Y-113857289D01*
X173518656Y-113857288D01*
X173375508Y-113768994D01*
X173369336Y-113765187D01*
X173369331Y-113765185D01*
X173367862Y-113764698D01*
X173202797Y-113710001D01*
X173202795Y-113710000D01*
X173100016Y-113699500D01*
X173100009Y-113699500D01*
X173024500Y-113699500D01*
X172957461Y-113679815D01*
X172911706Y-113627011D01*
X172900500Y-113575500D01*
X172900500Y-112929993D01*
X172900499Y-112929989D01*
X172874289Y-112798221D01*
X172865895Y-112756020D01*
X172827317Y-112662886D01*
X172798013Y-112592139D01*
X172728676Y-112488370D01*
X172699464Y-112444650D01*
X171828267Y-111573453D01*
X170953353Y-110698538D01*
X170953348Y-110698534D01*
X170896195Y-110660346D01*
X170896191Y-110660343D01*
X170891462Y-110657184D01*
X170805861Y-110599987D01*
X170723920Y-110566046D01*
X170717920Y-110563560D01*
X170717917Y-110563559D01*
X170641980Y-110532105D01*
X170641972Y-110532103D01*
X170468010Y-110497500D01*
X170468006Y-110497500D01*
X170468005Y-110497500D01*
X168822362Y-110497500D01*
X168755323Y-110477815D01*
X168734681Y-110461181D01*
X168574035Y-110300535D01*
X168574030Y-110300531D01*
X168519622Y-110264178D01*
X168519616Y-110264175D01*
X168514959Y-110261063D01*
X168426547Y-110201987D01*
X168344606Y-110168046D01*
X168282993Y-110142525D01*
X168262666Y-110134105D01*
X168262658Y-110134103D01*
X168088696Y-110099500D01*
X168088692Y-110099500D01*
X168088691Y-110099500D01*
X167088692Y-110099500D01*
X166911309Y-110099500D01*
X166911304Y-110099500D01*
X166737341Y-110134103D01*
X166737333Y-110134105D01*
X166644997Y-110172352D01*
X166644993Y-110172354D01*
X166637401Y-110175499D01*
X166573453Y-110201987D01*
X166443499Y-110288820D01*
X166440215Y-110291013D01*
X166440212Y-110291016D01*
X166425962Y-110300537D01*
X166425961Y-110300538D01*
X165300540Y-111425958D01*
X165300537Y-111425961D01*
X165271766Y-111469020D01*
X165271758Y-111469032D01*
X165269263Y-111472768D01*
X165201987Y-111573453D01*
X165176736Y-111634415D01*
X165173794Y-111641517D01*
X165173792Y-111641521D01*
X165134106Y-111737331D01*
X165134103Y-111737341D01*
X165107388Y-111871650D01*
X165099500Y-111911304D01*
X165099500Y-113575638D01*
X165079815Y-113642677D01*
X165063181Y-113663319D01*
X162300538Y-116425961D01*
X162293524Y-116436458D01*
X162293519Y-116436465D01*
X162291760Y-116439099D01*
X162201987Y-116573453D01*
X162183148Y-116618936D01*
X162179699Y-116627261D01*
X162179695Y-116627269D01*
X162134105Y-116737333D01*
X162134103Y-116737341D01*
X162103776Y-116889801D01*
X162103777Y-116889802D01*
X162099500Y-116911306D01*
X162099500Y-120075500D01*
X162079815Y-120142539D01*
X162027011Y-120188294D01*
X161975500Y-120199500D01*
X160924361Y-120199500D01*
X160857322Y-120179815D01*
X160836680Y-120163181D01*
X160333813Y-119660314D01*
X160300328Y-119598991D01*
X160305312Y-119529299D01*
X160319563Y-119502020D01*
X160342007Y-119469626D01*
X160435096Y-119264683D01*
X160490096Y-119046412D01*
X160500500Y-118914217D01*
X160500499Y-117285784D01*
X160490096Y-117153588D01*
X160478427Y-117107280D01*
X160435097Y-116935321D01*
X160435096Y-116935318D01*
X160435094Y-116935314D01*
X160342007Y-116730374D01*
X160270576Y-116627269D01*
X160213825Y-116545354D01*
X160213822Y-116545350D01*
X160213819Y-116545346D01*
X160054654Y-116386181D01*
X160054650Y-116386178D01*
X160054645Y-116386174D01*
X159869632Y-116257997D01*
X159869630Y-116257995D01*
X159869626Y-116257993D01*
X159817587Y-116234356D01*
X159664681Y-116164903D01*
X159664678Y-116164902D01*
X159446420Y-116109905D01*
X159446413Y-116109904D01*
X159402347Y-116106436D01*
X159314217Y-116099500D01*
X159314215Y-116099500D01*
X155685791Y-116099500D01*
X155685776Y-116099501D01*
X155553586Y-116109904D01*
X155553579Y-116109905D01*
X155335321Y-116164902D01*
X155335318Y-116164903D01*
X155130377Y-116257991D01*
X155130367Y-116257997D01*
X154945354Y-116386174D01*
X154945342Y-116386184D01*
X154786184Y-116545342D01*
X154786174Y-116545354D01*
X154657997Y-116730367D01*
X154657991Y-116730377D01*
X154564903Y-116935318D01*
X154564902Y-116935321D01*
X154509905Y-117153579D01*
X154509904Y-117153586D01*
X154499500Y-117285777D01*
X154499500Y-118914208D01*
X154499501Y-118914223D01*
X154509904Y-119046413D01*
X154509905Y-119046420D01*
X154564902Y-119264678D01*
X154564903Y-119264681D01*
X154657991Y-119469622D01*
X154657997Y-119469632D01*
X154786174Y-119654645D01*
X154786178Y-119654650D01*
X154786181Y-119654654D01*
X154945346Y-119813819D01*
X154945350Y-119813822D01*
X154945354Y-119813825D01*
X155055058Y-119889828D01*
X155130374Y-119942007D01*
X155335317Y-120035096D01*
X155335321Y-120035097D01*
X155553579Y-120090094D01*
X155553581Y-120090094D01*
X155553588Y-120090096D01*
X155685783Y-120100500D01*
X158175637Y-120100499D01*
X158242676Y-120120184D01*
X158263318Y-120136818D01*
X159800536Y-121674035D01*
X159895835Y-121769334D01*
X159925966Y-121799465D01*
X160073446Y-121898009D01*
X160073459Y-121898016D01*
X160114588Y-121915052D01*
X160114589Y-121915052D01*
X160237334Y-121965895D01*
X160400158Y-121998282D01*
X160411304Y-122000499D01*
X160411308Y-122000500D01*
X160411309Y-122000500D01*
X162087770Y-122000500D01*
X162154809Y-122020185D01*
X162175451Y-122036819D01*
X162181344Y-122042712D01*
X162330666Y-122134814D01*
X162497203Y-122189999D01*
X162599991Y-122200500D01*
X163400008Y-122200499D01*
X163400016Y-122200498D01*
X163400019Y-122200498D01*
X163456302Y-122194748D01*
X163502797Y-122189999D01*
X163669334Y-122134814D01*
X163808464Y-122048997D01*
X163875853Y-122030559D01*
X163929854Y-122044054D01*
X164077740Y-122119407D01*
X164242415Y-122172914D01*
X164413429Y-122200000D01*
X164586571Y-122200000D01*
X164757584Y-122172914D01*
X164922257Y-122119408D01*
X165076525Y-122040803D01*
X165082736Y-122036289D01*
X164441301Y-121394854D01*
X164460504Y-121400000D01*
X164539496Y-121400000D01*
X164615796Y-121379556D01*
X164684205Y-121340060D01*
X164740060Y-121284205D01*
X164779556Y-121215796D01*
X164800000Y-121139496D01*
X164800000Y-121099999D01*
X164853553Y-121099999D01*
X164853553Y-121100001D01*
X165436289Y-121682737D01*
X165436289Y-121682736D01*
X165440803Y-121676525D01*
X165519408Y-121522257D01*
X165572914Y-121357584D01*
X165600000Y-121186571D01*
X165600000Y-121013428D01*
X165572914Y-120842415D01*
X165519408Y-120677742D01*
X165440801Y-120523471D01*
X165436290Y-120517262D01*
X165436289Y-120517261D01*
X164853553Y-121099999D01*
X164800000Y-121099999D01*
X164800000Y-121060504D01*
X164779556Y-120984204D01*
X164740060Y-120915795D01*
X164684205Y-120859940D01*
X164615796Y-120820444D01*
X164539496Y-120800000D01*
X164460504Y-120800000D01*
X164441300Y-120805145D01*
X165082737Y-120163709D01*
X165076525Y-120159196D01*
X164922259Y-120080592D01*
X164757584Y-120027085D01*
X164586571Y-120000000D01*
X164413429Y-120000000D01*
X164242415Y-120027085D01*
X164077736Y-120080594D01*
X164073238Y-120082457D01*
X164072473Y-120080611D01*
X164012064Y-120091926D01*
X163947337Y-120065617D01*
X163907108Y-120008490D01*
X163900500Y-119968551D01*
X163900500Y-117424361D01*
X163920185Y-117357322D01*
X163936819Y-117336680D01*
X166699461Y-114574038D01*
X166699464Y-114574035D01*
X166763031Y-114478901D01*
X166798013Y-114426547D01*
X166833031Y-114342005D01*
X166865895Y-114262666D01*
X166900500Y-114088691D01*
X166900500Y-113911308D01*
X166900500Y-112424361D01*
X166920185Y-112357322D01*
X166936819Y-112336680D01*
X167336680Y-111936819D01*
X167363607Y-111922115D01*
X167389426Y-111905523D01*
X167395626Y-111904631D01*
X167398003Y-111903334D01*
X167424361Y-111900500D01*
X167575638Y-111900500D01*
X167642677Y-111920185D01*
X167663319Y-111936819D01*
X167823966Y-112097466D01*
X167829157Y-112100934D01*
X167883040Y-112136936D01*
X167971453Y-112196013D01*
X168036174Y-112222821D01*
X168135334Y-112263895D01*
X168309303Y-112298499D01*
X168309307Y-112298500D01*
X168309308Y-112298500D01*
X168309309Y-112298500D01*
X169954952Y-112298500D01*
X170021991Y-112318185D01*
X170042633Y-112334819D01*
X171063181Y-113355367D01*
X171077884Y-113382294D01*
X171094477Y-113408113D01*
X171095368Y-113414313D01*
X171096666Y-113416690D01*
X171099500Y-113443048D01*
X171099500Y-113575500D01*
X171079815Y-113642539D01*
X171027011Y-113688294D01*
X170975502Y-113699500D01*
X170899999Y-113699500D01*
X170899980Y-113699501D01*
X170797203Y-113710000D01*
X170797200Y-113710001D01*
X170630668Y-113765185D01*
X170630663Y-113765187D01*
X170481342Y-113857289D01*
X170357289Y-113981342D01*
X170265187Y-114130663D01*
X170265185Y-114130668D01*
X170237349Y-114214670D01*
X170210001Y-114297203D01*
X170210001Y-114297204D01*
X170210000Y-114297204D01*
X170199500Y-114399983D01*
X170199500Y-115600001D01*
X170199501Y-115600018D01*
X170210000Y-115702796D01*
X170210001Y-115702799D01*
X170265115Y-115869119D01*
X170265186Y-115869334D01*
X170357288Y-116018656D01*
X170481344Y-116142712D01*
X170630666Y-116234814D01*
X170797203Y-116289999D01*
X170899991Y-116300500D01*
X170975500Y-116300499D01*
X171042538Y-116320183D01*
X171088294Y-116372986D01*
X171099500Y-116424499D01*
X171099500Y-122088696D01*
X171134103Y-122262659D01*
X171134104Y-122262663D01*
X171134105Y-122262666D01*
X171164462Y-122335952D01*
X171201987Y-122426547D01*
X171249286Y-122497334D01*
X171252883Y-122502717D01*
X171252886Y-122502723D01*
X171300537Y-122574038D01*
X178425961Y-129699462D01*
X178425964Y-129699464D01*
X178483310Y-129737781D01*
X178573453Y-129798013D01*
X178655393Y-129831953D01*
X178737334Y-129865895D01*
X178911303Y-129900499D01*
X178911307Y-129900500D01*
X178911308Y-129900500D01*
X178911309Y-129900500D01*
X180809481Y-129900500D01*
X180830726Y-129906738D01*
X180852815Y-129908318D01*
X180863598Y-129916390D01*
X180876520Y-129920185D01*
X180891019Y-129936918D01*
X180908748Y-129950190D01*
X180913455Y-129962810D01*
X180922275Y-129972989D01*
X180925426Y-129994906D01*
X180933165Y-130015654D01*
X180930302Y-130028814D01*
X180932219Y-130042147D01*
X180923019Y-130062290D01*
X180918313Y-130083927D01*
X180905044Y-130101652D01*
X180903194Y-130105703D01*
X180897162Y-130112181D01*
X180746162Y-130263181D01*
X180684839Y-130296666D01*
X180658481Y-130299500D01*
X155341519Y-130299500D01*
X155274480Y-130279815D01*
X155253838Y-130263181D01*
X144736819Y-119746162D01*
X144703334Y-119684839D01*
X144700500Y-119658481D01*
X144700500Y-102236002D01*
X144696567Y-102216237D01*
X144696566Y-102216236D01*
X144696565Y-102216227D01*
X144673580Y-102100672D01*
X144668256Y-102087819D01*
X144620777Y-101973192D01*
X144544112Y-101858454D01*
X144544111Y-101858453D01*
X136440507Y-93754850D01*
X136407022Y-93693527D01*
X136405715Y-93647771D01*
X136410482Y-93617677D01*
X136430500Y-93491287D01*
X136430500Y-93278713D01*
X136397246Y-93068757D01*
X136331557Y-92866588D01*
X136235051Y-92677184D01*
X136235049Y-92677181D01*
X136235048Y-92677179D01*
X136110109Y-92505213D01*
X135959786Y-92354890D01*
X135787820Y-92229951D01*
X135598414Y-92133444D01*
X135598413Y-92133443D01*
X135598412Y-92133443D01*
X135396243Y-92067754D01*
X135396241Y-92067753D01*
X135396240Y-92067753D01*
X135234957Y-92042208D01*
X135186287Y-92034500D01*
X134973713Y-92034500D01*
X134925042Y-92042208D01*
X134763760Y-92067753D01*
X134561585Y-92133444D01*
X134372179Y-92229951D01*
X134200213Y-92354890D01*
X134049890Y-92505213D01*
X133924949Y-92677182D01*
X133920484Y-92685946D01*
X133872509Y-92736742D01*
X133804688Y-92753536D01*
X133738553Y-92730998D01*
X133699516Y-92685946D01*
X133695050Y-92677182D01*
X133570109Y-92505213D01*
X133419786Y-92354890D01*
X133247820Y-92229951D01*
X133058414Y-92133444D01*
X133058413Y-92133443D01*
X133058412Y-92133443D01*
X132856243Y-92067754D01*
X132856241Y-92067753D01*
X132856240Y-92067753D01*
X132694957Y-92042208D01*
X132646287Y-92034500D01*
X132433713Y-92034500D01*
X132385042Y-92042208D01*
X132223760Y-92067753D01*
X132021585Y-92133444D01*
X131880795Y-92205180D01*
X131812125Y-92218076D01*
X131747385Y-92191799D01*
X131707128Y-92134693D01*
X131700500Y-92094695D01*
X131700500Y-90341519D01*
X131720185Y-90274480D01*
X131736819Y-90253838D01*
X132253838Y-89736819D01*
X132315161Y-89703334D01*
X132341519Y-89700500D01*
X137658481Y-89700500D01*
X137725520Y-89720185D01*
X137746162Y-89736819D01*
X145263181Y-97253838D01*
X145296666Y-97315161D01*
X145299500Y-97341519D01*
X145299500Y-119068992D01*
X145299499Y-119068996D01*
X145326418Y-119204322D01*
X145326421Y-119204332D01*
X145379222Y-119331807D01*
X145455887Y-119446545D01*
X145455888Y-119446546D01*
X154455886Y-128446543D01*
X155203928Y-129194585D01*
X155230808Y-129234814D01*
X155290602Y-129379172D01*
X155290609Y-129379185D01*
X155378210Y-129510288D01*
X155378213Y-129510292D01*
X155489707Y-129621786D01*
X155489711Y-129621789D01*
X155620814Y-129709390D01*
X155620827Y-129709397D01*
X155709587Y-129746162D01*
X155766503Y-129769737D01*
X155908655Y-129798013D01*
X155921153Y-129800499D01*
X155921156Y-129800500D01*
X155921158Y-129800500D01*
X156078844Y-129800500D01*
X156078845Y-129800499D01*
X156233497Y-129769737D01*
X156379179Y-129709394D01*
X156510289Y-129621789D01*
X156621789Y-129510289D01*
X156709394Y-129379179D01*
X156769737Y-129233497D01*
X156800500Y-129078842D01*
X156800500Y-128921158D01*
X156800500Y-128921155D01*
X156800499Y-128921153D01*
X156769738Y-128766510D01*
X156769737Y-128766503D01*
X156750862Y-128720934D01*
X156709397Y-128620827D01*
X156709390Y-128620814D01*
X156621789Y-128489711D01*
X156621786Y-128489707D01*
X156510292Y-128378213D01*
X156510288Y-128378210D01*
X156379185Y-128290609D01*
X156379172Y-128290602D01*
X156234814Y-128230808D01*
X156194585Y-128203928D01*
X154807975Y-126817318D01*
X154774490Y-126755995D01*
X154779474Y-126686303D01*
X154821346Y-126630370D01*
X154886810Y-126605953D01*
X154955083Y-126620805D01*
X154966272Y-126627709D01*
X155130619Y-126741568D01*
X155130625Y-126741571D01*
X155335480Y-126834622D01*
X155553667Y-126889599D01*
X155685809Y-126899999D01*
X157249999Y-126899999D01*
X157750000Y-126899999D01*
X159314182Y-126899999D01*
X159314197Y-126899998D01*
X159446332Y-126889599D01*
X159664519Y-126834622D01*
X159869374Y-126741571D01*
X159869380Y-126741568D01*
X160054323Y-126613440D01*
X160054335Y-126613430D01*
X160213430Y-126454335D01*
X160213440Y-126454323D01*
X160341568Y-126269380D01*
X160341571Y-126269374D01*
X160434622Y-126064519D01*
X160489599Y-125846332D01*
X160499999Y-125714196D01*
X160500000Y-125714184D01*
X160500000Y-125150000D01*
X157750000Y-125150000D01*
X157750000Y-126899999D01*
X157249999Y-126899999D01*
X157250000Y-126899998D01*
X157250000Y-125150000D01*
X154500001Y-125150000D01*
X154500001Y-125714197D01*
X154510400Y-125846332D01*
X154565377Y-126064519D01*
X154658427Y-126269373D01*
X154772291Y-126433727D01*
X154794287Y-126500044D01*
X154776939Y-126567726D01*
X154725753Y-126615284D01*
X154656981Y-126627619D01*
X154592457Y-126600815D01*
X154582681Y-126592024D01*
X152076460Y-124085803D01*
X154500000Y-124085803D01*
X154500000Y-124650000D01*
X157250000Y-124650000D01*
X157750000Y-124650000D01*
X160499999Y-124650000D01*
X160499999Y-124085817D01*
X160499998Y-124085802D01*
X160489599Y-123953667D01*
X160434622Y-123735480D01*
X160341571Y-123530625D01*
X160341568Y-123530619D01*
X160213440Y-123345676D01*
X160213430Y-123345664D01*
X160054335Y-123186569D01*
X160054323Y-123186559D01*
X159869380Y-123058431D01*
X159869374Y-123058428D01*
X159664519Y-122965377D01*
X159446332Y-122910400D01*
X159314196Y-122900000D01*
X157750000Y-122900000D01*
X157750000Y-124650000D01*
X157250000Y-124650000D01*
X157250000Y-122900000D01*
X155685817Y-122900000D01*
X155685802Y-122900001D01*
X155553667Y-122910400D01*
X155335480Y-122965377D01*
X155130625Y-123058428D01*
X155130619Y-123058431D01*
X154945676Y-123186559D01*
X154945664Y-123186569D01*
X154786569Y-123345664D01*
X154786559Y-123345676D01*
X154658431Y-123530619D01*
X154658428Y-123530625D01*
X154565377Y-123735480D01*
X154510400Y-123953667D01*
X154500000Y-124085803D01*
X152076460Y-124085803D01*
X146736819Y-118746162D01*
X146703334Y-118684839D01*
X146700500Y-118658481D01*
X146700500Y-96931007D01*
X146698174Y-96919317D01*
X146698174Y-96919316D01*
X146673580Y-96795672D01*
X146638029Y-96709843D01*
X146620777Y-96668192D01*
X146544112Y-96553454D01*
X143171155Y-93180497D01*
X139446543Y-89455886D01*
X138446546Y-88455888D01*
X138446545Y-88455887D01*
X138331807Y-88379222D01*
X138204332Y-88326421D01*
X138204322Y-88326418D01*
X138068996Y-88299500D01*
X138068994Y-88299500D01*
X138068993Y-88299500D01*
X132068994Y-88299500D01*
X131931006Y-88299500D01*
X131931004Y-88299500D01*
X131795677Y-88326418D01*
X131795667Y-88326421D01*
X131668192Y-88379222D01*
X131553454Y-88455887D01*
X130455887Y-89553454D01*
X130379223Y-89668192D01*
X130326421Y-89795668D01*
X130326418Y-89795680D01*
X130317934Y-89838332D01*
X130317934Y-89838333D01*
X130299500Y-89931004D01*
X130299500Y-91919917D01*
X130279815Y-91986956D01*
X130227011Y-92032711D01*
X130157853Y-92042655D01*
X130156102Y-92042390D01*
X130106287Y-92034500D01*
X129893713Y-92034500D01*
X129845042Y-92042208D01*
X129683760Y-92067753D01*
X129481585Y-92133444D01*
X129292179Y-92229951D01*
X129120213Y-92354890D01*
X128969890Y-92505213D01*
X128844949Y-92677182D01*
X128840484Y-92685946D01*
X128792509Y-92736742D01*
X128724688Y-92753536D01*
X128658553Y-92730998D01*
X128619516Y-92685946D01*
X128615050Y-92677182D01*
X128490109Y-92505213D01*
X128396819Y-92411923D01*
X128363334Y-92350600D01*
X128360500Y-92324242D01*
X128360500Y-92044361D01*
X128380185Y-91977322D01*
X128396819Y-91956680D01*
X128779463Y-91574036D01*
X128779465Y-91574033D01*
X128786237Y-91563899D01*
X128878013Y-91426547D01*
X128945894Y-91262666D01*
X128954669Y-91218554D01*
X128980499Y-91088695D01*
X128980500Y-91088693D01*
X128980500Y-88424361D01*
X129000185Y-88357322D01*
X129016819Y-88336680D01*
X138416680Y-78936819D01*
X138478003Y-78903334D01*
X138504361Y-78900500D01*
X141575638Y-78900500D01*
X141642677Y-78920185D01*
G37*
%TD.AperFunction*%
%TA.AperFunction,Conductor*%
G36*
X185801445Y-94143865D02*
G01*
X185840483Y-94188917D01*
X185884348Y-94275006D01*
X185887715Y-94281614D01*
X186008028Y-94447213D01*
X186152784Y-94591969D01*
X186248385Y-94661426D01*
X186291051Y-94716755D01*
X186299500Y-94761744D01*
X186299500Y-96658480D01*
X186279815Y-96725519D01*
X186263181Y-96746161D01*
X185455888Y-97553453D01*
X185455887Y-97553454D01*
X185379222Y-97668192D01*
X185326421Y-97795667D01*
X185326418Y-97795679D01*
X185306032Y-97898169D01*
X185306032Y-97898171D01*
X185299500Y-97931007D01*
X185299500Y-112931006D01*
X185299500Y-113068994D01*
X185299500Y-113068996D01*
X185299499Y-113068996D01*
X185326418Y-113204322D01*
X185326421Y-113204332D01*
X185379222Y-113331807D01*
X185455887Y-113446545D01*
X189553454Y-117544112D01*
X189553457Y-117544114D01*
X189668189Y-117620775D01*
X189795671Y-117673580D01*
X189805500Y-117675535D01*
X189855702Y-117685521D01*
X189931004Y-117700500D01*
X189931007Y-117700500D01*
X191418481Y-117700500D01*
X191485520Y-117720185D01*
X191506162Y-117736819D01*
X194967162Y-121197819D01*
X195000647Y-121259142D01*
X194995663Y-121328834D01*
X194953791Y-121384767D01*
X194888327Y-121409184D01*
X194879481Y-121409500D01*
X194873713Y-121409500D01*
X194825042Y-121417208D01*
X194663760Y-121442753D01*
X194461585Y-121508444D01*
X194272179Y-121604951D01*
X194100213Y-121729890D01*
X193949890Y-121880213D01*
X193824949Y-122052182D01*
X193820484Y-122060946D01*
X193772509Y-122111742D01*
X193704688Y-122128536D01*
X193638553Y-122105998D01*
X193599516Y-122060946D01*
X193595050Y-122052182D01*
X193470109Y-121880213D01*
X193319786Y-121729890D01*
X193147820Y-121604951D01*
X192958414Y-121508444D01*
X192958413Y-121508443D01*
X192958412Y-121508443D01*
X192756243Y-121442754D01*
X192756241Y-121442753D01*
X192756240Y-121442753D01*
X192594957Y-121417208D01*
X192546287Y-121409500D01*
X192333713Y-121409500D01*
X192285042Y-121417208D01*
X192123760Y-121442753D01*
X191921585Y-121508444D01*
X191732179Y-121604951D01*
X191560213Y-121729890D01*
X191409890Y-121880213D01*
X191284949Y-122052182D01*
X191280484Y-122060946D01*
X191232509Y-122111742D01*
X191164688Y-122128536D01*
X191098553Y-122105998D01*
X191059516Y-122060946D01*
X191055050Y-122052182D01*
X190930109Y-121880213D01*
X190779786Y-121729890D01*
X190607820Y-121604951D01*
X190418414Y-121508444D01*
X190418413Y-121508443D01*
X190418412Y-121508443D01*
X190216243Y-121442754D01*
X190216241Y-121442753D01*
X190216240Y-121442753D01*
X190054957Y-121417208D01*
X190006287Y-121409500D01*
X189793713Y-121409500D01*
X189745042Y-121417208D01*
X189583760Y-121442753D01*
X189381585Y-121508444D01*
X189192179Y-121604951D01*
X189020213Y-121729890D01*
X188869890Y-121880213D01*
X188744949Y-122052182D01*
X188740202Y-122061499D01*
X188692227Y-122112293D01*
X188624405Y-122129087D01*
X188558271Y-122106548D01*
X188519234Y-122061495D01*
X188514626Y-122052452D01*
X188475270Y-121998282D01*
X188475269Y-121998282D01*
X187842962Y-122630590D01*
X187825925Y-122567007D01*
X187760099Y-122452993D01*
X187667007Y-122359901D01*
X187552993Y-122294075D01*
X187489409Y-122277037D01*
X188121716Y-121644728D01*
X188067550Y-121605375D01*
X187878217Y-121508904D01*
X187676129Y-121443242D01*
X187466246Y-121410000D01*
X187253754Y-121410000D01*
X187043872Y-121443242D01*
X187043869Y-121443242D01*
X186841782Y-121508904D01*
X186652439Y-121605380D01*
X186598282Y-121644727D01*
X186598282Y-121644728D01*
X187230591Y-122277037D01*
X187167007Y-122294075D01*
X187052993Y-122359901D01*
X186959901Y-122452993D01*
X186894075Y-122567007D01*
X186877037Y-122630590D01*
X186244728Y-121998282D01*
X186244727Y-121998282D01*
X186205380Y-122052440D01*
X186205376Y-122052446D01*
X186200760Y-122061505D01*
X186152781Y-122112297D01*
X186084959Y-122129087D01*
X186018826Y-122106543D01*
X185979794Y-122061493D01*
X185975051Y-122052184D01*
X185975049Y-122052181D01*
X185975048Y-122052179D01*
X185850109Y-121880213D01*
X185699786Y-121729890D01*
X185527820Y-121604951D01*
X185338414Y-121508444D01*
X185338413Y-121508443D01*
X185338412Y-121508443D01*
X185136243Y-121442754D01*
X185136241Y-121442753D01*
X185136240Y-121442753D01*
X184974957Y-121417208D01*
X184926287Y-121409500D01*
X184734361Y-121409500D01*
X184667322Y-121389815D01*
X184646680Y-121373181D01*
X183793562Y-120520063D01*
X182936819Y-119663319D01*
X182903334Y-119601996D01*
X182900500Y-119575638D01*
X182900500Y-116911309D01*
X182900499Y-116911306D01*
X182896223Y-116889802D01*
X182896223Y-116889801D01*
X182865896Y-116737341D01*
X182865895Y-116737334D01*
X182829939Y-116650529D01*
X182820500Y-116603076D01*
X182820500Y-94590047D01*
X182840185Y-94523008D01*
X182856819Y-94502366D01*
X182882099Y-94477086D01*
X182911966Y-94447219D01*
X182911968Y-94447215D01*
X182911971Y-94447213D01*
X183032284Y-94281614D01*
X183032286Y-94281611D01*
X183032287Y-94281610D01*
X183079516Y-94188917D01*
X183127489Y-94138123D01*
X183195310Y-94121328D01*
X183261445Y-94143865D01*
X183300483Y-94188917D01*
X183344348Y-94275006D01*
X183347715Y-94281614D01*
X183468028Y-94447213D01*
X183612786Y-94591971D01*
X183754190Y-94694705D01*
X183778390Y-94712287D01*
X183875455Y-94761744D01*
X183960776Y-94805218D01*
X183960778Y-94805218D01*
X183960781Y-94805220D01*
X184065137Y-94839127D01*
X184155465Y-94868477D01*
X184226867Y-94879786D01*
X184357648Y-94900500D01*
X184357649Y-94900500D01*
X184562351Y-94900500D01*
X184562352Y-94900500D01*
X184764534Y-94868477D01*
X184959219Y-94805220D01*
X185141610Y-94712287D01*
X185279123Y-94612379D01*
X185307213Y-94591971D01*
X185307215Y-94591968D01*
X185307219Y-94591966D01*
X185451966Y-94447219D01*
X185451968Y-94447215D01*
X185451971Y-94447213D01*
X185572284Y-94281614D01*
X185572286Y-94281611D01*
X185572287Y-94281610D01*
X185619516Y-94188917D01*
X185667489Y-94138123D01*
X185735310Y-94121328D01*
X185801445Y-94143865D01*
G37*
%TD.AperFunction*%
%TA.AperFunction,Conductor*%
G36*
X198455520Y-76450185D02*
G01*
X198476162Y-76466819D01*
X232263181Y-110253838D01*
X232296666Y-110315161D01*
X232299500Y-110341519D01*
X232299500Y-112931006D01*
X232299500Y-113068994D01*
X232299500Y-113068996D01*
X232299499Y-113068996D01*
X232326418Y-113204322D01*
X232326420Y-113204328D01*
X232365135Y-113297795D01*
X232370061Y-113309686D01*
X232379500Y-113357139D01*
X232379500Y-121285500D01*
X232359815Y-121352539D01*
X232307011Y-121398294D01*
X232255502Y-121409500D01*
X232182130Y-121409500D01*
X232182123Y-121409501D01*
X232122516Y-121415908D01*
X231987671Y-121466202D01*
X231987664Y-121466206D01*
X231872455Y-121552452D01*
X231872452Y-121552455D01*
X231786206Y-121667664D01*
X231786203Y-121667669D01*
X231737189Y-121799083D01*
X231695317Y-121855016D01*
X231629853Y-121879433D01*
X231561580Y-121864581D01*
X231533326Y-121843430D01*
X231419786Y-121729890D01*
X231247820Y-121604951D01*
X231058414Y-121508444D01*
X231058413Y-121508443D01*
X231058412Y-121508443D01*
X230856243Y-121442754D01*
X230856241Y-121442753D01*
X230856240Y-121442753D01*
X230694957Y-121417208D01*
X230646287Y-121409500D01*
X230433713Y-121409500D01*
X230385042Y-121417208D01*
X230223760Y-121442753D01*
X230021585Y-121508444D01*
X229832179Y-121604951D01*
X229660213Y-121729890D01*
X229509890Y-121880213D01*
X229384949Y-122052182D01*
X229380484Y-122060946D01*
X229332509Y-122111742D01*
X229264688Y-122128536D01*
X229198553Y-122105998D01*
X229159516Y-122060946D01*
X229155050Y-122052182D01*
X229030109Y-121880213D01*
X228879786Y-121729890D01*
X228707820Y-121604951D01*
X228518414Y-121508444D01*
X228518413Y-121508443D01*
X228518412Y-121508443D01*
X228316243Y-121442754D01*
X228316241Y-121442753D01*
X228316240Y-121442753D01*
X228154957Y-121417208D01*
X228106287Y-121409500D01*
X227893713Y-121409500D01*
X227845042Y-121417208D01*
X227683760Y-121442753D01*
X227481585Y-121508444D01*
X227292179Y-121604951D01*
X227120213Y-121729890D01*
X226969890Y-121880213D01*
X226844949Y-122052182D01*
X226840484Y-122060946D01*
X226792509Y-122111742D01*
X226724688Y-122128536D01*
X226658553Y-122105998D01*
X226619516Y-122060946D01*
X226615050Y-122052182D01*
X226490109Y-121880213D01*
X226339786Y-121729890D01*
X226167820Y-121604951D01*
X225978414Y-121508444D01*
X225978413Y-121508443D01*
X225978412Y-121508443D01*
X225776243Y-121442754D01*
X225776241Y-121442753D01*
X225776240Y-121442753D01*
X225614957Y-121417208D01*
X225566287Y-121409500D01*
X225353713Y-121409500D01*
X225305042Y-121417208D01*
X225143760Y-121442753D01*
X224941585Y-121508444D01*
X224752179Y-121604951D01*
X224580213Y-121729890D01*
X224429890Y-121880213D01*
X224304949Y-122052182D01*
X224300484Y-122060946D01*
X224252509Y-122111742D01*
X224184688Y-122128536D01*
X224118553Y-122105998D01*
X224079516Y-122060946D01*
X224075050Y-122052182D01*
X223950109Y-121880213D01*
X223799786Y-121729890D01*
X223627820Y-121604951D01*
X223438414Y-121508444D01*
X223438413Y-121508443D01*
X223438412Y-121508443D01*
X223236243Y-121442754D01*
X223236241Y-121442753D01*
X223236240Y-121442753D01*
X223074957Y-121417208D01*
X223026287Y-121409500D01*
X222813713Y-121409500D01*
X222765042Y-121417208D01*
X222603760Y-121442753D01*
X222401585Y-121508444D01*
X222212179Y-121604951D01*
X222040213Y-121729890D01*
X221889890Y-121880213D01*
X221764949Y-122052182D01*
X221760484Y-122060946D01*
X221712509Y-122111742D01*
X221644688Y-122128536D01*
X221578553Y-122105998D01*
X221539516Y-122060946D01*
X221535050Y-122052182D01*
X221410109Y-121880213D01*
X221259786Y-121729890D01*
X221087820Y-121604951D01*
X220898414Y-121508444D01*
X220898413Y-121508443D01*
X220898412Y-121508443D01*
X220696243Y-121442754D01*
X220696241Y-121442753D01*
X220696240Y-121442753D01*
X220534957Y-121417208D01*
X220486287Y-121409500D01*
X220273713Y-121409500D01*
X220225042Y-121417208D01*
X220063760Y-121442753D01*
X219861585Y-121508444D01*
X219672179Y-121604951D01*
X219500213Y-121729890D01*
X219349890Y-121880213D01*
X219224949Y-122052182D01*
X219220484Y-122060946D01*
X219172509Y-122111742D01*
X219104688Y-122128536D01*
X219038553Y-122105998D01*
X218999516Y-122060946D01*
X218995050Y-122052182D01*
X218870109Y-121880213D01*
X218719786Y-121729890D01*
X218547820Y-121604951D01*
X218358414Y-121508444D01*
X218358413Y-121508443D01*
X218358412Y-121508443D01*
X218156243Y-121442754D01*
X218156241Y-121442753D01*
X218156240Y-121442753D01*
X217994957Y-121417208D01*
X217946287Y-121409500D01*
X217733713Y-121409500D01*
X217685042Y-121417208D01*
X217523760Y-121442753D01*
X217321585Y-121508444D01*
X217132179Y-121604951D01*
X216960213Y-121729890D01*
X216809890Y-121880213D01*
X216684949Y-122052182D01*
X216680484Y-122060946D01*
X216632509Y-122111742D01*
X216564688Y-122128536D01*
X216498553Y-122105998D01*
X216459516Y-122060946D01*
X216455050Y-122052182D01*
X216330109Y-121880213D01*
X216179786Y-121729890D01*
X216007820Y-121604951D01*
X215818414Y-121508444D01*
X215818413Y-121508443D01*
X215818412Y-121508443D01*
X215616243Y-121442754D01*
X215616241Y-121442753D01*
X215616240Y-121442753D01*
X215454957Y-121417208D01*
X215406287Y-121409500D01*
X215193713Y-121409500D01*
X215145042Y-121417208D01*
X214983760Y-121442753D01*
X214781585Y-121508444D01*
X214592179Y-121604951D01*
X214420213Y-121729890D01*
X214269890Y-121880213D01*
X214144949Y-122052182D01*
X214140484Y-122060946D01*
X214092509Y-122111742D01*
X214024688Y-122128536D01*
X213958553Y-122105998D01*
X213919516Y-122060946D01*
X213915050Y-122052182D01*
X213790109Y-121880213D01*
X213639786Y-121729890D01*
X213467820Y-121604951D01*
X213278414Y-121508444D01*
X213278413Y-121508443D01*
X213278412Y-121508443D01*
X213076243Y-121442754D01*
X213076241Y-121442753D01*
X213076240Y-121442753D01*
X212914957Y-121417208D01*
X212866287Y-121409500D01*
X212653713Y-121409500D01*
X212605042Y-121417208D01*
X212443760Y-121442753D01*
X212241585Y-121508444D01*
X212052179Y-121604951D01*
X211880213Y-121729890D01*
X211729890Y-121880213D01*
X211604949Y-122052182D01*
X211600484Y-122060946D01*
X211552509Y-122111742D01*
X211484688Y-122128536D01*
X211418553Y-122105998D01*
X211379516Y-122060946D01*
X211375050Y-122052182D01*
X211250109Y-121880213D01*
X211099786Y-121729890D01*
X210927820Y-121604951D01*
X210738414Y-121508444D01*
X210738413Y-121508443D01*
X210738412Y-121508443D01*
X210536243Y-121442754D01*
X210536241Y-121442753D01*
X210536240Y-121442753D01*
X210374957Y-121417208D01*
X210326287Y-121409500D01*
X210113713Y-121409500D01*
X210065042Y-121417208D01*
X209903760Y-121442753D01*
X209701585Y-121508444D01*
X209512179Y-121604951D01*
X209340213Y-121729890D01*
X209189890Y-121880213D01*
X209064949Y-122052182D01*
X209060484Y-122060946D01*
X209012509Y-122111742D01*
X208944688Y-122128536D01*
X208878553Y-122105998D01*
X208839516Y-122060946D01*
X208835050Y-122052182D01*
X208710109Y-121880213D01*
X208559786Y-121729890D01*
X208387820Y-121604951D01*
X208198414Y-121508444D01*
X208198413Y-121508443D01*
X208198412Y-121508443D01*
X207996243Y-121442754D01*
X207996241Y-121442753D01*
X207996240Y-121442753D01*
X207834957Y-121417208D01*
X207786287Y-121409500D01*
X207573713Y-121409500D01*
X207525042Y-121417208D01*
X207363760Y-121442753D01*
X207161585Y-121508444D01*
X206972179Y-121604951D01*
X206800213Y-121729890D01*
X206649890Y-121880213D01*
X206524949Y-122052182D01*
X206520484Y-122060946D01*
X206472509Y-122111742D01*
X206404688Y-122128536D01*
X206338553Y-122105998D01*
X206299516Y-122060946D01*
X206295050Y-122052182D01*
X206170109Y-121880213D01*
X206019786Y-121729890D01*
X205847820Y-121604951D01*
X205658414Y-121508444D01*
X205658413Y-121508443D01*
X205658412Y-121508443D01*
X205456243Y-121442754D01*
X205456241Y-121442753D01*
X205456240Y-121442753D01*
X205294957Y-121417208D01*
X205246287Y-121409500D01*
X205033713Y-121409500D01*
X204985042Y-121417208D01*
X204823760Y-121442753D01*
X204621585Y-121508444D01*
X204432179Y-121604951D01*
X204260213Y-121729890D01*
X204109890Y-121880213D01*
X203984949Y-122052182D01*
X203980484Y-122060946D01*
X203932509Y-122111742D01*
X203864688Y-122128536D01*
X203798553Y-122105998D01*
X203759516Y-122060946D01*
X203755050Y-122052182D01*
X203630109Y-121880213D01*
X203479786Y-121729890D01*
X203307820Y-121604951D01*
X203118414Y-121508444D01*
X203118413Y-121508443D01*
X203118412Y-121508443D01*
X202916243Y-121442754D01*
X202916241Y-121442753D01*
X202916240Y-121442753D01*
X202754957Y-121417208D01*
X202706287Y-121409500D01*
X202493713Y-121409500D01*
X202445042Y-121417208D01*
X202283760Y-121442753D01*
X202081585Y-121508444D01*
X201892179Y-121604951D01*
X201720213Y-121729890D01*
X201569890Y-121880213D01*
X201444949Y-122052182D01*
X201440484Y-122060946D01*
X201392509Y-122111742D01*
X201324688Y-122128536D01*
X201258553Y-122105998D01*
X201219516Y-122060946D01*
X201215050Y-122052182D01*
X201090109Y-121880213D01*
X200939786Y-121729890D01*
X200767820Y-121604951D01*
X200578414Y-121508444D01*
X200578413Y-121508443D01*
X200578412Y-121508443D01*
X200376243Y-121442754D01*
X200376241Y-121442753D01*
X200376240Y-121442753D01*
X200214957Y-121417208D01*
X200166287Y-121409500D01*
X199953713Y-121409500D01*
X199797227Y-121434284D01*
X199727934Y-121425329D01*
X199690149Y-121399492D01*
X191736819Y-113446162D01*
X191703334Y-113384839D01*
X191700500Y-113358481D01*
X191700500Y-90931006D01*
X191691539Y-90885961D01*
X191684924Y-90852704D01*
X191684389Y-90850016D01*
X191680361Y-90829767D01*
X191673580Y-90795672D01*
X191620775Y-90668189D01*
X191544114Y-90553457D01*
X191544112Y-90553454D01*
X190446546Y-89455888D01*
X190446543Y-89455886D01*
X190331807Y-89379222D01*
X190204332Y-89326421D01*
X190204322Y-89326418D01*
X190068996Y-89299500D01*
X190068994Y-89299500D01*
X190068993Y-89299500D01*
X187931007Y-89299500D01*
X187931005Y-89299500D01*
X187795677Y-89326418D01*
X187795667Y-89326421D01*
X187668192Y-89379222D01*
X187553457Y-89455886D01*
X187553453Y-89455888D01*
X185054721Y-91954620D01*
X184993398Y-91988105D01*
X184928722Y-91984870D01*
X184764536Y-91931523D01*
X184640119Y-91911817D01*
X184576984Y-91881888D01*
X184540053Y-91822576D01*
X184541051Y-91752713D01*
X184571834Y-91701665D01*
X188336680Y-87936818D01*
X188398003Y-87903334D01*
X188424361Y-87900500D01*
X190088693Y-87900500D01*
X190088694Y-87900499D01*
X190262666Y-87865895D01*
X190344606Y-87831953D01*
X190426547Y-87798013D01*
X190517359Y-87737334D01*
X190574036Y-87699464D01*
X193389463Y-84884036D01*
X193389464Y-84884035D01*
X193488013Y-84736547D01*
X193555894Y-84572666D01*
X193561760Y-84543179D01*
X193585460Y-84424030D01*
X193590500Y-84398691D01*
X193590500Y-79514174D01*
X193610185Y-79447135D01*
X193640186Y-79414909D01*
X193751546Y-79331546D01*
X193837796Y-79216331D01*
X193844083Y-79199473D01*
X193885952Y-79143539D01*
X193951416Y-79119120D01*
X194019689Y-79133970D01*
X194069096Y-79183374D01*
X194076447Y-79199469D01*
X194082644Y-79216083D01*
X194082649Y-79216093D01*
X194168809Y-79331187D01*
X194168812Y-79331190D01*
X194283906Y-79417350D01*
X194283913Y-79417354D01*
X194418620Y-79467596D01*
X194418627Y-79467598D01*
X194478155Y-79473999D01*
X194478172Y-79474000D01*
X194980000Y-79474000D01*
X194980000Y-78645277D01*
X195056306Y-78689333D01*
X195170756Y-78720000D01*
X195289244Y-78720000D01*
X195403694Y-78689333D01*
X195480000Y-78645277D01*
X195480000Y-79474000D01*
X195981828Y-79474000D01*
X195981844Y-79473999D01*
X196041372Y-79467598D01*
X196041379Y-79467596D01*
X196176086Y-79417354D01*
X196176093Y-79417350D01*
X196291187Y-79331190D01*
X196291190Y-79331187D01*
X196377350Y-79216093D01*
X196377354Y-79216086D01*
X196427596Y-79081379D01*
X196427598Y-79081372D01*
X196433999Y-79021844D01*
X196434000Y-79021827D01*
X196434000Y-78520000D01*
X195605278Y-78520000D01*
X195649333Y-78443694D01*
X195680000Y-78329244D01*
X195680000Y-78210756D01*
X195649333Y-78096306D01*
X195605278Y-78020000D01*
X196434000Y-78020000D01*
X196434000Y-77518172D01*
X196433999Y-77518155D01*
X196427598Y-77458627D01*
X196427596Y-77458620D01*
X196377354Y-77323913D01*
X196377350Y-77323906D01*
X196291190Y-77208812D01*
X196291187Y-77208809D01*
X196176093Y-77122649D01*
X196176083Y-77122644D01*
X196159469Y-77116447D01*
X196103536Y-77074575D01*
X196079120Y-77009111D01*
X196093973Y-76940838D01*
X196143378Y-76891433D01*
X196159471Y-76884084D01*
X196176331Y-76877796D01*
X196291546Y-76791546D01*
X196377796Y-76676331D01*
X196428091Y-76541483D01*
X196428117Y-76541242D01*
X196428189Y-76541066D01*
X196429874Y-76533938D01*
X196431029Y-76534211D01*
X196454856Y-76476692D01*
X196512249Y-76436845D01*
X196551406Y-76430500D01*
X198388481Y-76430500D01*
X198455520Y-76450185D01*
G37*
%TD.AperFunction*%
%TA.AperFunction,Conductor*%
G36*
X226170000Y-95350000D02*
G01*
X226817828Y-95350000D01*
X226817844Y-95349999D01*
X226877372Y-95343598D01*
X226877379Y-95343596D01*
X227012086Y-95293354D01*
X227012093Y-95293350D01*
X227127187Y-95207190D01*
X227127190Y-95207187D01*
X227213350Y-95092093D01*
X227213354Y-95092086D01*
X227262422Y-94960529D01*
X227304293Y-94904595D01*
X227369757Y-94880178D01*
X227438030Y-94895030D01*
X227466285Y-94916181D01*
X227580213Y-95030109D01*
X227752179Y-95155048D01*
X227752181Y-95155049D01*
X227752184Y-95155051D01*
X227941588Y-95251557D01*
X228143757Y-95317246D01*
X228353713Y-95350500D01*
X228353714Y-95350500D01*
X228566286Y-95350500D01*
X228566287Y-95350500D01*
X228776243Y-95317246D01*
X228978412Y-95251557D01*
X229167816Y-95155051D01*
X229254471Y-95092093D01*
X229339786Y-95030109D01*
X229339788Y-95030106D01*
X229339792Y-95030104D01*
X229490104Y-94879792D01*
X229490106Y-94879788D01*
X229490109Y-94879786D01*
X229615048Y-94707820D01*
X229615047Y-94707820D01*
X229615051Y-94707816D01*
X229619514Y-94699054D01*
X229667488Y-94648259D01*
X229735308Y-94631463D01*
X229801444Y-94653999D01*
X229840486Y-94699056D01*
X229844951Y-94707820D01*
X229969890Y-94879786D01*
X230120213Y-95030109D01*
X230292179Y-95155048D01*
X230292181Y-95155049D01*
X230292184Y-95155051D01*
X230481588Y-95251557D01*
X230683757Y-95317246D01*
X230893713Y-95350500D01*
X230893714Y-95350500D01*
X231106286Y-95350500D01*
X231106287Y-95350500D01*
X231262771Y-95325715D01*
X231332064Y-95334670D01*
X231369850Y-95360507D01*
X238097161Y-102087819D01*
X238130646Y-102149142D01*
X238125662Y-102218834D01*
X238083790Y-102274767D01*
X238018326Y-102299184D01*
X238009480Y-102299500D01*
X232474305Y-102299500D01*
X232407266Y-102279815D01*
X232386624Y-102263181D01*
X225659402Y-95535959D01*
X225625917Y-95474636D01*
X225630901Y-95404944D01*
X225659403Y-95360596D01*
X225670000Y-95349999D01*
X225670000Y-94433012D01*
X225727007Y-94465925D01*
X225854174Y-94500000D01*
X225985826Y-94500000D01*
X226112993Y-94465925D01*
X226170000Y-94433012D01*
X226170000Y-95350000D01*
G37*
%TD.AperFunction*%
%TA.AperFunction,Conductor*%
G36*
X207642677Y-65920185D02*
G01*
X207663319Y-65936819D01*
X216422344Y-74695845D01*
X216422347Y-74695847D01*
X216425964Y-74699464D01*
X216472768Y-74730737D01*
X216473529Y-74731245D01*
X216473563Y-74731269D01*
X216551978Y-74783664D01*
X216573453Y-74798013D01*
X216621270Y-74817819D01*
X216650480Y-74829918D01*
X216650481Y-74829919D01*
X216686457Y-74844820D01*
X216737334Y-74865895D01*
X216911303Y-74900499D01*
X216911307Y-74900500D01*
X216911308Y-74900500D01*
X216911309Y-74900500D01*
X220575638Y-74900500D01*
X220642677Y-74920185D01*
X220663319Y-74936819D01*
X225333181Y-79606680D01*
X225366666Y-79668003D01*
X225369500Y-79694361D01*
X225369500Y-81358696D01*
X225388471Y-81454068D01*
X225404105Y-81532666D01*
X225431339Y-81598413D01*
X225471987Y-81696547D01*
X225531063Y-81784959D01*
X225534437Y-81790009D01*
X225534441Y-81790016D01*
X225570534Y-81844034D01*
X226063181Y-82336681D01*
X226096666Y-82398004D01*
X226099500Y-82424362D01*
X226099500Y-90088696D01*
X226132349Y-90253838D01*
X226134105Y-90262666D01*
X226162746Y-90331811D01*
X226201987Y-90426547D01*
X226221591Y-90455886D01*
X226226384Y-90463060D01*
X226226386Y-90463063D01*
X226300532Y-90574031D01*
X226300538Y-90574039D01*
X227523181Y-91796681D01*
X227556666Y-91858004D01*
X227559500Y-91884362D01*
X227559500Y-92939242D01*
X227550855Y-92968679D01*
X227544332Y-92998670D01*
X227540577Y-93003685D01*
X227539815Y-93006281D01*
X227523181Y-93026923D01*
X227523180Y-93026924D01*
X227466284Y-93083819D01*
X227404961Y-93117303D01*
X227335269Y-93112318D01*
X227279336Y-93070447D01*
X227262422Y-93039470D01*
X227213354Y-92907913D01*
X227213350Y-92907906D01*
X227127190Y-92792812D01*
X227127187Y-92792809D01*
X227012093Y-92706649D01*
X227012086Y-92706645D01*
X226877379Y-92656403D01*
X226877372Y-92656401D01*
X226817844Y-92650000D01*
X226170000Y-92650000D01*
X226170000Y-93566988D01*
X226112993Y-93534075D01*
X225985826Y-93500000D01*
X225854174Y-93500000D01*
X225727007Y-93534075D01*
X225670000Y-93566988D01*
X225670000Y-92650000D01*
X225022155Y-92650000D01*
X224962627Y-92656401D01*
X224962620Y-92656403D01*
X224827913Y-92706645D01*
X224827906Y-92706649D01*
X224712812Y-92792809D01*
X224712809Y-92792812D01*
X224626649Y-92907906D01*
X224626645Y-92907913D01*
X224576403Y-93042620D01*
X224576401Y-93042627D01*
X224570000Y-93102155D01*
X224570000Y-93750000D01*
X225486988Y-93750000D01*
X225454075Y-93807007D01*
X225420000Y-93934174D01*
X225420000Y-94065826D01*
X225454075Y-94192993D01*
X225486988Y-94250000D01*
X224569999Y-94250000D01*
X224559401Y-94260598D01*
X224498078Y-94294082D01*
X224428386Y-94289097D01*
X224384040Y-94260597D01*
X210736819Y-80613376D01*
X210703334Y-80552053D01*
X210700500Y-80525695D01*
X210700500Y-79931011D01*
X210700500Y-79931007D01*
X210699399Y-79925474D01*
X210673580Y-79795672D01*
X210645120Y-79726963D01*
X210620777Y-79668192D01*
X210544112Y-79553454D01*
X209736819Y-78746161D01*
X209703334Y-78684838D01*
X209700500Y-78658480D01*
X209700500Y-73931006D01*
X209692442Y-73890500D01*
X209692442Y-73890497D01*
X209676584Y-73810775D01*
X209673580Y-73795672D01*
X209653085Y-73746192D01*
X209620777Y-73668192D01*
X209544112Y-73553454D01*
X202446545Y-66455887D01*
X202331807Y-66379222D01*
X202204332Y-66326421D01*
X202204322Y-66326418D01*
X202068996Y-66299500D01*
X202068994Y-66299500D01*
X202068993Y-66299500D01*
X189931007Y-66299500D01*
X189931005Y-66299500D01*
X189795677Y-66326418D01*
X189795667Y-66326421D01*
X189668192Y-66379222D01*
X189553454Y-66455887D01*
X187455887Y-68553454D01*
X187379222Y-68668192D01*
X187326421Y-68795667D01*
X187326418Y-68795678D01*
X187300635Y-68925301D01*
X187299935Y-68928822D01*
X187299500Y-68931007D01*
X187299500Y-73931006D01*
X187299500Y-74068994D01*
X187299500Y-74068996D01*
X187299499Y-74068996D01*
X187326418Y-74204322D01*
X187326421Y-74204332D01*
X187379222Y-74331807D01*
X187455887Y-74446545D01*
X187455888Y-74446546D01*
X189185886Y-76176542D01*
X189248155Y-76238811D01*
X189283459Y-76274115D01*
X189398182Y-76350771D01*
X189398189Y-76350775D01*
X189469107Y-76380150D01*
X189525671Y-76403580D01*
X189531448Y-76404729D01*
X189625707Y-76423478D01*
X189661005Y-76430500D01*
X189661007Y-76430500D01*
X191368594Y-76430500D01*
X191435633Y-76450185D01*
X191481388Y-76502989D01*
X191489891Y-76533986D01*
X191490124Y-76533932D01*
X191491663Y-76540444D01*
X191491883Y-76541250D01*
X191491900Y-76541406D01*
X191491909Y-76541486D01*
X191542202Y-76676328D01*
X191542206Y-76676335D01*
X191628452Y-76791544D01*
X191628455Y-76791547D01*
X191743664Y-76877793D01*
X191743666Y-76877794D01*
X191743669Y-76877796D01*
X191752478Y-76881081D01*
X191759814Y-76883818D01*
X191815747Y-76925690D01*
X191840164Y-76991155D01*
X191825312Y-77059427D01*
X191775906Y-77108832D01*
X191759814Y-77116182D01*
X191743670Y-77122203D01*
X191743664Y-77122206D01*
X191628455Y-77208452D01*
X191628452Y-77208455D01*
X191545091Y-77319811D01*
X191489157Y-77361682D01*
X191445825Y-77369500D01*
X182694362Y-77369500D01*
X182627323Y-77349815D01*
X182606681Y-77333181D01*
X181936819Y-76663319D01*
X181903334Y-76601996D01*
X181900500Y-76575638D01*
X181900500Y-69424361D01*
X181920185Y-69357322D01*
X181936819Y-69336680D01*
X185336680Y-65936819D01*
X185398003Y-65903334D01*
X185424361Y-65900500D01*
X207575638Y-65900500D01*
X207642677Y-65920185D01*
G37*
%TD.AperFunction*%
%TA.AperFunction,Conductor*%
G36*
X219931693Y-57070287D02*
G01*
X219933449Y-57070308D01*
X220551498Y-57082735D01*
X220552552Y-57082761D01*
X220977498Y-57095270D01*
X220979405Y-57095340D01*
X221662938Y-57126059D01*
X221663781Y-57126100D01*
X222134269Y-57151654D01*
X222136169Y-57151773D01*
X222887797Y-57204813D01*
X222888702Y-57204881D01*
X223402270Y-57246368D01*
X223404482Y-57246567D01*
X224213454Y-57326748D01*
X224214633Y-57326872D01*
X224761671Y-57387560D01*
X224764148Y-57387862D01*
X225610873Y-57500090D01*
X225612353Y-57500297D01*
X226177770Y-57583229D01*
X226180745Y-57583703D01*
X227040846Y-57732217D01*
X227042658Y-57732546D01*
X227610058Y-57840211D01*
X227613620Y-57840942D01*
X228462574Y-58028630D01*
X228464746Y-58029132D01*
X229018576Y-58162916D01*
X229022667Y-58163980D01*
X229840567Y-58391812D01*
X229843099Y-58392548D01*
X230371997Y-58552462D01*
X230376413Y-58553889D01*
X231150599Y-58820574D01*
X231153274Y-58821530D01*
X231650967Y-59006218D01*
X231655561Y-59008028D01*
X232380006Y-59310286D01*
X232382670Y-59311436D01*
X232846915Y-59518400D01*
X232851301Y-59520460D01*
X233525202Y-59853468D01*
X233527700Y-59854739D01*
X233959439Y-60080690D01*
X233963399Y-60082856D01*
X234589614Y-60440549D01*
X234591824Y-60441842D01*
X234993963Y-60682785D01*
X234997263Y-60684834D01*
X235559111Y-61046142D01*
X235581051Y-61060251D01*
X235582816Y-61061408D01*
X235959226Y-61312695D01*
X235961706Y-61314395D01*
X236292009Y-61546922D01*
X236508991Y-61699674D01*
X236510268Y-61700585D01*
X236600840Y-61766075D01*
X236864335Y-61956602D01*
X236864900Y-61957010D01*
X236866586Y-61958251D01*
X237382988Y-62345240D01*
X237383639Y-62345732D01*
X237720030Y-62602114D01*
X237720988Y-62602852D01*
X237911699Y-62751295D01*
X238211340Y-62984525D01*
X238211785Y-62984873D01*
X238385768Y-63121571D01*
X238446916Y-63169615D01*
X238532223Y-63236640D01*
X238532739Y-63237048D01*
X238842141Y-63483054D01*
X239000878Y-63609266D01*
X239001176Y-63609504D01*
X239306835Y-63854073D01*
X239307429Y-63854550D01*
X239755231Y-64217387D01*
X239755479Y-64217590D01*
X239856786Y-64300534D01*
X240046991Y-64456262D01*
X240048214Y-64457277D01*
X240475538Y-64816394D01*
X240476551Y-64817254D01*
X240753042Y-65054714D01*
X240755162Y-65056579D01*
X241162295Y-65423501D01*
X241163884Y-65424960D01*
X241425483Y-65669256D01*
X241428587Y-65672258D01*
X241814788Y-66059144D01*
X241816788Y-66061196D01*
X241863461Y-66110222D01*
X242063597Y-66320446D01*
X242067185Y-66324381D01*
X242430379Y-66740268D01*
X242432555Y-66742829D01*
X242663209Y-67021858D01*
X242666773Y-67026378D01*
X242754384Y-67142993D01*
X243001973Y-67472545D01*
X243004035Y-67475374D01*
X243214614Y-67772798D01*
X243217873Y-67777639D01*
X243402478Y-68066475D01*
X243517360Y-68246221D01*
X243519222Y-68249228D01*
X243704621Y-68558400D01*
X243707521Y-68563508D01*
X243749380Y-68641465D01*
X243964550Y-69042195D01*
X243966163Y-69045303D01*
X244004209Y-69121228D01*
X244088859Y-69290157D01*
X244122953Y-69358194D01*
X244125372Y-69363312D01*
X244336896Y-69838517D01*
X244337985Y-69840963D01*
X244339267Y-69843947D01*
X244468213Y-70155341D01*
X244469986Y-70159873D01*
X244644096Y-70631940D01*
X244644940Y-70634301D01*
X244752297Y-70944565D01*
X244753308Y-70947615D01*
X244805591Y-71112411D01*
X244897425Y-71401872D01*
X244902173Y-71416836D01*
X244902568Y-71418103D01*
X244998087Y-71730746D01*
X244998401Y-71731790D01*
X245099084Y-72072019D01*
X245134723Y-72192450D01*
X245136713Y-72199187D01*
X245136717Y-72199214D01*
X245136721Y-72199213D01*
X245158581Y-72273256D01*
X245158600Y-72273309D01*
X245175875Y-72331807D01*
X245213074Y-72457777D01*
X245213119Y-72459224D01*
X245231707Y-72520880D01*
X245231841Y-72521332D01*
X245251243Y-72587033D01*
X245253421Y-72592900D01*
X245269396Y-72645886D01*
X245353910Y-72926210D01*
X245356611Y-72935169D01*
X245356668Y-72936699D01*
X245375590Y-72998124D01*
X245375715Y-72998536D01*
X245395432Y-73063932D01*
X245397768Y-73070113D01*
X245452067Y-73246370D01*
X245452067Y-73246371D01*
X245455224Y-73256619D01*
X245455373Y-73259652D01*
X245474576Y-73319441D01*
X245474824Y-73320244D01*
X245493380Y-73380477D01*
X245498025Y-73392444D01*
X245609515Y-73739551D01*
X245609618Y-73741382D01*
X245629672Y-73802309D01*
X245629826Y-73802787D01*
X245629826Y-73802789D01*
X245650331Y-73866629D01*
X245653251Y-73873945D01*
X245692764Y-73993986D01*
X245715785Y-74063923D01*
X245715962Y-74066571D01*
X245736366Y-74126450D01*
X245736577Y-74127090D01*
X245736577Y-74127093D01*
X245756685Y-74188184D01*
X245760953Y-74198604D01*
X245878101Y-74542388D01*
X245878100Y-74542388D01*
X245881038Y-74551010D01*
X245881127Y-74552245D01*
X245902237Y-74613222D01*
X245902335Y-74613507D01*
X245902373Y-74613618D01*
X245924731Y-74679229D01*
X245926813Y-74684205D01*
X245990515Y-74868198D01*
X245990515Y-74868200D01*
X245993505Y-74876837D01*
X245993602Y-74878099D01*
X246014993Y-74938904D01*
X246015078Y-74939149D01*
X246015174Y-74939423D01*
X246037801Y-75004776D01*
X246039947Y-75009835D01*
X246162482Y-75358139D01*
X246165220Y-75365921D01*
X246165243Y-75366205D01*
X246187124Y-75428184D01*
X246187174Y-75428325D01*
X246187183Y-75428351D01*
X246187228Y-75428478D01*
X246211316Y-75496946D01*
X246211804Y-75498085D01*
X246302087Y-75753804D01*
X246302141Y-75753958D01*
X246473630Y-76241725D01*
X246473727Y-76242004D01*
X246586482Y-76565170D01*
X246586735Y-76565900D01*
X246752071Y-77049440D01*
X246752258Y-77049993D01*
X246859560Y-77368697D01*
X246859901Y-77369725D01*
X247015421Y-77845351D01*
X247015625Y-77845978D01*
X247116587Y-78160398D01*
X247116876Y-78161312D01*
X247152416Y-78275005D01*
X247263415Y-78630090D01*
X247263474Y-78630280D01*
X247360000Y-78942756D01*
X247360059Y-78942948D01*
X247482050Y-79340140D01*
X247482051Y-79340140D01*
X247484535Y-79348227D01*
X247484553Y-79348690D01*
X247503895Y-79411260D01*
X247503961Y-79411474D01*
X247503961Y-79411475D01*
X247525116Y-79480354D01*
X247525839Y-79482248D01*
X247547851Y-79553457D01*
X247581884Y-79663549D01*
X247581985Y-79665711D01*
X247601315Y-79726412D01*
X247601486Y-79726963D01*
X247620985Y-79790038D01*
X247624324Y-79798660D01*
X247715921Y-80086277D01*
X247733460Y-80141349D01*
X247733571Y-80143374D01*
X247753403Y-80203976D01*
X247753582Y-80204537D01*
X247773768Y-80267918D01*
X247776973Y-80275997D01*
X247835530Y-80454923D01*
X247839295Y-80466426D01*
X247839609Y-80470796D01*
X247859763Y-80528968D01*
X247860080Y-80529936D01*
X247860080Y-80529938D01*
X247878920Y-80587507D01*
X247879919Y-80589589D01*
X247885274Y-80602607D01*
X248003173Y-80942908D01*
X248009994Y-80962597D01*
X248010243Y-80965567D01*
X248031539Y-81024786D01*
X248031790Y-81025510D01*
X248052487Y-81085249D01*
X248057440Y-81096809D01*
X248087828Y-81181308D01*
X248131016Y-81301400D01*
X248131539Y-81306437D01*
X248153275Y-81363298D01*
X248153712Y-81364513D01*
X248173899Y-81420644D01*
X248175757Y-81424248D01*
X248181371Y-81436798D01*
X248296257Y-81737334D01*
X248327517Y-81819108D01*
X248327843Y-81821938D01*
X248351007Y-81880558D01*
X248351263Y-81881228D01*
X248374016Y-81940746D01*
X248379097Y-81951646D01*
X248461382Y-82159880D01*
X248461381Y-82159880D01*
X248465648Y-82170679D01*
X248466157Y-82174567D01*
X248489832Y-82231876D01*
X248512636Y-82289585D01*
X248512637Y-82289586D01*
X248512639Y-82289591D01*
X248513192Y-82290586D01*
X248519408Y-82303470D01*
X248681080Y-82694822D01*
X248681079Y-82694822D01*
X248684724Y-82703646D01*
X248684964Y-82705383D01*
X248709832Y-82764424D01*
X248709955Y-82764720D01*
X248710009Y-82764848D01*
X248735790Y-82827256D01*
X248739143Y-82834011D01*
X248831049Y-83052210D01*
X248831048Y-83052210D01*
X248834732Y-83060956D01*
X248834975Y-83062630D01*
X248860321Y-83121703D01*
X248877509Y-83162511D01*
X248886729Y-83184400D01*
X248890011Y-83190901D01*
X249060027Y-83587153D01*
X249060026Y-83587153D01*
X249063303Y-83594792D01*
X249063346Y-83595079D01*
X249089256Y-83655277D01*
X249089424Y-83655668D01*
X249118036Y-83722351D01*
X249118621Y-83723500D01*
X249226149Y-83973319D01*
X249240948Y-84007700D01*
X249241107Y-84008071D01*
X249462197Y-84526367D01*
X249462429Y-84526914D01*
X249604318Y-84864007D01*
X249604910Y-84865438D01*
X249804889Y-85357643D01*
X249805328Y-85358739D01*
X249931251Y-85677334D01*
X249932022Y-85679335D01*
X250108275Y-86148866D01*
X250108710Y-86150043D01*
X250220830Y-86458168D01*
X250221407Y-86459789D01*
X250359949Y-86857977D01*
X250383455Y-86925534D01*
X250383706Y-86926265D01*
X250490361Y-87239073D01*
X250490558Y-87239657D01*
X250569751Y-87476317D01*
X250652947Y-87724943D01*
X250652985Y-87725057D01*
X250740152Y-87986392D01*
X250740153Y-87986392D01*
X250742799Y-87994325D01*
X250742820Y-87994661D01*
X250763646Y-88056825D01*
X250786680Y-88125883D01*
X250787241Y-88127255D01*
X250897338Y-88455888D01*
X250917254Y-88515334D01*
X250917280Y-88515739D01*
X250938163Y-88577749D01*
X250938174Y-88577780D01*
X250938234Y-88577958D01*
X250938296Y-88578143D01*
X250961218Y-88646562D01*
X250961893Y-88648210D01*
X250968937Y-88669124D01*
X251037602Y-88873006D01*
X251037637Y-88873542D01*
X251058686Y-88935611D01*
X251058770Y-88935859D01*
X251081632Y-89003746D01*
X251082528Y-89005918D01*
X251139212Y-89173065D01*
X251227369Y-89433018D01*
X251227375Y-89433104D01*
X251249070Y-89497009D01*
X251272232Y-89565309D01*
X251272370Y-89565641D01*
X251377950Y-89876634D01*
X251378026Y-89876860D01*
X251472077Y-90155653D01*
X251576737Y-90465894D01*
X251708982Y-90861446D01*
X251709234Y-90862209D01*
X251905051Y-91462878D01*
X251905285Y-91463606D01*
X252032238Y-91861344D01*
X252032717Y-91862878D01*
X252214023Y-92457401D01*
X252214340Y-92458457D01*
X252328413Y-92844951D01*
X252329442Y-92848435D01*
X252329987Y-92850336D01*
X252490569Y-93428188D01*
X252490878Y-93429323D01*
X252592146Y-93807605D01*
X252592587Y-93809299D01*
X252734255Y-94370072D01*
X252734463Y-94370909D01*
X252825078Y-94740399D01*
X252825310Y-94741359D01*
X252914646Y-95118591D01*
X252955900Y-95292794D01*
X252982158Y-95404944D01*
X253042023Y-95660626D01*
X253042027Y-95660661D01*
X253042031Y-95660661D01*
X253153676Y-96138110D01*
X253155598Y-96146333D01*
X253155586Y-96146770D01*
X253170541Y-96210232D01*
X253170540Y-96210234D01*
X253187084Y-96280976D01*
X253187650Y-96282834D01*
X253240354Y-96506474D01*
X253240354Y-96506476D01*
X253242447Y-96515361D01*
X253242416Y-96516620D01*
X253257482Y-96579163D01*
X253257584Y-96579594D01*
X253273504Y-96647143D01*
X253275122Y-96652386D01*
X253376135Y-97071696D01*
X253376116Y-97072581D01*
X253391585Y-97135828D01*
X253391686Y-97136246D01*
X253391686Y-97136247D01*
X253408155Y-97204616D01*
X253409307Y-97208292D01*
X253441892Y-97341519D01*
X253467217Y-97445064D01*
X253467195Y-97446390D01*
X253482840Y-97508944D01*
X253482942Y-97509359D01*
X253499332Y-97576371D01*
X253501075Y-97581855D01*
X253605627Y-97999875D01*
X253607704Y-98008183D01*
X253607697Y-98008776D01*
X253623540Y-98071499D01*
X253623638Y-98071889D01*
X253623642Y-98071902D01*
X253623712Y-98072181D01*
X253641118Y-98141774D01*
X253641924Y-98144278D01*
X253700644Y-98376733D01*
X253702725Y-98384974D01*
X253702720Y-98385469D01*
X253718842Y-98448775D01*
X253718901Y-98449007D01*
X253718900Y-98449009D01*
X253736549Y-98518873D01*
X253737226Y-98520958D01*
X253790636Y-98730674D01*
X253816714Y-98833070D01*
X253816714Y-98833098D01*
X253833158Y-98897640D01*
X253851244Y-98968652D01*
X253851281Y-98968767D01*
X253863649Y-99017308D01*
X253863651Y-99017317D01*
X253952634Y-99366660D01*
X253959511Y-99393658D01*
X254037206Y-99701214D01*
X254102724Y-99960565D01*
X254102787Y-99960816D01*
X254196887Y-100336609D01*
X254197013Y-100337114D01*
X254300599Y-100758279D01*
X254335643Y-100900764D01*
X254424790Y-101267056D01*
X254426822Y-101275403D01*
X254426896Y-101275708D01*
X254562359Y-101838499D01*
X254562365Y-101838526D01*
X254594747Y-101973192D01*
X254636674Y-102147553D01*
X254636660Y-102148164D01*
X254652020Y-102211374D01*
X254652090Y-102211665D01*
X254652089Y-102211666D01*
X254668855Y-102281388D01*
X254669661Y-102283971D01*
X254698101Y-102401004D01*
X254773177Y-102709951D01*
X254773162Y-102710715D01*
X254788729Y-102773947D01*
X254796639Y-102806500D01*
X254805560Y-102843213D01*
X254806565Y-102846401D01*
X254863461Y-103077509D01*
X254863461Y-103077510D01*
X254865762Y-103086860D01*
X254865739Y-103088703D01*
X254881459Y-103150623D01*
X254881590Y-103151152D01*
X254897659Y-103216416D01*
X254900083Y-103223971D01*
X255006843Y-103644455D01*
X255009101Y-103653351D01*
X255009092Y-103654677D01*
X255025353Y-103717354D01*
X255025428Y-103717649D01*
X255042375Y-103784394D01*
X255044160Y-103789840D01*
X255104864Y-104023808D01*
X255104864Y-104023810D01*
X255107370Y-104033469D01*
X255107372Y-104035707D01*
X255123866Y-104097058D01*
X255124005Y-104097591D01*
X255124057Y-104097786D01*
X255140561Y-104161393D01*
X255143598Y-104170446D01*
X255258021Y-104596030D01*
X255260366Y-104604752D01*
X255260373Y-104605910D01*
X255277365Y-104667978D01*
X255277512Y-104668522D01*
X255295609Y-104735831D01*
X255297252Y-104740622D01*
X255308352Y-104781166D01*
X255364619Y-104986692D01*
X255364630Y-104987773D01*
X255381950Y-105050000D01*
X255382040Y-105050329D01*
X255382078Y-105050466D01*
X255400536Y-105117887D01*
X255402082Y-105122332D01*
X255485960Y-105423682D01*
X255488113Y-105431416D01*
X255488114Y-105431481D01*
X255505015Y-105492138D01*
X255505651Y-105494420D01*
X255505651Y-105494424D01*
X255505659Y-105494451D01*
X255505658Y-105494454D01*
X255505660Y-105494454D01*
X255525538Y-105565871D01*
X255525636Y-105566152D01*
X255541239Y-105622152D01*
X255541242Y-105622177D01*
X255541246Y-105622177D01*
X255647064Y-106002256D01*
X255647251Y-106002938D01*
X255801322Y-106568806D01*
X255801543Y-106569626D01*
X255899939Y-106941029D01*
X255900476Y-106943132D01*
X256036666Y-107496119D01*
X256037060Y-107497767D01*
X256120487Y-107857616D01*
X256121199Y-107860888D01*
X256230519Y-108397964D01*
X256230935Y-108400100D01*
X256295852Y-108750371D01*
X256296434Y-108753778D01*
X256379014Y-109280943D01*
X256379274Y-109282682D01*
X256428956Y-109632192D01*
X256429212Y-109634097D01*
X256466732Y-109931004D01*
X256496468Y-110166312D01*
X256500842Y-110201987D01*
X256531542Y-110452393D01*
X256532636Y-110461322D01*
X256532487Y-110462426D01*
X256540617Y-110526420D01*
X256540683Y-110526955D01*
X256540691Y-110527012D01*
X256549174Y-110596203D01*
X256550089Y-110600975D01*
X256601189Y-111003162D01*
X256602425Y-111012894D01*
X256602165Y-111014938D01*
X256610724Y-111078209D01*
X256610801Y-111078813D01*
X256610805Y-111078843D01*
X256619157Y-111144573D01*
X256620871Y-111153209D01*
X256651229Y-111377611D01*
X256651228Y-111377611D01*
X256652993Y-111390661D01*
X256652428Y-111395966D01*
X256661814Y-111455860D01*
X256661984Y-111457115D01*
X256661991Y-111457162D01*
X256667617Y-111498743D01*
X256669948Y-111515970D01*
X256671201Y-111520581D01*
X256674044Y-111533894D01*
X256740767Y-111959623D01*
X256740766Y-111959623D01*
X256742553Y-111971028D01*
X256742203Y-111974871D01*
X256752733Y-112035977D01*
X256752878Y-112036901D01*
X256752888Y-112036961D01*
X256757974Y-112069414D01*
X256762362Y-112097410D01*
X256762643Y-112098362D01*
X256765887Y-112112312D01*
X256807701Y-112354948D01*
X256810196Y-112369423D01*
X256809768Y-112375986D01*
X256821368Y-112434252D01*
X256821640Y-112435829D01*
X256821639Y-112435831D01*
X256831459Y-112492807D01*
X256833874Y-112500571D01*
X256832867Y-112500883D01*
X256837085Y-112513193D01*
X256928003Y-112969851D01*
X256930203Y-112980905D01*
X256930021Y-112984489D01*
X256943051Y-113045434D01*
X256943211Y-113046235D01*
X256943219Y-113046276D01*
X256955236Y-113106627D01*
X256955238Y-113106631D01*
X256955333Y-113106910D01*
X256959182Y-113120870D01*
X257015768Y-113385520D01*
X257017086Y-113391686D01*
X257018357Y-113397627D01*
X257018205Y-113402269D01*
X257032107Y-113461938D01*
X257032346Y-113463056D01*
X257032361Y-113463122D01*
X257044942Y-113521959D01*
X257044943Y-113521960D01*
X257045940Y-113524766D01*
X257049863Y-113538151D01*
X257058598Y-113575638D01*
X257155772Y-113992712D01*
X257165505Y-114034483D01*
X257165458Y-114036314D01*
X257180434Y-114098561D01*
X257180544Y-114099035D01*
X257180544Y-114099037D01*
X257195788Y-114164461D01*
X257198104Y-114172005D01*
X257266192Y-114454999D01*
X257266191Y-114454999D01*
X257268314Y-114463825D01*
X257268290Y-114465025D01*
X257283706Y-114527791D01*
X257283802Y-114528189D01*
X257283802Y-114528190D01*
X257300031Y-114595642D01*
X257301600Y-114600645D01*
X257319446Y-114673301D01*
X257319457Y-114673346D01*
X257443688Y-115179944D01*
X257443735Y-115180136D01*
X257549327Y-115613715D01*
X257549628Y-115614983D01*
X257701736Y-116269405D01*
X257702022Y-116270665D01*
X257797401Y-116701317D01*
X257798004Y-116704200D01*
X257925344Y-117351656D01*
X257925736Y-117353742D01*
X258001570Y-117777481D01*
X258002188Y-117781275D01*
X258096062Y-118419285D01*
X258096379Y-118421587D01*
X258150059Y-118840846D01*
X258150460Y-118844378D01*
X258213292Y-119479076D01*
X258213458Y-119480894D01*
X258248920Y-119902319D01*
X258249091Y-119904597D01*
X258291188Y-120546087D01*
X258291243Y-120546981D01*
X258316379Y-120977562D01*
X258316414Y-120978186D01*
X258333602Y-121300536D01*
X258333602Y-121300539D01*
X258347028Y-121552452D01*
X258347926Y-121569302D01*
X258347897Y-121569444D01*
X258351392Y-121634315D01*
X258351391Y-121634318D01*
X258351392Y-121634318D01*
X258355333Y-121708278D01*
X258355411Y-121708936D01*
X258371305Y-122003945D01*
X258371807Y-122013267D01*
X258371505Y-122014746D01*
X258375345Y-122078951D01*
X258375378Y-122079550D01*
X258375380Y-122079574D01*
X258379047Y-122147624D01*
X258379842Y-122154096D01*
X258411323Y-122680280D01*
X258411873Y-122689481D01*
X258411604Y-122690839D01*
X258415803Y-122755171D01*
X258415830Y-122755617D01*
X258415833Y-122755657D01*
X258419937Y-122824234D01*
X258420699Y-122830159D01*
X258440680Y-123136188D01*
X258440679Y-123136188D01*
X258441346Y-123146419D01*
X258440877Y-123148912D01*
X258445627Y-123211985D01*
X258445677Y-123212745D01*
X258445679Y-123212760D01*
X258449894Y-123277313D01*
X258451354Y-123288009D01*
X258485428Y-123740330D01*
X258492889Y-123839377D01*
X258492635Y-123840770D01*
X258497833Y-123905008D01*
X258497860Y-123905364D01*
X258497862Y-123905386D01*
X258503022Y-123973879D01*
X258503896Y-123979934D01*
X258514462Y-124110498D01*
X258530204Y-124305030D01*
X258529899Y-124306768D01*
X258535510Y-124370604D01*
X258535552Y-124371119D01*
X258535554Y-124371143D01*
X258540988Y-124438295D01*
X258542120Y-124445802D01*
X258590640Y-124997759D01*
X258590639Y-124997759D01*
X258591389Y-125006299D01*
X258591288Y-125006890D01*
X258597123Y-125071522D01*
X258597159Y-125071921D01*
X258597179Y-125072132D01*
X258597205Y-125072425D01*
X258603451Y-125143487D01*
X258603858Y-125146099D01*
X258632866Y-125467361D01*
X258632865Y-125467361D01*
X258633444Y-125473775D01*
X258633443Y-125473786D01*
X258636953Y-125512631D01*
X258638545Y-125530260D01*
X258639682Y-125542836D01*
X258639682Y-125542842D01*
X258645998Y-125612779D01*
X258646008Y-125612845D01*
X258662529Y-125795677D01*
X258702487Y-126237884D01*
X258707090Y-126290157D01*
X258743143Y-126699588D01*
X258743225Y-126700569D01*
X258798092Y-127385887D01*
X258798158Y-127386743D01*
X258831029Y-127836446D01*
X258831147Y-127838245D01*
X258870147Y-128504991D01*
X258870212Y-128506203D01*
X258891507Y-128943692D01*
X258891589Y-128945696D01*
X258912764Y-129597664D01*
X258912794Y-129598741D01*
X258923050Y-130029992D01*
X258923075Y-130031347D01*
X258931417Y-130680678D01*
X258931422Y-130681177D01*
X258935260Y-131116131D01*
X258935260Y-131116334D01*
X258935262Y-131116334D01*
X258939550Y-131712230D01*
X258939437Y-131712668D01*
X258940021Y-131777809D01*
X258940545Y-131850477D01*
X258940692Y-131852468D01*
X258943035Y-132113443D01*
X258943452Y-132159915D01*
X258943013Y-132161670D01*
X258944039Y-132225523D01*
X258944046Y-132226221D01*
X258944047Y-132226229D01*
X258944652Y-132293468D01*
X258945257Y-132301216D01*
X258953865Y-132836374D01*
X258954015Y-132845709D01*
X258953656Y-132847182D01*
X258955071Y-132911417D01*
X258955081Y-132912026D01*
X258955082Y-132912048D01*
X258956181Y-132980239D01*
X258956732Y-132986751D01*
X258963667Y-133301297D01*
X258963900Y-133311842D01*
X258963254Y-133314621D01*
X258965350Y-133377651D01*
X258965365Y-133378302D01*
X258965365Y-133378303D01*
X258966769Y-133442013D01*
X258967892Y-133454030D01*
X258986645Y-134017734D01*
X258986645Y-134017736D01*
X258986959Y-134027197D01*
X258986594Y-134028820D01*
X258989140Y-134092791D01*
X258989162Y-134093450D01*
X258989165Y-134093511D01*
X258991417Y-134161152D01*
X258992146Y-134168286D01*
X259005440Y-134502173D01*
X259005440Y-134502174D01*
X259005833Y-134512058D01*
X259005378Y-134514162D01*
X259008448Y-134577769D01*
X259008475Y-134578425D01*
X259008477Y-134578462D01*
X259011103Y-134644391D01*
X259012107Y-134653520D01*
X259040573Y-135243036D01*
X259040992Y-135251700D01*
X259040835Y-135252439D01*
X259044180Y-135317713D01*
X259044198Y-135318076D01*
X259044198Y-135318077D01*
X259047611Y-135388749D01*
X259047988Y-135392006D01*
X259068836Y-135798758D01*
X259068836Y-135798764D01*
X259068837Y-135798764D01*
X259107923Y-136561940D01*
X259112858Y-136664659D01*
X259131651Y-137055848D01*
X259131712Y-137057277D01*
X259158453Y-137790241D01*
X259158494Y-137791560D01*
X259170796Y-138267831D01*
X259170837Y-138270877D01*
X259171714Y-138966910D01*
X259171695Y-138969220D01*
X259163966Y-139414078D01*
X259163800Y-139418700D01*
X259128580Y-140062224D01*
X259128368Y-140065363D01*
X259095702Y-140472603D01*
X259095139Y-140478089D01*
X259021339Y-141067700D01*
X259020890Y-141070941D01*
X258963751Y-141446681D01*
X258962925Y-141451474D01*
X258856765Y-142003056D01*
X258856289Y-142005407D01*
X258779868Y-142364874D01*
X258779262Y-142367579D01*
X258652427Y-142904833D01*
X258652209Y-142905740D01*
X258564641Y-143264569D01*
X258564555Y-143264917D01*
X258489954Y-143566821D01*
X258446165Y-143744029D01*
X258445864Y-143744579D01*
X258430516Y-143807351D01*
X258430401Y-143807819D01*
X258430392Y-143807859D01*
X258430319Y-143808154D01*
X258413154Y-143877617D01*
X258412671Y-143880340D01*
X258373222Y-144041694D01*
X258356397Y-144110512D01*
X258355518Y-144112144D01*
X258340792Y-144174329D01*
X258340657Y-144174884D01*
X258324713Y-144240101D01*
X258323360Y-144247947D01*
X258226273Y-144657966D01*
X258226273Y-144657967D01*
X258224212Y-144666669D01*
X258223724Y-144667585D01*
X258209093Y-144730517D01*
X258209049Y-144730704D01*
X258208980Y-144731001D01*
X258192837Y-144799174D01*
X258192094Y-144803636D01*
X258139016Y-145031939D01*
X258139017Y-145031940D01*
X258137099Y-145040188D01*
X258136857Y-145040648D01*
X258122176Y-145104389D01*
X258105856Y-145174585D01*
X258105486Y-145176850D01*
X257992424Y-145667746D01*
X257992346Y-145668082D01*
X257905595Y-146040000D01*
X257905203Y-146041632D01*
X257767773Y-146596741D01*
X257767361Y-146598360D01*
X257673268Y-146957610D01*
X257672203Y-146961427D01*
X257514468Y-147493657D01*
X257513589Y-147496496D01*
X257403921Y-147836408D01*
X257402066Y-147841738D01*
X257213544Y-148346251D01*
X257212260Y-148349545D01*
X257080500Y-148673653D01*
X257078320Y-148678692D01*
X256854190Y-149166879D01*
X256852989Y-149169419D01*
X256696457Y-149490952D01*
X256694896Y-149494048D01*
X256437560Y-149987118D01*
X256436933Y-149988304D01*
X256258494Y-150321365D01*
X256258008Y-150322262D01*
X255976054Y-150838295D01*
X255976023Y-150838352D01*
X255817956Y-151127286D01*
X255817955Y-151127285D01*
X255813765Y-151134942D01*
X255813220Y-151135519D01*
X255782501Y-151192091D01*
X255782204Y-151192636D01*
X255782205Y-151192636D01*
X255782020Y-151192975D01*
X255748027Y-151255114D01*
X255746550Y-151258304D01*
X255519251Y-151676923D01*
X255519250Y-151676922D01*
X255515183Y-151684412D01*
X255514831Y-151684785D01*
X255483993Y-151741856D01*
X255483865Y-151742093D01*
X255483864Y-151742096D01*
X255483744Y-151742317D01*
X255449358Y-151805646D01*
X255448399Y-151807730D01*
X255282148Y-152115421D01*
X255282060Y-152115584D01*
X254970150Y-152690800D01*
X254969824Y-152691396D01*
X254759978Y-153073383D01*
X254758738Y-153075587D01*
X254426675Y-153651882D01*
X254425451Y-153653960D01*
X254201589Y-154025564D01*
X254198466Y-154030482D01*
X253832936Y-154577381D01*
X253830335Y-154581123D01*
X253578660Y-154929269D01*
X253575235Y-154933785D01*
X253546258Y-154970237D01*
X253543527Y-154973553D01*
X253166731Y-155415233D01*
X253162543Y-155419899D01*
X253052365Y-155536552D01*
X252878174Y-155720979D01*
X252872315Y-155726782D01*
X252808385Y-155786020D01*
X252804357Y-155789593D01*
X252407914Y-156126164D01*
X252402293Y-156130662D01*
X252077001Y-156375818D01*
X252069321Y-156381164D01*
X251993386Y-156429874D01*
X251990603Y-156431608D01*
X251769602Y-156565260D01*
X251765707Y-156567520D01*
X251542724Y-156691542D01*
X251538373Y-156693850D01*
X251161333Y-156884363D01*
X251153596Y-156887943D01*
X251130022Y-156897884D01*
X251098772Y-156911063D01*
X251096204Y-156912112D01*
X250829962Y-157017434D01*
X250826049Y-157018906D01*
X250558077Y-157114595D01*
X250553964Y-157115983D01*
X250131392Y-157250396D01*
X250122999Y-157252744D01*
X249797747Y-157331534D01*
X249794154Y-157332348D01*
X249467562Y-157401262D01*
X249464049Y-157401951D01*
X249012573Y-157483678D01*
X249004650Y-157484849D01*
X248295464Y-157566395D01*
X248291283Y-157566804D01*
X247818658Y-157604982D01*
X247812515Y-157605325D01*
X247080591Y-157628008D01*
X247077258Y-157628067D01*
X246593675Y-157630049D01*
X246588470Y-157629961D01*
X245853055Y-157602086D01*
X245850017Y-157601934D01*
X245368354Y-157571831D01*
X245363255Y-157571406D01*
X244638353Y-157495972D01*
X244635207Y-157495604D01*
X244163732Y-157434333D01*
X244158247Y-157433495D01*
X243452005Y-157309367D01*
X243448559Y-157308711D01*
X242991456Y-157214969D01*
X242985447Y-157213580D01*
X242301018Y-157037347D01*
X242297293Y-157036326D01*
X241855164Y-156907675D01*
X241848847Y-156905652D01*
X241185361Y-156673442D01*
X241181579Y-156672049D01*
X241167207Y-156666488D01*
X240752204Y-156505922D01*
X240746091Y-156503367D01*
X240254668Y-156282300D01*
X240099874Y-156212666D01*
X240096375Y-156211026D01*
X239676155Y-156006014D01*
X239670757Y-156003214D01*
X239037248Y-155654711D01*
X239034301Y-155653037D01*
X238684450Y-155447925D01*
X238619970Y-155410121D01*
X238615620Y-155407449D01*
X238603047Y-155399363D01*
X238343754Y-155232604D01*
X237990961Y-155005713D01*
X237988669Y-155004203D01*
X237577940Y-154727009D01*
X237574680Y-154724732D01*
X237312960Y-154535612D01*
X236956187Y-154277806D01*
X236954607Y-154276644D01*
X236546218Y-153971139D01*
X236544018Y-153969454D01*
X235930510Y-153488255D01*
X235929430Y-153487398D01*
X235523316Y-153161457D01*
X235521934Y-153160332D01*
X235378428Y-153041694D01*
X234914049Y-152657785D01*
X234913424Y-152657265D01*
X234510584Y-152319760D01*
X234509870Y-152319157D01*
X233910216Y-151809019D01*
X233909952Y-151808793D01*
X233512967Y-151469146D01*
X233512949Y-151469131D01*
X233512829Y-151469028D01*
X233281185Y-151270068D01*
X233281177Y-151270061D01*
X233260566Y-151252359D01*
X233230956Y-151226927D01*
X233230955Y-151226926D01*
X233179426Y-151182668D01*
X233179423Y-151182666D01*
X233176578Y-151180222D01*
X233176569Y-151180215D01*
X232982453Y-151013491D01*
X232976072Y-151008010D01*
X232976036Y-151007957D01*
X232928113Y-150966819D01*
X232879139Y-150924756D01*
X232870228Y-150917102D01*
X232869968Y-150916907D01*
X232862446Y-150910450D01*
X232595291Y-150681120D01*
X232588691Y-150675455D01*
X232588284Y-150674862D01*
X232538571Y-150632432D01*
X232489244Y-150590089D01*
X232489242Y-150590088D01*
X232484524Y-150586038D01*
X232482000Y-150584148D01*
X232175162Y-150322262D01*
X232021052Y-150190729D01*
X232020620Y-150190104D01*
X231970817Y-150147853D01*
X231921390Y-150105667D01*
X231916718Y-150101679D01*
X231914057Y-150099700D01*
X231798383Y-150001567D01*
X231647611Y-149873658D01*
X231646559Y-149872160D01*
X231597371Y-149831036D01*
X231548515Y-149789588D01*
X231548511Y-149789586D01*
X231545819Y-149787302D01*
X231539489Y-149782642D01*
X231251616Y-149541962D01*
X231105429Y-149419740D01*
X231104606Y-149418582D01*
X231054879Y-149377476D01*
X231054640Y-149377276D01*
X231054638Y-149377274D01*
X231001987Y-149333254D01*
X230997000Y-149329632D01*
X230800111Y-149166879D01*
X230758172Y-149132211D01*
X230749971Y-149125432D01*
X230748233Y-149123047D01*
X230699255Y-149083509D01*
X230698661Y-149083018D01*
X230698659Y-149083016D01*
X230649867Y-149042683D01*
X230639705Y-149035436D01*
X230357433Y-148807568D01*
X230238985Y-148711949D01*
X230237720Y-148710243D01*
X230187807Y-148670634D01*
X230187395Y-148670302D01*
X230135884Y-148628718D01*
X230128412Y-148623501D01*
X229914326Y-148453612D01*
X229905002Y-148446213D01*
X229902445Y-148442882D01*
X229853446Y-148405301D01*
X229852605Y-148404633D01*
X229852604Y-148404632D01*
X229805063Y-148366905D01*
X229803480Y-148365957D01*
X229791763Y-148357990D01*
X229438100Y-148086737D01*
X229429662Y-148080265D01*
X229427848Y-148077957D01*
X229377409Y-148040188D01*
X229327426Y-148001852D01*
X229327423Y-148001850D01*
X229326568Y-148001195D01*
X229316208Y-147994360D01*
X229130389Y-147855219D01*
X229119512Y-147847074D01*
X229115899Y-147842684D01*
X229066836Y-147807630D01*
X229065726Y-147806799D01*
X229065726Y-147806798D01*
X229040881Y-147788195D01*
X229018576Y-147771493D01*
X229018572Y-147771491D01*
X229013601Y-147768699D01*
X229002247Y-147761484D01*
X228803178Y-147619256D01*
X228691799Y-147539679D01*
X228682340Y-147532920D01*
X228679792Y-147529921D01*
X228628788Y-147494660D01*
X228628024Y-147494114D01*
X228628023Y-147494113D01*
X228578316Y-147458599D01*
X228577269Y-147458042D01*
X228565068Y-147450608D01*
X228408833Y-147342598D01*
X228408833Y-147342597D01*
X228396952Y-147334384D01*
X228391870Y-147328751D01*
X228342878Y-147297003D01*
X228341339Y-147295939D01*
X228341322Y-147295928D01*
X228294803Y-147263768D01*
X228287573Y-147260059D01*
X228287878Y-147259462D01*
X228275531Y-147253359D01*
X228009622Y-147081040D01*
X228009622Y-147081041D01*
X227998624Y-147073914D01*
X227995009Y-147070070D01*
X227943389Y-147038120D01*
X227926483Y-147027164D01*
X227892461Y-147005117D01*
X227888275Y-147003125D01*
X227876303Y-146996597D01*
X227737570Y-146910731D01*
X227730249Y-146903551D01*
X227681656Y-146876124D01*
X227679535Y-146874811D01*
X227634228Y-146846769D01*
X227626824Y-146843433D01*
X227626916Y-146843226D01*
X227612412Y-146837040D01*
X227328875Y-146677002D01*
X227328355Y-146676709D01*
X227273568Y-146645025D01*
X227270996Y-146644333D01*
X227268679Y-146643026D01*
X227268672Y-146643024D01*
X227268670Y-146643023D01*
X227207928Y-146627380D01*
X227207928Y-146627379D01*
X227207257Y-146627206D01*
X227146298Y-146610826D01*
X227143641Y-146610824D01*
X227141059Y-146610159D01*
X227141058Y-146610159D01*
X227078381Y-146610769D01*
X227077085Y-146610775D01*
X135371849Y-146544761D01*
X135357568Y-146544750D01*
X135349545Y-146542872D01*
X135291800Y-146544703D01*
X135289764Y-146544702D01*
X135289763Y-146544701D01*
X135234027Y-146544662D01*
X135225973Y-146545717D01*
X135225901Y-146545166D01*
X135225752Y-146545188D01*
X135225842Y-146545736D01*
X135217823Y-146547051D01*
X135164446Y-146563183D01*
X135164447Y-146563184D01*
X135162491Y-146563775D01*
X135106709Y-146578679D01*
X135099568Y-146582794D01*
X135094827Y-146584227D01*
X135091679Y-146585179D01*
X135044316Y-146614564D01*
X135040872Y-146616624D01*
X134992535Y-146644487D01*
X134986081Y-146649432D01*
X134985741Y-146648988D01*
X134974565Y-146657841D01*
X134636659Y-146867492D01*
X134636658Y-146867491D01*
X134624473Y-146875050D01*
X134616881Y-146877611D01*
X134568640Y-146909693D01*
X134566958Y-146910737D01*
X134566930Y-146910756D01*
X134519318Y-146940297D01*
X134513034Y-146945444D01*
X134512657Y-146944984D01*
X134501895Y-146954082D01*
X133959845Y-147314577D01*
X133959844Y-147314576D01*
X133949240Y-147321627D01*
X133944589Y-147323298D01*
X133894561Y-147357992D01*
X133893514Y-147358689D01*
X133893447Y-147358736D01*
X133843643Y-147391860D01*
X133840786Y-147394355D01*
X133829907Y-147402832D01*
X133517846Y-147619256D01*
X133506145Y-147627370D01*
X133498335Y-147630470D01*
X133452158Y-147664810D01*
X133450440Y-147666003D01*
X133450425Y-147666015D01*
X133404773Y-147697677D01*
X133398754Y-147703143D01*
X133398397Y-147702750D01*
X133387912Y-147712591D01*
X132884102Y-148087277D01*
X132884101Y-148087276D01*
X132873753Y-148094971D01*
X132869061Y-148096944D01*
X132821039Y-148134175D01*
X132819979Y-148134964D01*
X132819948Y-148134989D01*
X132772106Y-148170570D01*
X132769121Y-148173467D01*
X132758757Y-148182464D01*
X132470604Y-148405878D01*
X132470602Y-148405879D01*
X132459347Y-148414604D01*
X132451710Y-148418115D01*
X132407431Y-148454854D01*
X132405789Y-148456128D01*
X132405765Y-148456148D01*
X132361853Y-148490196D01*
X132356138Y-148495969D01*
X132355763Y-148495598D01*
X132345813Y-148505982D01*
X131878955Y-148893365D01*
X131878954Y-148893366D01*
X131869179Y-148901475D01*
X131864743Y-148903621D01*
X131818565Y-148943473D01*
X131817598Y-148944276D01*
X131817596Y-148944276D01*
X131771559Y-148982478D01*
X131769023Y-148985216D01*
X131759089Y-148994804D01*
X131493984Y-149223602D01*
X131493983Y-149223603D01*
X131483072Y-149233018D01*
X131476221Y-149236592D01*
X131433319Y-149275956D01*
X131431859Y-149277217D01*
X131431843Y-149277232D01*
X131389158Y-149314072D01*
X131383756Y-149320135D01*
X131383274Y-149319705D01*
X131374204Y-149330199D01*
X130941842Y-149726924D01*
X130933030Y-149735009D01*
X130929295Y-149737038D01*
X130884558Y-149779487D01*
X130873550Y-149789588D01*
X130839067Y-149821229D01*
X130837788Y-149822756D01*
X130828107Y-149833052D01*
X130583886Y-150064789D01*
X130573701Y-150074452D01*
X130568457Y-150077465D01*
X130525984Y-150119732D01*
X130524886Y-150120774D01*
X130482498Y-150160996D01*
X130478282Y-150166202D01*
X130469396Y-150176045D01*
X130066900Y-150576597D01*
X130059400Y-150584059D01*
X130056917Y-150585524D01*
X130012804Y-150630429D01*
X130012221Y-150631011D01*
X130012222Y-150631011D01*
X129967207Y-150675808D01*
X129959182Y-150685018D01*
X129731178Y-150917130D01*
X129731177Y-150917130D01*
X129723682Y-150924759D01*
X129721114Y-150926315D01*
X129677683Y-150971586D01*
X129677101Y-150972179D01*
X129677095Y-150972186D01*
X129632793Y-151017289D01*
X129624566Y-151026956D01*
X129243633Y-151424044D01*
X129243632Y-151424045D01*
X129237702Y-151430225D01*
X129237189Y-151430539D01*
X129192487Y-151477357D01*
X129192206Y-151477651D01*
X129192007Y-151477859D01*
X129142400Y-151529572D01*
X129140698Y-151531599D01*
X128875054Y-151809828D01*
X128874531Y-151810373D01*
X128406082Y-152295070D01*
X128405236Y-152295937D01*
X128099212Y-152606447D01*
X128096774Y-152608853D01*
X127632568Y-153054546D01*
X127630503Y-153056484D01*
X127326262Y-153335517D01*
X127321767Y-153339444D01*
X126847598Y-153734049D01*
X126844345Y-153736665D01*
X126532036Y-153979253D01*
X126525874Y-153983743D01*
X126028598Y-154323153D01*
X126024650Y-154325739D01*
X125693702Y-154533615D01*
X125687240Y-154537407D01*
X125155956Y-154827933D01*
X125152393Y-154829806D01*
X124794407Y-155010728D01*
X124789508Y-155013071D01*
X124220403Y-155270055D01*
X124218178Y-155271034D01*
X123975347Y-155375005D01*
X123844852Y-155430878D01*
X123832006Y-155436378D01*
X123829678Y-155437347D01*
X123228492Y-155680410D01*
X123227842Y-155680670D01*
X122888838Y-155815509D01*
X122881385Y-155818473D01*
X122881282Y-155818486D01*
X122820737Y-155842595D01*
X122819716Y-155843002D01*
X122819692Y-155843011D01*
X122819672Y-155843020D01*
X122772253Y-155861881D01*
X122751865Y-155869991D01*
X122751455Y-155870186D01*
X122268922Y-156062345D01*
X122268920Y-156062346D01*
X122260536Y-156065684D01*
X122259404Y-156065823D01*
X122199739Y-156089893D01*
X122199332Y-156090056D01*
X122199280Y-156090078D01*
X122134392Y-156115919D01*
X122129898Y-156118070D01*
X121852175Y-156230117D01*
X121842399Y-156234061D01*
X121839571Y-156234440D01*
X121781389Y-156258675D01*
X121780714Y-156258948D01*
X121721669Y-156282769D01*
X121710817Y-156288071D01*
X121223986Y-156490862D01*
X121223985Y-156490863D01*
X121220807Y-156492187D01*
X121215230Y-156494510D01*
X121213554Y-156494746D01*
X121154609Y-156519761D01*
X121154182Y-156519939D01*
X121154180Y-156519939D01*
X121091611Y-156546004D01*
X121085074Y-156549270D01*
X120805379Y-156667970D01*
X120796873Y-156671579D01*
X120795486Y-156671783D01*
X120736512Y-156697196D01*
X120736102Y-156697371D01*
X120736099Y-156697371D01*
X120672733Y-156724265D01*
X120667284Y-156727029D01*
X120566605Y-156770417D01*
X120566547Y-156770442D01*
X120111443Y-156966295D01*
X120111174Y-156966410D01*
X119699641Y-157142362D01*
X119697563Y-157143228D01*
X119076118Y-157395688D01*
X119073829Y-157396592D01*
X118668948Y-157551784D01*
X118663070Y-157553869D01*
X118038831Y-157757777D01*
X118034129Y-157759210D01*
X117620558Y-157876382D01*
X117614624Y-157877906D01*
X117589561Y-157883686D01*
X117557351Y-157891114D01*
X117552978Y-157892041D01*
X116984101Y-158001768D01*
X116977875Y-158002805D01*
X116553400Y-158062465D01*
X116545375Y-158063327D01*
X116452946Y-158070211D01*
X116450002Y-158070395D01*
X116174474Y-158084243D01*
X116170268Y-158084383D01*
X115896421Y-158088840D01*
X115891827Y-158088829D01*
X115443733Y-158079519D01*
X115435618Y-158079084D01*
X115359963Y-158072537D01*
X115357258Y-158072273D01*
X115059747Y-158039942D01*
X115055782Y-158039447D01*
X114760797Y-157997736D01*
X114756644Y-157997076D01*
X114292929Y-157915384D01*
X114286321Y-157914034D01*
X114261362Y-157908222D01*
X114259319Y-157907728D01*
X113928681Y-157824804D01*
X113925200Y-157823877D01*
X113909837Y-157819546D01*
X113823645Y-157795247D01*
X113599856Y-157732157D01*
X113596395Y-157731127D01*
X113140445Y-157588132D01*
X113132457Y-157585323D01*
X112682679Y-157409674D01*
X112456556Y-157321367D01*
X112452259Y-157319595D01*
X112020353Y-157131979D01*
X112013873Y-157128939D01*
X111985461Y-157114595D01*
X111389011Y-156813468D01*
X111385395Y-156811567D01*
X111314450Y-156772760D01*
X110994137Y-156597547D01*
X110988362Y-156594183D01*
X110440179Y-156254726D01*
X110436742Y-156252518D01*
X110246962Y-156126164D01*
X110101302Y-156029184D01*
X110095467Y-156025051D01*
X110066450Y-156003214D01*
X109782592Y-155789593D01*
X109635005Y-155678525D01*
X109631387Y-155675696D01*
X109354122Y-155450482D01*
X109348002Y-155445170D01*
X108964874Y-155090003D01*
X108961262Y-155086516D01*
X108848893Y-154973553D01*
X108728535Y-154852558D01*
X108722991Y-154846604D01*
X108389564Y-154463902D01*
X108386628Y-154460402D01*
X108176546Y-154200430D01*
X108172474Y-154195103D01*
X107857682Y-153759321D01*
X107855732Y-153756542D01*
X107649310Y-153453646D01*
X107646776Y-153449774D01*
X107455178Y-153144766D01*
X107328710Y-152943438D01*
X107327537Y-152941533D01*
X107176754Y-152691396D01*
X107114946Y-152588861D01*
X107113319Y-152586079D01*
X107080459Y-152528215D01*
X106785249Y-152008374D01*
X106784454Y-152006951D01*
X106565585Y-151608795D01*
X106564311Y-151606417D01*
X106388036Y-151268531D01*
X106232134Y-150969697D01*
X106231474Y-150968411D01*
X106012716Y-150535600D01*
X106011510Y-150533146D01*
X106002222Y-150513709D01*
X105787713Y-150064789D01*
X105688314Y-149856769D01*
X105687571Y-149855186D01*
X105478844Y-149402047D01*
X105477618Y-149399293D01*
X105178969Y-148704957D01*
X105178195Y-148703115D01*
X105167137Y-148676192D01*
X104989650Y-148244053D01*
X104988309Y-148240646D01*
X104948518Y-148134989D01*
X104727403Y-147547864D01*
X104726652Y-147545812D01*
X104565306Y-147091800D01*
X104564064Y-147088117D01*
X104347058Y-146409184D01*
X104346383Y-146407003D01*
X104214143Y-145963827D01*
X104213089Y-145960077D01*
X104195632Y-145894046D01*
X104038416Y-145299378D01*
X104037873Y-145297245D01*
X104006205Y-145168039D01*
X103932052Y-144865490D01*
X103931283Y-144862153D01*
X103917687Y-144799174D01*
X103792143Y-144217621D01*
X103791770Y-144215824D01*
X103768807Y-144101159D01*
X103706958Y-143792317D01*
X103706491Y-143789852D01*
X103593369Y-143154892D01*
X103593154Y-143153641D01*
X103582152Y-143087819D01*
X103522906Y-142733379D01*
X103522660Y-142731839D01*
X103425862Y-142097744D01*
X103425753Y-142097011D01*
X103421666Y-142068996D01*
X103365630Y-141684839D01*
X103364100Y-141674351D01*
X103363951Y-141673303D01*
X103275799Y-141030602D01*
X103275732Y-141030102D01*
X103251890Y-140850858D01*
X103218442Y-140599390D01*
X103218362Y-140598777D01*
X103215666Y-140577594D01*
X103134317Y-139938324D01*
X103078996Y-139492718D01*
X103078930Y-139492173D01*
X103067179Y-139393392D01*
X102997202Y-138805127D01*
X102943475Y-138340468D01*
X102943396Y-138339760D01*
X102935537Y-138267831D01*
X102864767Y-137620073D01*
X102813704Y-137133060D01*
X102813611Y-137132130D01*
X102812465Y-137120213D01*
X102741015Y-136377471D01*
X102695042Y-135867829D01*
X102694942Y-135866645D01*
X102633151Y-135080498D01*
X102633085Y-135079601D01*
X102595751Y-134551519D01*
X102595650Y-134549928D01*
X102550534Y-133740406D01*
X102550474Y-133739212D01*
X102549848Y-133725520D01*
X102525763Y-133199085D01*
X102525684Y-133196925D01*
X102503292Y-132375967D01*
X102503266Y-132374752D01*
X102494999Y-131830297D01*
X102494989Y-131827605D01*
X102495992Y-131677263D01*
X102500458Y-131007642D01*
X102500478Y-131006155D01*
X102511651Y-130465718D01*
X102511752Y-130462676D01*
X102517676Y-130331811D01*
X102548338Y-129654509D01*
X102548429Y-129652774D01*
X102580543Y-129122483D01*
X102580773Y-129119358D01*
X102581293Y-129113339D01*
X102648876Y-128329814D01*
X102649049Y-128327971D01*
X102652839Y-128290602D01*
X102701559Y-127810222D01*
X102701872Y-127807450D01*
X102798303Y-127036657D01*
X102798469Y-127035389D01*
X102868481Y-126527913D01*
X102868782Y-126525871D01*
X102986915Y-125768594D01*
X102987038Y-125767826D01*
X103069629Y-125266049D01*
X103069819Y-125264931D01*
X103070216Y-125262658D01*
X103201081Y-124512415D01*
X103290343Y-124010142D01*
X103413897Y-123318629D01*
X103414080Y-123318238D01*
X103425505Y-123253659D01*
X103437000Y-123189325D01*
X103436999Y-123189322D01*
X103438231Y-123182432D01*
X103438438Y-123180556D01*
X103503809Y-122811068D01*
X103504459Y-122809654D01*
X103515285Y-122746202D01*
X103526497Y-122682831D01*
X103526496Y-122682827D01*
X103527226Y-122678705D01*
X103527939Y-122672036D01*
X103635149Y-122043692D01*
X103635678Y-122042526D01*
X103646209Y-121978866D01*
X103657098Y-121915052D01*
X103657097Y-121915048D01*
X103657912Y-121910276D01*
X103658475Y-121904722D01*
X103659585Y-121898016D01*
X103720950Y-121527094D01*
X103721936Y-121524866D01*
X103731698Y-121462132D01*
X103742063Y-121399483D01*
X103742062Y-121399479D01*
X103742417Y-121397337D01*
X103743388Y-121387005D01*
X103843349Y-120744648D01*
X103843941Y-120743289D01*
X103853472Y-120679596D01*
X103863385Y-120615898D01*
X103863384Y-120615895D01*
X103864055Y-120611589D01*
X103864606Y-120605192D01*
X103922537Y-120218086D01*
X103923402Y-120216051D01*
X103932282Y-120152964D01*
X103941714Y-120089943D01*
X103941713Y-120089940D01*
X103942107Y-120087313D01*
X103942849Y-120077900D01*
X104035281Y-119421297D01*
X104035699Y-119420303D01*
X104044466Y-119356049D01*
X104053502Y-119291866D01*
X104053501Y-119291863D01*
X104054248Y-119286562D01*
X104054586Y-119281884D01*
X104108509Y-118886717D01*
X104108965Y-118885618D01*
X104117417Y-118821436D01*
X104126166Y-118757323D01*
X104126165Y-118757320D01*
X104126848Y-118752320D01*
X104127198Y-118747163D01*
X104215048Y-118080091D01*
X104215174Y-118079788D01*
X104223665Y-118014662D01*
X104232213Y-117949759D01*
X104232212Y-117949756D01*
X104233163Y-117942540D01*
X104233256Y-117941104D01*
X104277666Y-117600499D01*
X104293852Y-117476370D01*
X104293865Y-117476268D01*
X104400213Y-116665904D01*
X104400249Y-116665634D01*
X104426435Y-116469444D01*
X104472001Y-116128052D01*
X104472102Y-116127321D01*
X104476002Y-116099501D01*
X104584979Y-115322163D01*
X104585052Y-115321651D01*
X104585159Y-115320917D01*
X104662680Y-114789192D01*
X104662850Y-114788069D01*
X104787986Y-113993574D01*
X104788126Y-113992712D01*
X104789957Y-113981654D01*
X104874842Y-113469018D01*
X104875098Y-113467532D01*
X105015543Y-112687324D01*
X105015653Y-112686729D01*
X105112781Y-112172209D01*
X105113046Y-112170859D01*
X105268261Y-111404697D01*
X105268341Y-111404307D01*
X105352971Y-111001456D01*
X110999500Y-111001456D01*
X110999500Y-127198544D01*
X111037946Y-127391828D01*
X111037948Y-127391832D01*
X111037949Y-127391836D01*
X111043950Y-127406324D01*
X111043950Y-127406325D01*
X111113364Y-127573907D01*
X111113371Y-127573920D01*
X111222860Y-127737781D01*
X111222863Y-127737785D01*
X111366537Y-127881459D01*
X111366559Y-127881479D01*
X112963181Y-129478101D01*
X112996666Y-129539424D01*
X112999500Y-129565782D01*
X112999500Y-131050623D01*
X113014453Y-131125796D01*
X113014455Y-131125803D01*
X113015291Y-131130006D01*
X113037949Y-131243917D01*
X113060038Y-131297246D01*
X113063060Y-131304541D01*
X113113366Y-131425992D01*
X113113371Y-131426001D01*
X113222859Y-131589861D01*
X113222860Y-131589862D01*
X113222861Y-131589863D01*
X113362218Y-131729220D01*
X113362219Y-131729220D01*
X113369286Y-131736287D01*
X113369285Y-131736287D01*
X113369288Y-131736289D01*
X115775138Y-134142140D01*
X115797740Y-134157242D01*
X115797744Y-134157246D01*
X115797745Y-134157245D01*
X115938998Y-134251628D01*
X115939005Y-134251632D01*
X116054572Y-134299501D01*
X116121083Y-134327051D01*
X116217731Y-134346275D01*
X116270557Y-134356783D01*
X116314377Y-134365500D01*
X116314378Y-134365500D01*
X116314379Y-134365500D01*
X116511459Y-134365500D01*
X116654800Y-134365500D01*
X116721839Y-134385185D01*
X116734365Y-134394493D01*
X116907179Y-134520048D01*
X116907181Y-134520049D01*
X116907184Y-134520051D01*
X117096588Y-134616557D01*
X117298757Y-134682246D01*
X117508713Y-134715500D01*
X117508714Y-134715500D01*
X117721286Y-134715500D01*
X117721287Y-134715500D01*
X117931243Y-134682246D01*
X118133412Y-134616557D01*
X118322816Y-134520051D01*
X118347423Y-134502173D01*
X118494786Y-134395109D01*
X118494788Y-134395106D01*
X118494792Y-134395104D01*
X118645104Y-134244792D01*
X118645106Y-134244788D01*
X118645109Y-134244786D01*
X118755060Y-134093450D01*
X118770051Y-134072816D01*
X118866557Y-133883412D01*
X118932246Y-133681243D01*
X118965500Y-133471287D01*
X118965500Y-133258713D01*
X118932246Y-133048757D01*
X118866557Y-132846588D01*
X118770051Y-132657184D01*
X118770049Y-132657181D01*
X118770048Y-132657179D01*
X118645109Y-132485213D01*
X118531181Y-132371285D01*
X118497696Y-132309962D01*
X118502680Y-132240270D01*
X118544552Y-132184337D01*
X118575529Y-132167422D01*
X118707086Y-132118354D01*
X118707093Y-132118350D01*
X118822187Y-132032190D01*
X118822190Y-132032187D01*
X118908350Y-131917093D01*
X118908354Y-131917086D01*
X118958596Y-131782379D01*
X118958598Y-131782372D01*
X118964999Y-131722844D01*
X118965000Y-131722827D01*
X118965000Y-131075000D01*
X118048012Y-131075000D01*
X118080925Y-131017993D01*
X118115000Y-130890826D01*
X118115000Y-130759174D01*
X118080925Y-130632007D01*
X118048012Y-130575000D01*
X118965000Y-130575000D01*
X118965000Y-129927172D01*
X118964999Y-129927155D01*
X118958598Y-129867627D01*
X118958596Y-129867620D01*
X118908354Y-129732913D01*
X118908350Y-129732906D01*
X118822190Y-129617812D01*
X118822187Y-129617809D01*
X118707093Y-129531649D01*
X118707086Y-129531645D01*
X118572379Y-129481403D01*
X118572372Y-129481401D01*
X118512844Y-129475000D01*
X117865000Y-129475000D01*
X117865000Y-130391988D01*
X117807993Y-130359075D01*
X117680826Y-130325000D01*
X117549174Y-130325000D01*
X117422007Y-130359075D01*
X117365000Y-130391988D01*
X117365000Y-129475000D01*
X116717155Y-129475000D01*
X116657627Y-129481401D01*
X116657620Y-129481403D01*
X116522913Y-129531645D01*
X116522906Y-129531649D01*
X116407812Y-129617809D01*
X116407809Y-129617812D01*
X116321649Y-129732906D01*
X116321645Y-129732913D01*
X116271403Y-129867620D01*
X116271401Y-129867627D01*
X116265000Y-129927155D01*
X116265000Y-130575000D01*
X117181988Y-130575000D01*
X117149075Y-130632007D01*
X117115000Y-130759174D01*
X117115000Y-130890826D01*
X117149075Y-131017993D01*
X117181988Y-131075000D01*
X116265000Y-131075000D01*
X116265000Y-131502798D01*
X116245315Y-131569837D01*
X116192511Y-131615592D01*
X116123353Y-131625536D01*
X116059797Y-131596511D01*
X116053319Y-131590479D01*
X115036819Y-130573979D01*
X115003334Y-130512656D01*
X115000500Y-130486298D01*
X115000500Y-129001458D01*
X115000499Y-129001457D01*
X114979651Y-128896643D01*
X114962051Y-128808164D01*
X114928276Y-128726624D01*
X114917693Y-128701074D01*
X114886635Y-128626092D01*
X114886628Y-128626079D01*
X114777139Y-128462218D01*
X114777136Y-128462214D01*
X114634686Y-128319764D01*
X114634655Y-128319735D01*
X113036819Y-126721899D01*
X113003334Y-126660576D01*
X113000500Y-126634218D01*
X113000500Y-125714197D01*
X124000001Y-125714197D01*
X124010400Y-125846332D01*
X124065377Y-126064519D01*
X124158428Y-126269374D01*
X124158431Y-126269380D01*
X124286559Y-126454323D01*
X124286569Y-126454335D01*
X124445664Y-126613430D01*
X124445676Y-126613440D01*
X124630619Y-126741568D01*
X124630625Y-126741571D01*
X124835480Y-126834622D01*
X125053667Y-126889599D01*
X125185809Y-126899999D01*
X126749999Y-126899999D01*
X127250000Y-126899999D01*
X128814182Y-126899999D01*
X128814197Y-126899998D01*
X128946332Y-126889599D01*
X129164519Y-126834622D01*
X129369374Y-126741571D01*
X129369380Y-126741568D01*
X129554323Y-126613440D01*
X129554335Y-126613430D01*
X129713430Y-126454335D01*
X129713440Y-126454323D01*
X129841568Y-126269380D01*
X129841571Y-126269374D01*
X129934622Y-126064519D01*
X129989599Y-125846332D01*
X129999999Y-125714196D01*
X130000000Y-125714184D01*
X130000000Y-125150000D01*
X127250000Y-125150000D01*
X127250000Y-126899999D01*
X126749999Y-126899999D01*
X126750000Y-126899998D01*
X126750000Y-125150000D01*
X124000001Y-125150000D01*
X124000001Y-125714197D01*
X113000500Y-125714197D01*
X113000500Y-124085803D01*
X124000000Y-124085803D01*
X124000000Y-124650000D01*
X126750000Y-124650000D01*
X127250000Y-124650000D01*
X129999999Y-124650000D01*
X129999999Y-124085817D01*
X129999998Y-124085802D01*
X129989599Y-123953667D01*
X129934622Y-123735480D01*
X129841571Y-123530625D01*
X129841568Y-123530619D01*
X129713440Y-123345676D01*
X129713430Y-123345664D01*
X129554335Y-123186569D01*
X129554323Y-123186559D01*
X129369380Y-123058431D01*
X129369374Y-123058428D01*
X129164519Y-122965377D01*
X128946332Y-122910400D01*
X128814196Y-122900000D01*
X127250000Y-122900000D01*
X127250000Y-124650000D01*
X126750000Y-124650000D01*
X126750000Y-122900000D01*
X125185817Y-122900000D01*
X125185802Y-122900001D01*
X125053667Y-122910400D01*
X124835480Y-122965377D01*
X124630625Y-123058428D01*
X124630619Y-123058431D01*
X124445676Y-123186559D01*
X124445664Y-123186569D01*
X124286569Y-123345664D01*
X124286559Y-123345676D01*
X124158431Y-123530619D01*
X124158428Y-123530625D01*
X124065377Y-123735480D01*
X124010400Y-123953667D01*
X124000000Y-124085803D01*
X113000500Y-124085803D01*
X113000500Y-111565782D01*
X113020185Y-111498743D01*
X113036819Y-111478101D01*
X114653101Y-109861819D01*
X114714424Y-109828334D01*
X114740782Y-109825500D01*
X117200859Y-109825500D01*
X117267898Y-109845185D01*
X117313653Y-109897989D01*
X117317030Y-109906140D01*
X117321204Y-109917331D01*
X117321205Y-109917332D01*
X117321206Y-109917335D01*
X117407452Y-110032544D01*
X117407455Y-110032547D01*
X117522664Y-110118793D01*
X117522671Y-110118797D01*
X117654082Y-110167810D01*
X117710016Y-110209681D01*
X117734433Y-110275145D01*
X117719582Y-110343418D01*
X117698431Y-110371673D01*
X117584889Y-110485215D01*
X117459951Y-110657179D01*
X117363444Y-110846585D01*
X117297753Y-111048760D01*
X117264500Y-111258713D01*
X117264500Y-111471286D01*
X117291462Y-111641521D01*
X117297754Y-111681243D01*
X117359621Y-111871650D01*
X117363444Y-111883414D01*
X117459951Y-112072820D01*
X117587759Y-112248734D01*
X117586888Y-112249366D01*
X117613357Y-112308401D01*
X117614500Y-112325199D01*
X117614500Y-114813536D01*
X117614501Y-114813551D01*
X117615033Y-114816227D01*
X117615044Y-114816279D01*
X117615366Y-114817893D01*
X117652949Y-115006836D01*
X117660798Y-115025784D01*
X117664828Y-115035514D01*
X117664829Y-115035517D01*
X117728364Y-115188906D01*
X117728371Y-115188919D01*
X117837860Y-115352782D01*
X117981537Y-115496459D01*
X117981559Y-115496479D01*
X121219735Y-118734655D01*
X121219764Y-118734686D01*
X121362214Y-118877136D01*
X121362218Y-118877139D01*
X121526079Y-118986628D01*
X121526092Y-118986635D01*
X121623504Y-119026983D01*
X121647780Y-119037039D01*
X121708164Y-119062051D01*
X121743064Y-119068993D01*
X121835311Y-119087342D01*
X121901456Y-119100500D01*
X121901459Y-119100500D01*
X121901460Y-119100500D01*
X122098540Y-119100500D01*
X123926903Y-119100500D01*
X123993942Y-119120185D01*
X124039697Y-119172989D01*
X124047141Y-119194193D01*
X124058410Y-119238913D01*
X124064904Y-119264685D01*
X124157991Y-119469622D01*
X124157997Y-119469632D01*
X124286174Y-119654645D01*
X124286178Y-119654650D01*
X124286181Y-119654654D01*
X124445346Y-119813819D01*
X124445350Y-119813822D01*
X124445354Y-119813825D01*
X124555058Y-119889828D01*
X124630374Y-119942007D01*
X124835317Y-120035096D01*
X124835321Y-120035097D01*
X125053579Y-120090094D01*
X125053581Y-120090094D01*
X125053588Y-120090096D01*
X125185783Y-120100500D01*
X128814216Y-120100499D01*
X128946412Y-120090096D01*
X129164683Y-120035096D01*
X129369626Y-119942007D01*
X129554654Y-119813819D01*
X129713819Y-119654654D01*
X129842007Y-119469626D01*
X129935096Y-119264683D01*
X129990096Y-119046412D01*
X130000500Y-118914217D01*
X130000499Y-117285784D01*
X129990096Y-117153588D01*
X129978427Y-117107280D01*
X129935097Y-116935321D01*
X129935096Y-116935318D01*
X129935094Y-116935314D01*
X129842007Y-116730374D01*
X129770576Y-116627269D01*
X129713825Y-116545354D01*
X129713822Y-116545350D01*
X129713819Y-116545346D01*
X129554654Y-116386181D01*
X129554650Y-116386178D01*
X129554645Y-116386174D01*
X129369632Y-116257997D01*
X129369630Y-116257995D01*
X129369626Y-116257993D01*
X129317587Y-116234356D01*
X129164681Y-116164903D01*
X129164678Y-116164902D01*
X128946420Y-116109905D01*
X128946413Y-116109904D01*
X128902347Y-116106436D01*
X128814217Y-116099500D01*
X128814215Y-116099500D01*
X125185791Y-116099500D01*
X125185776Y-116099501D01*
X125053586Y-116109904D01*
X125053579Y-116109905D01*
X124835321Y-116164902D01*
X124835318Y-116164903D01*
X124630377Y-116257991D01*
X124630367Y-116257997D01*
X124445354Y-116386174D01*
X124445342Y-116386184D01*
X124286184Y-116545342D01*
X124286174Y-116545354D01*
X124157997Y-116730367D01*
X124157991Y-116730377D01*
X124064904Y-116935314D01*
X124056669Y-116967996D01*
X124047143Y-117005800D01*
X124011677Y-117065996D01*
X123949293Y-117097462D01*
X123926903Y-117099500D01*
X122465782Y-117099500D01*
X122398743Y-117079815D01*
X122378101Y-117063181D01*
X119651819Y-114336899D01*
X119618334Y-114275576D01*
X119615500Y-114249218D01*
X119615500Y-112325199D01*
X119635185Y-112258160D01*
X119644471Y-112245664D01*
X119770048Y-112072820D01*
X119770047Y-112072820D01*
X119770051Y-112072816D01*
X119866557Y-111883412D01*
X119932246Y-111681243D01*
X119965500Y-111471287D01*
X119965500Y-111258713D01*
X119932246Y-111048757D01*
X119866557Y-110846588D01*
X119770051Y-110657184D01*
X119770049Y-110657181D01*
X119770048Y-110657179D01*
X119645109Y-110485213D01*
X119531569Y-110371673D01*
X119498084Y-110310350D01*
X119503068Y-110240658D01*
X119544940Y-110184725D01*
X119575915Y-110167810D01*
X119707331Y-110118796D01*
X119822546Y-110032546D01*
X119908796Y-109917331D01*
X119959091Y-109782483D01*
X119965500Y-109722873D01*
X119965499Y-107927128D01*
X119959091Y-107867517D01*
X119957387Y-107862949D01*
X119908797Y-107732671D01*
X119908793Y-107732664D01*
X119822547Y-107617455D01*
X119822544Y-107617452D01*
X119707335Y-107531206D01*
X119707328Y-107531202D01*
X119572482Y-107480908D01*
X119572483Y-107480908D01*
X119512883Y-107474501D01*
X119512881Y-107474500D01*
X119512873Y-107474500D01*
X119512864Y-107474500D01*
X117717129Y-107474500D01*
X117717123Y-107474501D01*
X117657516Y-107480908D01*
X117522671Y-107531202D01*
X117522664Y-107531206D01*
X117407455Y-107617452D01*
X117407452Y-107617455D01*
X117321206Y-107732664D01*
X117321204Y-107732668D01*
X117321204Y-107732669D01*
X117317039Y-107743834D01*
X117275171Y-107799766D01*
X117209707Y-107824184D01*
X117200859Y-107824500D01*
X114176458Y-107824500D01*
X114126917Y-107834354D01*
X114126905Y-107834357D01*
X114123723Y-107834990D01*
X113983164Y-107862949D01*
X113941633Y-107880152D01*
X113933395Y-107883564D01*
X113933388Y-107883566D01*
X113801092Y-107938364D01*
X113801079Y-107938371D01*
X113637219Y-108047859D01*
X113578203Y-108106876D01*
X113497861Y-108187218D01*
X113497858Y-108187221D01*
X111362221Y-110322858D01*
X111362218Y-110322861D01*
X111313406Y-110371673D01*
X111222859Y-110462219D01*
X111113369Y-110626082D01*
X111083873Y-110697292D01*
X111083868Y-110697304D01*
X111082545Y-110700500D01*
X111037949Y-110808164D01*
X111030306Y-110846588D01*
X111028604Y-110855141D01*
X111028603Y-110855146D01*
X110999500Y-111001456D01*
X105352971Y-111001456D01*
X105374713Y-110897963D01*
X105374949Y-110896870D01*
X105383578Y-110857733D01*
X105541253Y-110142525D01*
X105654093Y-109641740D01*
X105826381Y-108895018D01*
X105826424Y-108895028D01*
X105826425Y-108894824D01*
X105942236Y-108396584D01*
X105942256Y-108396549D01*
X105942245Y-108396547D01*
X105979799Y-108235230D01*
X106100000Y-107718896D01*
X106100112Y-107718687D01*
X106114989Y-107654507D01*
X106129827Y-107590774D01*
X106129826Y-107590772D01*
X106131530Y-107583458D01*
X106131700Y-107582423D01*
X106155233Y-107480908D01*
X106214941Y-107223347D01*
X106215284Y-107222699D01*
X106229805Y-107159227D01*
X106244536Y-107095683D01*
X106244535Y-107095679D01*
X106245935Y-107089644D01*
X106246447Y-107086484D01*
X106385033Y-106480732D01*
X106385279Y-106480266D01*
X106399652Y-106416832D01*
X106414305Y-106352787D01*
X106414304Y-106352786D01*
X106415808Y-106346217D01*
X106416177Y-106343904D01*
X106438324Y-106246163D01*
X106497499Y-105985012D01*
X106497857Y-105984328D01*
X106512091Y-105920613D01*
X106526452Y-105857237D01*
X106526451Y-105857232D01*
X106527800Y-105851283D01*
X106528320Y-105847968D01*
X106663921Y-105241008D01*
X106664056Y-105240751D01*
X106678314Y-105176583D01*
X106692592Y-105112678D01*
X106692591Y-105112677D01*
X106694214Y-105105418D01*
X106694410Y-105104147D01*
X106720511Y-104986692D01*
X106790502Y-104671721D01*
X106954342Y-103934568D01*
X107065460Y-103437769D01*
X107236377Y-102690652D01*
X107352324Y-102193877D01*
X107352503Y-102193126D01*
X107534670Y-101445822D01*
X107534846Y-101445114D01*
X107563319Y-101331813D01*
X107659496Y-100949086D01*
X107659906Y-100947500D01*
X107709259Y-100761692D01*
X107858494Y-100199835D01*
X107858675Y-100199169D01*
X107995085Y-99702802D01*
X107995505Y-99701316D01*
X108212733Y-98952696D01*
X108212995Y-98951808D01*
X108248473Y-98833098D01*
X108361816Y-98453849D01*
X108362163Y-98452714D01*
X108595874Y-97701648D01*
X108754840Y-97200012D01*
X108998641Y-96444744D01*
X109141859Y-96002897D01*
X109142095Y-96002534D01*
X109162171Y-95940233D01*
X109182361Y-95877947D01*
X109182361Y-95877944D01*
X109184520Y-95871284D01*
X109184985Y-95869439D01*
X109261296Y-95632635D01*
X109386517Y-95244059D01*
X109386935Y-95243410D01*
X109406709Y-95181404D01*
X109426702Y-95119364D01*
X109426702Y-95119363D01*
X109428580Y-95113536D01*
X109429401Y-95110246D01*
X109435190Y-95092093D01*
X109548777Y-94735920D01*
X109549903Y-94734134D01*
X109568780Y-94673196D01*
X109588176Y-94612379D01*
X109588176Y-94612376D01*
X109589052Y-94609630D01*
X109591190Y-94600858D01*
X109785512Y-93973585D01*
X109786390Y-93972173D01*
X109805011Y-93910643D01*
X109824018Y-93849291D01*
X109824018Y-93849288D01*
X109825179Y-93845541D01*
X109826820Y-93838580D01*
X109937372Y-93473294D01*
X109942109Y-93460440D01*
X109942226Y-93460033D01*
X109942228Y-93460031D01*
X109959451Y-93400366D01*
X109959763Y-93399313D01*
X109977769Y-93339820D01*
X109977769Y-93339816D01*
X109977888Y-93339424D01*
X109980912Y-93326025D01*
X109988152Y-93300946D01*
X110162107Y-92698369D01*
X110163184Y-92696551D01*
X110180366Y-92635121D01*
X110198072Y-92573788D01*
X110198072Y-92573782D01*
X110198874Y-92571005D01*
X110200772Y-92562162D01*
X110212942Y-92518652D01*
X110221752Y-92487155D01*
X123570000Y-92487155D01*
X123570000Y-93135000D01*
X124486988Y-93135000D01*
X124454075Y-93192007D01*
X124420000Y-93319174D01*
X124420000Y-93450826D01*
X124454075Y-93577993D01*
X124486988Y-93635000D01*
X123570000Y-93635000D01*
X123570000Y-94282844D01*
X123576401Y-94342372D01*
X123576403Y-94342379D01*
X123626645Y-94477086D01*
X123626649Y-94477093D01*
X123712809Y-94592187D01*
X123712812Y-94592190D01*
X123827906Y-94678350D01*
X123827913Y-94678354D01*
X123962620Y-94728596D01*
X123962627Y-94728598D01*
X124022155Y-94734999D01*
X124022172Y-94735000D01*
X124670000Y-94735000D01*
X124670000Y-93818012D01*
X124727007Y-93850925D01*
X124854174Y-93885000D01*
X124985826Y-93885000D01*
X125112993Y-93850925D01*
X125170000Y-93818012D01*
X125170000Y-94735000D01*
X125817828Y-94735000D01*
X125817844Y-94734999D01*
X125877372Y-94728598D01*
X125877379Y-94728596D01*
X126012086Y-94678354D01*
X126012093Y-94678350D01*
X126127187Y-94592190D01*
X126127190Y-94592187D01*
X126213350Y-94477093D01*
X126213354Y-94477086D01*
X126262422Y-94345529D01*
X126304293Y-94289595D01*
X126369757Y-94265178D01*
X126438030Y-94280030D01*
X126466285Y-94301181D01*
X126580213Y-94415109D01*
X126752179Y-94540048D01*
X126752181Y-94540049D01*
X126752184Y-94540051D01*
X126941588Y-94636557D01*
X127143757Y-94702246D01*
X127353713Y-94735500D01*
X127353714Y-94735500D01*
X127566286Y-94735500D01*
X127566287Y-94735500D01*
X127776243Y-94702246D01*
X127978412Y-94636557D01*
X128167816Y-94540051D01*
X128254471Y-94477093D01*
X128339786Y-94415109D01*
X128339788Y-94415106D01*
X128339792Y-94415104D01*
X128490104Y-94264792D01*
X128490106Y-94264788D01*
X128490109Y-94264786D01*
X128615048Y-94092820D01*
X128615047Y-94092820D01*
X128615051Y-94092816D01*
X128619514Y-94084054D01*
X128667488Y-94033259D01*
X128735308Y-94016463D01*
X128801444Y-94038999D01*
X128840486Y-94084056D01*
X128844951Y-94092820D01*
X128969890Y-94264786D01*
X129120213Y-94415109D01*
X129292179Y-94540048D01*
X129292181Y-94540049D01*
X129292184Y-94540051D01*
X129481588Y-94636557D01*
X129683757Y-94702246D01*
X129893713Y-94735500D01*
X129893714Y-94735500D01*
X130106286Y-94735500D01*
X130106287Y-94735500D01*
X130316243Y-94702246D01*
X130518412Y-94636557D01*
X130707816Y-94540051D01*
X130794471Y-94477093D01*
X130879786Y-94415109D01*
X130879788Y-94415106D01*
X130879792Y-94415104D01*
X131030104Y-94264792D01*
X131030106Y-94264788D01*
X131030109Y-94264786D01*
X131155048Y-94092820D01*
X131155047Y-94092820D01*
X131155051Y-94092816D01*
X131159514Y-94084054D01*
X131207488Y-94033259D01*
X131275308Y-94016463D01*
X131341444Y-94038999D01*
X131380486Y-94084056D01*
X131384951Y-94092820D01*
X131509890Y-94264786D01*
X131660213Y-94415109D01*
X131832179Y-94540048D01*
X131832181Y-94540049D01*
X131832184Y-94540051D01*
X132021588Y-94636557D01*
X132223757Y-94702246D01*
X132433713Y-94735500D01*
X132433714Y-94735500D01*
X132646286Y-94735500D01*
X132646287Y-94735500D01*
X132802771Y-94710715D01*
X132872064Y-94719670D01*
X132909850Y-94745507D01*
X133343181Y-95178838D01*
X133376666Y-95240161D01*
X133379500Y-95266519D01*
X133379500Y-96011006D01*
X133379500Y-96148994D01*
X133379500Y-96148996D01*
X133379499Y-96148996D01*
X133406418Y-96284322D01*
X133406421Y-96284332D01*
X133459222Y-96411807D01*
X133535887Y-96526545D01*
X133535888Y-96526546D01*
X134455886Y-97446542D01*
X134518330Y-97508986D01*
X134553459Y-97544115D01*
X134668182Y-97620771D01*
X134668195Y-97620778D01*
X134735255Y-97648555D01*
X134765463Y-97661067D01*
X134795671Y-97673580D01*
X134795674Y-97673580D01*
X134795679Y-97673582D01*
X134822545Y-97678925D01*
X134822551Y-97678926D01*
X134822591Y-97678934D01*
X134912937Y-97696905D01*
X134931006Y-97700500D01*
X134931007Y-97700500D01*
X136658481Y-97700500D01*
X136725520Y-97720185D01*
X136746162Y-97736819D01*
X141263181Y-102253838D01*
X141296666Y-102315161D01*
X141299500Y-102341519D01*
X141299500Y-119931006D01*
X141299500Y-120068994D01*
X141299500Y-120068996D01*
X141299499Y-120068996D01*
X141326418Y-120204322D01*
X141326421Y-120204332D01*
X141379222Y-120331807D01*
X141455887Y-120446545D01*
X141455888Y-120446546D01*
X153263181Y-132253838D01*
X153296666Y-132315161D01*
X153299500Y-132341519D01*
X153299500Y-134931006D01*
X153299500Y-135068994D01*
X153299500Y-135068996D01*
X153299499Y-135068996D01*
X153326418Y-135204322D01*
X153326421Y-135204332D01*
X153379222Y-135331807D01*
X153455887Y-135446545D01*
X153455888Y-135446546D01*
X159455886Y-141446542D01*
X159553456Y-141544112D01*
X159553459Y-141544115D01*
X159668182Y-141620771D01*
X159668195Y-141620778D01*
X159699435Y-141633717D01*
X159721483Y-141642850D01*
X159795671Y-141673580D01*
X159822591Y-141678934D01*
X159919548Y-141698220D01*
X159931006Y-141700500D01*
X159931007Y-141700500D01*
X177068996Y-141700500D01*
X177160040Y-141682389D01*
X177204328Y-141673580D01*
X177281902Y-141641448D01*
X177331807Y-141620777D01*
X177331808Y-141620776D01*
X177331811Y-141620775D01*
X177446543Y-141544114D01*
X180253838Y-138736819D01*
X180315161Y-138703334D01*
X180341519Y-138700500D01*
X182068996Y-138700500D01*
X182160040Y-138682389D01*
X182204328Y-138673580D01*
X182306008Y-138631463D01*
X182331807Y-138620777D01*
X182331808Y-138620776D01*
X182331811Y-138620775D01*
X182446543Y-138544114D01*
X183269757Y-137720898D01*
X183331080Y-137687414D01*
X183400771Y-137692398D01*
X183456705Y-137734269D01*
X183481122Y-137799734D01*
X183479912Y-137827973D01*
X183469500Y-137893713D01*
X183469500Y-137893718D01*
X183469500Y-138106286D01*
X183495568Y-138270877D01*
X183502754Y-138316243D01*
X183510647Y-138340536D01*
X183568444Y-138518414D01*
X183664951Y-138707820D01*
X183789890Y-138879786D01*
X183940213Y-139030109D01*
X184112179Y-139155048D01*
X184112181Y-139155049D01*
X184112184Y-139155051D01*
X184301588Y-139251557D01*
X184503757Y-139317246D01*
X184713713Y-139350500D01*
X184713714Y-139350500D01*
X184926286Y-139350500D01*
X184926287Y-139350500D01*
X185136243Y-139317246D01*
X185338412Y-139251557D01*
X185527816Y-139155051D01*
X185561593Y-139130511D01*
X185699786Y-139030109D01*
X185699788Y-139030106D01*
X185699792Y-139030104D01*
X185850104Y-138879792D01*
X185850106Y-138879788D01*
X185850109Y-138879786D01*
X185975048Y-138707820D01*
X185975047Y-138707820D01*
X185975051Y-138707816D01*
X185979514Y-138699054D01*
X186027488Y-138648259D01*
X186095308Y-138631463D01*
X186161444Y-138653999D01*
X186200484Y-138699054D01*
X186204591Y-138707115D01*
X186204951Y-138707820D01*
X186329890Y-138879786D01*
X186480213Y-139030109D01*
X186652179Y-139155048D01*
X186652181Y-139155049D01*
X186652184Y-139155051D01*
X186841588Y-139251557D01*
X187043757Y-139317246D01*
X187253713Y-139350500D01*
X187253714Y-139350500D01*
X187466286Y-139350500D01*
X187466287Y-139350500D01*
X187676243Y-139317246D01*
X187878412Y-139251557D01*
X188067816Y-139155051D01*
X188101593Y-139130511D01*
X188239786Y-139030109D01*
X188239788Y-139030106D01*
X188239792Y-139030104D01*
X188390104Y-138879792D01*
X188390106Y-138879788D01*
X188390109Y-138879786D01*
X188515048Y-138707820D01*
X188515047Y-138707820D01*
X188515051Y-138707816D01*
X188519514Y-138699054D01*
X188567488Y-138648259D01*
X188635308Y-138631463D01*
X188701444Y-138653999D01*
X188740484Y-138699054D01*
X188744591Y-138707115D01*
X188744951Y-138707820D01*
X188869890Y-138879786D01*
X189020213Y-139030109D01*
X189192179Y-139155048D01*
X189192181Y-139155049D01*
X189192184Y-139155051D01*
X189381588Y-139251557D01*
X189583757Y-139317246D01*
X189793713Y-139350500D01*
X189793714Y-139350500D01*
X190006286Y-139350500D01*
X190006287Y-139350500D01*
X190216243Y-139317246D01*
X190418412Y-139251557D01*
X190607816Y-139155051D01*
X190641593Y-139130511D01*
X190779786Y-139030109D01*
X190779788Y-139030106D01*
X190779792Y-139030104D01*
X190930104Y-138879792D01*
X190930106Y-138879788D01*
X190930109Y-138879786D01*
X191055048Y-138707820D01*
X191055047Y-138707820D01*
X191055051Y-138707816D01*
X191059514Y-138699054D01*
X191107488Y-138648259D01*
X191175308Y-138631463D01*
X191241444Y-138653999D01*
X191280484Y-138699054D01*
X191284591Y-138707115D01*
X191284951Y-138707820D01*
X191409890Y-138879786D01*
X191560213Y-139030109D01*
X191732179Y-139155048D01*
X191732181Y-139155049D01*
X191732184Y-139155051D01*
X191921588Y-139251557D01*
X192123757Y-139317246D01*
X192333713Y-139350500D01*
X192333714Y-139350500D01*
X192546286Y-139350500D01*
X192546287Y-139350500D01*
X192702771Y-139325715D01*
X192772064Y-139334670D01*
X192809850Y-139360507D01*
X193263181Y-139813838D01*
X193296666Y-139875161D01*
X193299500Y-139901519D01*
X193299500Y-141931006D01*
X193299500Y-142068994D01*
X193299500Y-142068996D01*
X193299499Y-142068996D01*
X193326418Y-142204322D01*
X193326421Y-142204332D01*
X193379222Y-142331807D01*
X193455887Y-142446545D01*
X195553454Y-144544112D01*
X195668192Y-144620777D01*
X195795667Y-144673578D01*
X195795672Y-144673580D01*
X195795676Y-144673580D01*
X195795677Y-144673581D01*
X195931004Y-144700500D01*
X195931007Y-144700500D01*
X228658481Y-144700500D01*
X228725520Y-144720185D01*
X228746162Y-144736819D01*
X234455886Y-150446542D01*
X234520764Y-150511420D01*
X234553459Y-150544115D01*
X234668182Y-150620771D01*
X234668195Y-150620778D01*
X234715528Y-150640384D01*
X234715537Y-150640387D01*
X234718837Y-150641754D01*
X234795671Y-150673580D01*
X234822591Y-150678934D01*
X234918996Y-150698110D01*
X234931006Y-150700500D01*
X234931007Y-150700500D01*
X239068996Y-150700500D01*
X239177412Y-150678934D01*
X239204328Y-150673580D01*
X239303584Y-150632467D01*
X239331807Y-150620777D01*
X239331808Y-150620776D01*
X239331811Y-150620775D01*
X239446543Y-150544114D01*
X254544113Y-135446543D01*
X254563988Y-135416799D01*
X254620775Y-135331811D01*
X254673580Y-135204328D01*
X254696145Y-135090886D01*
X254700500Y-135068995D01*
X254700500Y-108931004D01*
X254677692Y-108816348D01*
X254675856Y-108807116D01*
X254673580Y-108795671D01*
X254647481Y-108732664D01*
X254620775Y-108668189D01*
X254544114Y-108553458D01*
X254446542Y-108455886D01*
X252470922Y-106480266D01*
X246446546Y-100455888D01*
X246446545Y-100455887D01*
X246331807Y-100379222D01*
X246204332Y-100326421D01*
X246204322Y-100326418D01*
X246068996Y-100299500D01*
X246068994Y-100299500D01*
X246068993Y-100299500D01*
X243421519Y-100299500D01*
X243354480Y-100279815D01*
X243333838Y-100263181D01*
X237440507Y-94369850D01*
X237407022Y-94308527D01*
X237405715Y-94262771D01*
X237406060Y-94260597D01*
X237430500Y-94106287D01*
X237430500Y-93893713D01*
X237397246Y-93683757D01*
X237331557Y-93481588D01*
X237235051Y-93292184D01*
X237235049Y-93292181D01*
X237235048Y-93292179D01*
X237110109Y-93120213D01*
X236959786Y-92969890D01*
X236787820Y-92844951D01*
X236598414Y-92748444D01*
X236598413Y-92748443D01*
X236598412Y-92748443D01*
X236396243Y-92682754D01*
X236396241Y-92682753D01*
X236396240Y-92682753D01*
X236231632Y-92656682D01*
X236186287Y-92649500D01*
X235973713Y-92649500D01*
X235928368Y-92656682D01*
X235763760Y-92682753D01*
X235561585Y-92748444D01*
X235372179Y-92844951D01*
X235200213Y-92969890D01*
X235049890Y-93120213D01*
X234924949Y-93292182D01*
X234920484Y-93300946D01*
X234872509Y-93351742D01*
X234804688Y-93368536D01*
X234738553Y-93345998D01*
X234699516Y-93300946D01*
X234695050Y-93292182D01*
X234570109Y-93120213D01*
X234419786Y-92969890D01*
X234247820Y-92844951D01*
X234058414Y-92748444D01*
X234058413Y-92748443D01*
X234058412Y-92748443D01*
X233856243Y-92682754D01*
X233856241Y-92682753D01*
X233856240Y-92682753D01*
X233691632Y-92656682D01*
X233646287Y-92649500D01*
X233433713Y-92649500D01*
X233388368Y-92656682D01*
X233223760Y-92682753D01*
X233021585Y-92748444D01*
X232832179Y-92844951D01*
X232660213Y-92969890D01*
X232509890Y-93120213D01*
X232384949Y-93292182D01*
X232380484Y-93300946D01*
X232332509Y-93351742D01*
X232264688Y-93368536D01*
X232198553Y-93345998D01*
X232159516Y-93300946D01*
X232155050Y-93292182D01*
X232030109Y-93120213D01*
X231879786Y-92969890D01*
X231707820Y-92844951D01*
X231518414Y-92748444D01*
X231518413Y-92748443D01*
X231518412Y-92748443D01*
X231316243Y-92682754D01*
X231316241Y-92682753D01*
X231316240Y-92682753D01*
X231151632Y-92656682D01*
X231106287Y-92649500D01*
X230893713Y-92649500D01*
X230848368Y-92656682D01*
X230683760Y-92682753D01*
X230481585Y-92748444D01*
X230292179Y-92844951D01*
X230120213Y-92969890D01*
X229969890Y-93120213D01*
X229844949Y-93292182D01*
X229840484Y-93300946D01*
X229792509Y-93351742D01*
X229724688Y-93368536D01*
X229658553Y-93345998D01*
X229619516Y-93300946D01*
X229615050Y-93292182D01*
X229490109Y-93120213D01*
X229396819Y-93026923D01*
X229363334Y-92965600D01*
X229360500Y-92939242D01*
X229360500Y-91371308D01*
X229354574Y-91341519D01*
X229350936Y-91323228D01*
X229349331Y-91315161D01*
X229325896Y-91197341D01*
X229325895Y-91197334D01*
X229272734Y-91068994D01*
X229258013Y-91033453D01*
X229191631Y-90934106D01*
X229159464Y-90885964D01*
X229159462Y-90885961D01*
X227936819Y-89663318D01*
X227903334Y-89601995D01*
X227900500Y-89575637D01*
X227900500Y-81911307D01*
X227894394Y-81880614D01*
X227890321Y-81860136D01*
X227865895Y-81737334D01*
X227831953Y-81655393D01*
X227798013Y-81573453D01*
X227718242Y-81454068D01*
X227706703Y-81436798D01*
X227699466Y-81425966D01*
X227206819Y-80933319D01*
X227173334Y-80871996D01*
X227170500Y-80845638D01*
X227170500Y-79181306D01*
X227170499Y-79181304D01*
X227135896Y-79007341D01*
X227135893Y-79007332D01*
X227068016Y-78843459D01*
X227068009Y-78843446D01*
X226969465Y-78695966D01*
X226920953Y-78647454D01*
X226844035Y-78570536D01*
X225536158Y-77262659D01*
X221574039Y-73300538D01*
X221574038Y-73300537D01*
X221543025Y-73279815D01*
X221488063Y-73243091D01*
X221426547Y-73201987D01*
X221344606Y-73168046D01*
X221339429Y-73165901D01*
X221339426Y-73165900D01*
X221262666Y-73134105D01*
X221262658Y-73134103D01*
X221088696Y-73099500D01*
X221088692Y-73099500D01*
X221088691Y-73099500D01*
X217424362Y-73099500D01*
X217357323Y-73079815D01*
X217336681Y-73063181D01*
X208574039Y-64300538D01*
X208519291Y-64263957D01*
X208481602Y-64238774D01*
X208426547Y-64201987D01*
X208323534Y-64159318D01*
X208319173Y-64157511D01*
X208319166Y-64157508D01*
X208262666Y-64134105D01*
X208262658Y-64134103D01*
X208088696Y-64099500D01*
X208088692Y-64099500D01*
X208088691Y-64099500D01*
X185088692Y-64099500D01*
X184911308Y-64099500D01*
X184911303Y-64099500D01*
X184737341Y-64134103D01*
X184737333Y-64134105D01*
X184676465Y-64159318D01*
X184573455Y-64201985D01*
X184573446Y-64201990D01*
X184425966Y-64300534D01*
X184425964Y-64300537D01*
X180300540Y-68425958D01*
X180300537Y-68425961D01*
X180282675Y-68452694D01*
X180282669Y-68452703D01*
X180280543Y-68455886D01*
X180201987Y-68573453D01*
X180179559Y-68627600D01*
X180176364Y-68635313D01*
X180176363Y-68635315D01*
X180134105Y-68737333D01*
X180134103Y-68737341D01*
X180105127Y-68883010D01*
X180105128Y-68883011D01*
X180099500Y-68911308D01*
X180099500Y-77088696D01*
X180134103Y-77262659D01*
X180134105Y-77262665D01*
X180159374Y-77323669D01*
X180159373Y-77323669D01*
X180159374Y-77323670D01*
X180201984Y-77426542D01*
X180234884Y-77475781D01*
X180300535Y-77574036D01*
X180300538Y-77574039D01*
X180999999Y-78273499D01*
X181695964Y-78969464D01*
X181718768Y-78984701D01*
X181718772Y-78984705D01*
X181718773Y-78984704D01*
X181843453Y-79068013D01*
X181913826Y-79097162D01*
X181924898Y-79101748D01*
X181924899Y-79101749D01*
X181928388Y-79103194D01*
X182007334Y-79135895D01*
X182181303Y-79170499D01*
X182181307Y-79170500D01*
X182181308Y-79170500D01*
X182181309Y-79170500D01*
X191445825Y-79170500D01*
X191512864Y-79190185D01*
X191545091Y-79220189D01*
X191628451Y-79331543D01*
X191628452Y-79331544D01*
X191628454Y-79331546D01*
X191739812Y-79414909D01*
X191781682Y-79470841D01*
X191789500Y-79514174D01*
X191789500Y-83885638D01*
X191769815Y-83952677D01*
X191753181Y-83973319D01*
X189663319Y-86063181D01*
X189601996Y-86096666D01*
X189575638Y-86099500D01*
X187911306Y-86099500D01*
X187793851Y-86122864D01*
X187793850Y-86122864D01*
X187737341Y-86134103D01*
X187737332Y-86134106D01*
X187573459Y-86201983D01*
X187573446Y-86201990D01*
X187425966Y-86300534D01*
X187425964Y-86300537D01*
X182647681Y-91078819D01*
X182586358Y-91112304D01*
X182516666Y-91107320D01*
X182472319Y-91078819D01*
X177694041Y-86300540D01*
X177694038Y-86300537D01*
X177626817Y-86255622D01*
X177546544Y-86201985D01*
X177546542Y-86201984D01*
X177464607Y-86168046D01*
X177464606Y-86168046D01*
X177382666Y-86134105D01*
X177382658Y-86134103D01*
X177208696Y-86099500D01*
X177208692Y-86099500D01*
X177208691Y-86099500D01*
X156424361Y-86099500D01*
X156357322Y-86079815D01*
X156336680Y-86063181D01*
X148574039Y-78300538D01*
X148574034Y-78300534D01*
X148519333Y-78263985D01*
X148519334Y-78263985D01*
X148514152Y-78260523D01*
X148426547Y-78201987D01*
X148324391Y-78159673D01*
X148318881Y-78157390D01*
X148318878Y-78157389D01*
X148262666Y-78134105D01*
X148262658Y-78134103D01*
X148088696Y-78099500D01*
X148088692Y-78099500D01*
X148088691Y-78099500D01*
X143424361Y-78099500D01*
X143357322Y-78079815D01*
X143336680Y-78063181D01*
X142574039Y-77300538D01*
X142574038Y-77300537D01*
X142517359Y-77262666D01*
X142492177Y-77245840D01*
X142426547Y-77201987D01*
X142334615Y-77163908D01*
X142329570Y-77161818D01*
X142329562Y-77161814D01*
X142262666Y-77134105D01*
X142262658Y-77134103D01*
X142088696Y-77099500D01*
X142088692Y-77099500D01*
X142088691Y-77099500D01*
X138168692Y-77099500D01*
X137991309Y-77099500D01*
X137991304Y-77099500D01*
X137817341Y-77134103D01*
X137817333Y-77134105D01*
X137735042Y-77168192D01*
X137735041Y-77168192D01*
X137653459Y-77201983D01*
X137653447Y-77201990D01*
X137530007Y-77284470D01*
X137530006Y-77284472D01*
X137505965Y-77300536D01*
X137505961Y-77300539D01*
X137505957Y-77300542D01*
X127380540Y-87425958D01*
X127380537Y-87425961D01*
X127346891Y-87476317D01*
X127346887Y-87476322D01*
X127344746Y-87479528D01*
X127281987Y-87573453D01*
X127264357Y-87616016D01*
X127261173Y-87623701D01*
X127261171Y-87623706D01*
X127214105Y-87737333D01*
X127214103Y-87737341D01*
X127183194Y-87892730D01*
X127183195Y-87892731D01*
X127179500Y-87911308D01*
X127179500Y-90575637D01*
X127159815Y-90642676D01*
X127143181Y-90663318D01*
X126760540Y-91045958D01*
X126760539Y-91045959D01*
X126760536Y-91045964D01*
X126731988Y-91088691D01*
X126728101Y-91094508D01*
X126728100Y-91094509D01*
X126661985Y-91193455D01*
X126628046Y-91275393D01*
X126594107Y-91357327D01*
X126594103Y-91357341D01*
X126560225Y-91527655D01*
X126560226Y-91527656D01*
X126559500Y-91531306D01*
X126559500Y-92324242D01*
X126550855Y-92353679D01*
X126544332Y-92383670D01*
X126540577Y-92388685D01*
X126539815Y-92391281D01*
X126523181Y-92411923D01*
X126523180Y-92411924D01*
X126466284Y-92468819D01*
X126404961Y-92502303D01*
X126335269Y-92497318D01*
X126279336Y-92455447D01*
X126262422Y-92424470D01*
X126213354Y-92292913D01*
X126213350Y-92292906D01*
X126127190Y-92177812D01*
X126127187Y-92177809D01*
X126012093Y-92091649D01*
X126012086Y-92091645D01*
X125877379Y-92041403D01*
X125877372Y-92041401D01*
X125817844Y-92035000D01*
X125170000Y-92035000D01*
X125170000Y-92951988D01*
X125112993Y-92919075D01*
X124985826Y-92885000D01*
X124854174Y-92885000D01*
X124727007Y-92919075D01*
X124670000Y-92951988D01*
X124670000Y-92035000D01*
X124022155Y-92035000D01*
X123962627Y-92041401D01*
X123962620Y-92041403D01*
X123827913Y-92091645D01*
X123827906Y-92091649D01*
X123712812Y-92177809D01*
X123712809Y-92177812D01*
X123626649Y-92292906D01*
X123626645Y-92292913D01*
X123576403Y-92427620D01*
X123576401Y-92427627D01*
X123570000Y-92487155D01*
X110221752Y-92487155D01*
X110305743Y-92186870D01*
X110307453Y-92183891D01*
X110323459Y-92123529D01*
X110340314Y-92063272D01*
X110340314Y-92063269D01*
X110340329Y-92063216D01*
X110343203Y-92049074D01*
X110344453Y-92044361D01*
X110509126Y-91423383D01*
X110510037Y-91421769D01*
X110526012Y-91359703D01*
X110542431Y-91297791D01*
X110542430Y-91297787D01*
X110543325Y-91294416D01*
X110544825Y-91286616D01*
X110640652Y-90914335D01*
X110641791Y-90912273D01*
X110657052Y-90850623D01*
X110672915Y-90788997D01*
X110672914Y-90788995D01*
X110673499Y-90786727D01*
X110675314Y-90776844D01*
X110828898Y-90156424D01*
X110829321Y-90155653D01*
X110844702Y-90092581D01*
X110860353Y-90029359D01*
X110860352Y-90029358D01*
X110861751Y-90023711D01*
X110862425Y-90019909D01*
X110951773Y-89653538D01*
X110951927Y-89653258D01*
X110967313Y-89589817D01*
X110982921Y-89525820D01*
X110982920Y-89525819D01*
X110984656Y-89518706D01*
X110984900Y-89517302D01*
X111148578Y-88842449D01*
X111269383Y-88348609D01*
X111269484Y-88348205D01*
X111455220Y-87615478D01*
X111455356Y-87614951D01*
X111581213Y-87134149D01*
X111581715Y-87132292D01*
X111782287Y-86416926D01*
X111782655Y-86415645D01*
X111920415Y-85946871D01*
X111921226Y-85944225D01*
X112144588Y-85244512D01*
X112145090Y-85242978D01*
X112299223Y-84783240D01*
X112300133Y-84780626D01*
X112549256Y-84091036D01*
X112549782Y-84089611D01*
X112554718Y-84076467D01*
X112721085Y-83633429D01*
X112721776Y-83631633D01*
X112993498Y-82943874D01*
X112993679Y-82943420D01*
X113179022Y-82484541D01*
X113179162Y-82484198D01*
X113465549Y-81790087D01*
X113465550Y-81790087D01*
X113465578Y-81790016D01*
X113633160Y-81385564D01*
X113633550Y-81385055D01*
X113658383Y-81324691D01*
X113683360Y-81264411D01*
X113683360Y-81264408D01*
X113685837Y-81258431D01*
X113686733Y-81255777D01*
X113923315Y-80680703D01*
X113923932Y-80679890D01*
X113948390Y-80619753D01*
X113973066Y-80559773D01*
X113973066Y-80559772D01*
X113975153Y-80554700D01*
X113976562Y-80550484D01*
X114116685Y-80205960D01*
X114118221Y-80203890D01*
X114141483Y-80144991D01*
X114165363Y-80086277D01*
X114165363Y-80086275D01*
X114166062Y-80084557D01*
X114169465Y-80074139D01*
X114223700Y-79936819D01*
X114401076Y-79487708D01*
X114402187Y-79486188D01*
X114425312Y-79426344D01*
X114448797Y-79366883D01*
X114448797Y-79366880D01*
X114450055Y-79363696D01*
X114452493Y-79356008D01*
X114506469Y-79216331D01*
X114588515Y-79004015D01*
X114590415Y-79001342D01*
X114612268Y-78942550D01*
X114634838Y-78884145D01*
X114634838Y-78884142D01*
X114634981Y-78883773D01*
X114639003Y-78870621D01*
X114860396Y-78275005D01*
X114861451Y-78273499D01*
X114883321Y-78213332D01*
X114905670Y-78153207D01*
X114905670Y-78153204D01*
X114906890Y-78149923D01*
X114909129Y-78142330D01*
X115038449Y-77786561D01*
X115039796Y-77784598D01*
X115060932Y-77724709D01*
X115082656Y-77664946D01*
X115082656Y-77664944D01*
X115083440Y-77662788D01*
X115086224Y-77653042D01*
X115297047Y-77055693D01*
X115297543Y-77054965D01*
X115318998Y-76993497D01*
X115340614Y-76932250D01*
X115340614Y-76932246D01*
X115342555Y-76926748D01*
X115343585Y-76923053D01*
X115466701Y-76570335D01*
X115466815Y-76570168D01*
X115488358Y-76508290D01*
X115510063Y-76446106D01*
X115510063Y-76446104D01*
X115512567Y-76438931D01*
X115512803Y-76438072D01*
X115739038Y-75788254D01*
X115904843Y-75316064D01*
X115905216Y-75315021D01*
X116157143Y-74621357D01*
X116157554Y-74620243D01*
X116160078Y-74613507D01*
X116325987Y-74170624D01*
X116327024Y-74167954D01*
X116590438Y-73511688D01*
X116591193Y-73509853D01*
X116768963Y-73088374D01*
X116770618Y-73084631D01*
X117054859Y-72470282D01*
X117056059Y-72467763D01*
X117060248Y-72459224D01*
X117249124Y-72074170D01*
X117251319Y-72069908D01*
X117563418Y-71492027D01*
X117564744Y-71489640D01*
X117777751Y-71116152D01*
X117779949Y-71112451D01*
X118123625Y-70556637D01*
X118124778Y-70554811D01*
X118360021Y-70189840D01*
X118361718Y-70187280D01*
X118737386Y-69635881D01*
X118738090Y-69634860D01*
X118995328Y-69266774D01*
X118996229Y-69265504D01*
X119401552Y-68702489D01*
X119678397Y-68322421D01*
X120109138Y-67738212D01*
X120109170Y-67738235D01*
X120109307Y-67737983D01*
X120401654Y-67343450D01*
X120854445Y-66737854D01*
X121160224Y-66331972D01*
X121160776Y-66331246D01*
X121634127Y-65715216D01*
X121634529Y-65714696D01*
X121953215Y-65306865D01*
X121954652Y-65305062D01*
X122119767Y-65101770D01*
X122449900Y-64695302D01*
X122451030Y-64693932D01*
X122503580Y-64631116D01*
X122783460Y-64296558D01*
X122785884Y-64293748D01*
X123305470Y-63709607D01*
X123307278Y-63707619D01*
X123398441Y-63609504D01*
X123654952Y-63333432D01*
X123658565Y-63329706D01*
X124204834Y-62789528D01*
X124207337Y-62787122D01*
X124571897Y-62446692D01*
X124576676Y-62442458D01*
X125151739Y-61959188D01*
X125154903Y-61956618D01*
X125538120Y-61655769D01*
X125543792Y-61651572D01*
X126149151Y-61229703D01*
X126152600Y-61227386D01*
X126556317Y-60966019D01*
X126562111Y-60962490D01*
X126569294Y-60958381D01*
X127006901Y-60708027D01*
X127198033Y-60598681D01*
X127201422Y-60596812D01*
X127626106Y-60371143D01*
X127631348Y-60368516D01*
X128296119Y-60054986D01*
X128298959Y-60053690D01*
X128743514Y-59857932D01*
X128747727Y-59856172D01*
X129437417Y-59583183D01*
X129439554Y-59582362D01*
X129900621Y-59410349D01*
X129903906Y-59409177D01*
X130612278Y-59167411D01*
X130613803Y-59166902D01*
X131086738Y-59013140D01*
X131089098Y-59012401D01*
X131809197Y-58795051D01*
X131810316Y-58794720D01*
X132289211Y-58656196D01*
X132291228Y-58655633D01*
X133015426Y-58460481D01*
X133016605Y-58460169D01*
X133496370Y-58336512D01*
X133498486Y-58335988D01*
X134220771Y-58164396D01*
X134221926Y-58164129D01*
X134698561Y-58056993D01*
X134701101Y-58056451D01*
X135417085Y-57912055D01*
X135418625Y-57911756D01*
X135889350Y-57823898D01*
X135892448Y-57823362D01*
X136599679Y-57710685D01*
X136601756Y-57710374D01*
X137065512Y-57644679D01*
X137069287Y-57644203D01*
X137767885Y-57567206D01*
X137770292Y-57566965D01*
X138228457Y-57525536D01*
X138232537Y-57525236D01*
X138925545Y-57486140D01*
X138927939Y-57486029D01*
X139383681Y-57469742D01*
X139387828Y-57469664D01*
X140080260Y-57468632D01*
X140082595Y-57468653D01*
X140539842Y-57477178D01*
X140543738Y-57477313D01*
X141241302Y-57512766D01*
X141243499Y-57512898D01*
X141706458Y-57544887D01*
X141709794Y-57545165D01*
X142417885Y-57614005D01*
X142419712Y-57614197D01*
X142891720Y-57667349D01*
X142894391Y-57667680D01*
X143616806Y-57765444D01*
X143618015Y-57765615D01*
X144013912Y-57823911D01*
X144101267Y-57836774D01*
X144103161Y-57837068D01*
X144841367Y-57958128D01*
X144841696Y-57958184D01*
X145336130Y-58043380D01*
X145337277Y-58043585D01*
X146089333Y-58181383D01*
X146089886Y-58181485D01*
X146593024Y-58276188D01*
X146593617Y-58276301D01*
X147356082Y-58424246D01*
X147866376Y-58524394D01*
X148636563Y-58676938D01*
X149082692Y-58765393D01*
X149082861Y-58765476D01*
X149147416Y-58778225D01*
X149147671Y-58778276D01*
X149147712Y-58778284D01*
X149211778Y-58790987D01*
X149211779Y-58790986D01*
X149219381Y-58792494D01*
X149220199Y-58792600D01*
X149851745Y-58917336D01*
X149851932Y-58917428D01*
X149916687Y-58930163D01*
X149980831Y-58942832D01*
X149980832Y-58942831D01*
X149988321Y-58944311D01*
X149989217Y-58944427D01*
X150364129Y-59018159D01*
X150364458Y-59018320D01*
X150429124Y-59030941D01*
X150493082Y-59043520D01*
X150493085Y-59043519D01*
X150500165Y-59044912D01*
X150501735Y-59045113D01*
X151129943Y-59167729D01*
X151130086Y-59167799D01*
X151194208Y-59180272D01*
X151259128Y-59192944D01*
X151259129Y-59192943D01*
X151266860Y-59194453D01*
X151267562Y-59194541D01*
X151639087Y-59266815D01*
X151639104Y-59266824D01*
X151707224Y-59280070D01*
X151768430Y-59291977D01*
X151768431Y-59291976D01*
X151778034Y-59293845D01*
X151778106Y-59293853D01*
X152371153Y-59409177D01*
X152463985Y-59427229D01*
X152463984Y-59427230D01*
X152464036Y-59427239D01*
X152967978Y-59525608D01*
X153720929Y-59674807D01*
X154220242Y-59775145D01*
X154220666Y-59775232D01*
X154967474Y-59930181D01*
X155462708Y-60035354D01*
X155463815Y-60035595D01*
X155647368Y-60076333D01*
X156206846Y-60200505D01*
X156207028Y-60200545D01*
X156700696Y-60313233D01*
X156701452Y-60313410D01*
X157444727Y-60491195D01*
X157445228Y-60491316D01*
X157940309Y-60612911D01*
X157941052Y-60613096D01*
X158689238Y-60803942D01*
X158689729Y-60804068D01*
X159190419Y-60934083D01*
X159949278Y-61134885D01*
X159949397Y-61134957D01*
X159949408Y-61134920D01*
X160122166Y-61180838D01*
X160394941Y-61253340D01*
X160395267Y-61253527D01*
X160458822Y-61270319D01*
X160521943Y-61287097D01*
X160521944Y-61287096D01*
X160528856Y-61288934D01*
X160530458Y-61289247D01*
X161159411Y-61455431D01*
X161159412Y-61455432D01*
X161167807Y-61457650D01*
X161168429Y-61458004D01*
X161231524Y-61474486D01*
X161294528Y-61491133D01*
X161294530Y-61491132D01*
X161300594Y-61492735D01*
X161303655Y-61493327D01*
X161688507Y-61593860D01*
X161690318Y-61594871D01*
X161752237Y-61610508D01*
X161814008Y-61626644D01*
X161814011Y-61626643D01*
X161816909Y-61627401D01*
X161825614Y-61629037D01*
X162478763Y-61793984D01*
X162480271Y-61794813D01*
X162542569Y-61810098D01*
X162604867Y-61825831D01*
X162604867Y-61825830D01*
X162608538Y-61826758D01*
X162615830Y-61828073D01*
X163012480Y-61925394D01*
X163015712Y-61927110D01*
X163076433Y-61941085D01*
X163136917Y-61955926D01*
X163136922Y-61955925D01*
X163137368Y-61955975D01*
X163151616Y-61958390D01*
X163822067Y-62112704D01*
X163824367Y-62113895D01*
X163886209Y-62127467D01*
X163947968Y-62141682D01*
X163949762Y-62142095D01*
X163960625Y-62143798D01*
X164369478Y-62233529D01*
X164373872Y-62235698D01*
X164433744Y-62247633D01*
X164493410Y-62260728D01*
X164493416Y-62260727D01*
X164497035Y-62261037D01*
X164510739Y-62262981D01*
X165187853Y-62397962D01*
X165187852Y-62397962D01*
X165198528Y-62400090D01*
X165201414Y-62401470D01*
X165263085Y-62412959D01*
X165324633Y-62425229D01*
X165324638Y-62425228D01*
X165325167Y-62425334D01*
X165338517Y-62427013D01*
X165758898Y-62505332D01*
X165764019Y-62507643D01*
X165823620Y-62517390D01*
X165882936Y-62528441D01*
X165882941Y-62528440D01*
X165888434Y-62528733D01*
X165901846Y-62530182D01*
X166605345Y-62645233D01*
X166608514Y-62646612D01*
X166670312Y-62655858D01*
X166731990Y-62665945D01*
X166731993Y-62665944D01*
X166732014Y-62665948D01*
X166746432Y-62667247D01*
X167162887Y-62729557D01*
X167162886Y-62729557D01*
X167176428Y-62731583D01*
X167181770Y-62733764D01*
X167241514Y-62741321D01*
X167301057Y-62750230D01*
X167301064Y-62750229D01*
X167306988Y-62750334D01*
X167320367Y-62751294D01*
X168036133Y-62841835D01*
X168039316Y-62843085D01*
X168101504Y-62850104D01*
X168163490Y-62857945D01*
X168163492Y-62857944D01*
X168163613Y-62857960D01*
X168177890Y-62858725D01*
X168614603Y-62908018D01*
X168619771Y-62909919D01*
X168679991Y-62915398D01*
X168740084Y-62922181D01*
X168740091Y-62922179D01*
X168745307Y-62922083D01*
X168758832Y-62922571D01*
X169482220Y-62988391D01*
X169485204Y-62989447D01*
X169547761Y-62994354D01*
X169610310Y-63000046D01*
X169610314Y-63000045D01*
X169610927Y-63000101D01*
X169624251Y-63000354D01*
X170064185Y-63034869D01*
X170068889Y-63036432D01*
X170129840Y-63040020D01*
X170190630Y-63044790D01*
X170190636Y-63044788D01*
X170194387Y-63044592D01*
X170208199Y-63044633D01*
X170933924Y-63087365D01*
X170936559Y-63088209D01*
X170999603Y-63091233D01*
X171062714Y-63094949D01*
X171062715Y-63094948D01*
X171064163Y-63095034D01*
X171075875Y-63094891D01*
X171503561Y-63115406D01*
X171503560Y-63115406D01*
X171506054Y-63115525D01*
X171515444Y-63115976D01*
X171519462Y-63117189D01*
X171581188Y-63119129D01*
X171642886Y-63122089D01*
X171642894Y-63122087D01*
X171644691Y-63121938D01*
X171658863Y-63121571D01*
X172381818Y-63144300D01*
X172383998Y-63144937D01*
X172447684Y-63146370D01*
X172511272Y-63148370D01*
X172511276Y-63148368D01*
X172513821Y-63148449D01*
X172523477Y-63148077D01*
X172959382Y-63157891D01*
X172962561Y-63158776D01*
X173025252Y-63159374D01*
X173087840Y-63160784D01*
X173087843Y-63160783D01*
X173088193Y-63160791D01*
X173102006Y-63160107D01*
X173818009Y-63166947D01*
X173819646Y-63167391D01*
X173883841Y-63167576D01*
X173948091Y-63168190D01*
X173948093Y-63168189D01*
X173951942Y-63168226D01*
X173959239Y-63167793D01*
X174389039Y-63169034D01*
X174391261Y-63169615D01*
X174454870Y-63169224D01*
X174518524Y-63169408D01*
X174518524Y-63169407D01*
X174521000Y-63169415D01*
X174530778Y-63168757D01*
X175237384Y-63164417D01*
X175238429Y-63164686D01*
X175303248Y-63164013D01*
X175368089Y-63163615D01*
X175368089Y-63163614D01*
X175373446Y-63163582D01*
X175378119Y-63163235D01*
X175800775Y-63158849D01*
X175801989Y-63159155D01*
X175866725Y-63158165D01*
X175907717Y-63157739D01*
X175936226Y-63157444D01*
X175941623Y-63157019D01*
X176638735Y-63146361D01*
X176639173Y-63146471D01*
X176704814Y-63145351D01*
X176770056Y-63144354D01*
X176770056Y-63144353D01*
X176777040Y-63144247D01*
X176778995Y-63144085D01*
X177195045Y-63136990D01*
X177195300Y-63137054D01*
X177260433Y-63135875D01*
X177326542Y-63134748D01*
X177326546Y-63134746D01*
X177334099Y-63134618D01*
X177335147Y-63134530D01*
X178091058Y-63120953D01*
X178640874Y-63111360D01*
X178641153Y-63111356D01*
X179465281Y-63099082D01*
X180012975Y-63092210D01*
X180013354Y-63092206D01*
X180834794Y-63086018D01*
X181381978Y-63083777D01*
X181382281Y-63083777D01*
X182204614Y-63085387D01*
X182752855Y-63088419D01*
X182752882Y-63088420D01*
X183577090Y-63097343D01*
X184126689Y-63104702D01*
X184952144Y-63117959D01*
X184952206Y-63117979D01*
X184952207Y-63117961D01*
X185435579Y-63125981D01*
X185435912Y-63126076D01*
X185501916Y-63127082D01*
X185567005Y-63128162D01*
X185567009Y-63128160D01*
X185574258Y-63128281D01*
X185575747Y-63128207D01*
X186249238Y-63138472D01*
X186249237Y-63138472D01*
X186250675Y-63138493D01*
X186257833Y-63138603D01*
X186258362Y-63138753D01*
X186323556Y-63139605D01*
X186389050Y-63140604D01*
X186389054Y-63140602D01*
X186395757Y-63140705D01*
X186398165Y-63140581D01*
X186805699Y-63145912D01*
X186807221Y-63146331D01*
X186871577Y-63146773D01*
X186935896Y-63147615D01*
X186935896Y-63147614D01*
X186940029Y-63147669D01*
X186946825Y-63147290D01*
X187621190Y-63151930D01*
X187622475Y-63152277D01*
X187687211Y-63152384D01*
X187751647Y-63152828D01*
X187751649Y-63152827D01*
X187756379Y-63152860D01*
X187762105Y-63152509D01*
X188164220Y-63153178D01*
X188167022Y-63153900D01*
X188230062Y-63153288D01*
X188293112Y-63153393D01*
X188293115Y-63153392D01*
X188294308Y-63153394D01*
X188306499Y-63152545D01*
X188968965Y-63146115D01*
X188971013Y-63146625D01*
X189034799Y-63145476D01*
X189098632Y-63144857D01*
X189098635Y-63144856D01*
X189101533Y-63144828D01*
X189110532Y-63144112D01*
X189504638Y-63137017D01*
X189508665Y-63137950D01*
X189570432Y-63135833D01*
X189632267Y-63134720D01*
X189633915Y-63134473D01*
X189648064Y-63133172D01*
X190295811Y-63110974D01*
X190298539Y-63111575D01*
X190361602Y-63108720D01*
X190380592Y-63108069D01*
X190426115Y-63106510D01*
X190437876Y-63105266D01*
X190822491Y-63087856D01*
X190827471Y-63088848D01*
X190888270Y-63084878D01*
X190949074Y-63082126D01*
X190949082Y-63082123D01*
X190953082Y-63081412D01*
X190966738Y-63079755D01*
X191599403Y-63038449D01*
X191602570Y-63039039D01*
X191665128Y-63034158D01*
X191727696Y-63030074D01*
X191727697Y-63030073D01*
X191728209Y-63030040D01*
X191741611Y-63028192D01*
X192117026Y-62998907D01*
X192122455Y-62999796D01*
X192182618Y-62993790D01*
X192242924Y-62989086D01*
X192242932Y-62989082D01*
X192248016Y-62988006D01*
X192261402Y-62985925D01*
X192881826Y-62923993D01*
X192885106Y-62924487D01*
X192947366Y-62917451D01*
X193009662Y-62911233D01*
X193009662Y-62911232D01*
X193009982Y-62911201D01*
X193023681Y-62908826D01*
X193392194Y-62867185D01*
X193397551Y-62867875D01*
X193457605Y-62859793D01*
X193517780Y-62852994D01*
X193517790Y-62852989D01*
X193522571Y-62851803D01*
X193535926Y-62849254D01*
X194149312Y-62766714D01*
X194152413Y-62767075D01*
X194214536Y-62757937D01*
X194276824Y-62749556D01*
X194276828Y-62749554D01*
X194277529Y-62749460D01*
X194290399Y-62746779D01*
X194655521Y-62693076D01*
X194660395Y-62693548D01*
X194720625Y-62683500D01*
X194781058Y-62674612D01*
X194781068Y-62674607D01*
X194784529Y-62673624D01*
X194798037Y-62670586D01*
X195410252Y-62568459D01*
X195412988Y-62568695D01*
X195475248Y-62557617D01*
X195537536Y-62547227D01*
X195537538Y-62547225D01*
X195539024Y-62546978D01*
X195550307Y-62544262D01*
X195915763Y-62479240D01*
X195919954Y-62479531D01*
X195980557Y-62467712D01*
X196041373Y-62456892D01*
X196041383Y-62456887D01*
X196043121Y-62456337D01*
X196056859Y-62452831D01*
X196672880Y-62332698D01*
X196675200Y-62332838D01*
X196737517Y-62320092D01*
X196737885Y-62320021D01*
X196737979Y-62320002D01*
X196799950Y-62307918D01*
X196799952Y-62307916D01*
X196802331Y-62307453D01*
X196811871Y-62304887D01*
X197180565Y-62229487D01*
X197184134Y-62229652D01*
X197245070Y-62216295D01*
X197306178Y-62203799D01*
X197306186Y-62203794D01*
X197306405Y-62203720D01*
X197320361Y-62199792D01*
X197942789Y-62063369D01*
X197944805Y-62063446D01*
X198007152Y-62049261D01*
X198069548Y-62035586D01*
X198069548Y-62035585D01*
X198072596Y-62034918D01*
X198080868Y-62032490D01*
X198453877Y-61947631D01*
X198457124Y-61947714D01*
X198518032Y-61933036D01*
X198577538Y-61919499D01*
X198579635Y-61919022D01*
X198592715Y-61915038D01*
X199220327Y-61763799D01*
X199222263Y-61763834D01*
X199284432Y-61748351D01*
X199346566Y-61733379D01*
X199346571Y-61733376D01*
X199349796Y-61732599D01*
X199357682Y-61730109D01*
X199733339Y-61636559D01*
X199736608Y-61636575D01*
X199797198Y-61620656D01*
X199858042Y-61605504D01*
X199858046Y-61605501D01*
X199858446Y-61605402D01*
X199871496Y-61601134D01*
X200499077Y-61436251D01*
X200501091Y-61436245D01*
X200562810Y-61419506D01*
X200624591Y-61403275D01*
X200624590Y-61403275D01*
X200627602Y-61402484D01*
X200635758Y-61399722D01*
X201010006Y-61298226D01*
X201013468Y-61298169D01*
X201073538Y-61280996D01*
X201133854Y-61264639D01*
X201133859Y-61264636D01*
X201133874Y-61264632D01*
X201147553Y-61259837D01*
X201767713Y-61082552D01*
X201769850Y-61082499D01*
X201830965Y-61064470D01*
X201892363Y-61046919D01*
X201892364Y-61046918D01*
X201895080Y-61046142D01*
X201903689Y-61043017D01*
X202271385Y-60934552D01*
X202275007Y-60934410D01*
X202334518Y-60915929D01*
X202394308Y-60898292D01*
X202394317Y-60898286D01*
X202394649Y-60898140D01*
X202408195Y-60893048D01*
X203013480Y-60705082D01*
X203015657Y-60704978D01*
X203076366Y-60685553D01*
X203137255Y-60666645D01*
X203137258Y-60666642D01*
X203139886Y-60665827D01*
X203148552Y-60662456D01*
X203504961Y-60548420D01*
X203508460Y-60548205D01*
X203567695Y-60528348D01*
X203627143Y-60509328D01*
X203627148Y-60509324D01*
X203627217Y-60509293D01*
X203640685Y-60503881D01*
X204225718Y-60307773D01*
X204227670Y-60307638D01*
X204288162Y-60286841D01*
X204348813Y-60266511D01*
X204348814Y-60266509D01*
X204351896Y-60265477D01*
X204359629Y-60262271D01*
X204701607Y-60144705D01*
X204704342Y-60144486D01*
X204763850Y-60123307D01*
X204823636Y-60102754D01*
X204823636Y-60102753D01*
X204825052Y-60102267D01*
X204835754Y-60097716D01*
X205399201Y-59897190D01*
X205400437Y-59897085D01*
X205461248Y-59875108D01*
X205522189Y-59853420D01*
X205522192Y-59853417D01*
X205526850Y-59851760D01*
X205531773Y-59849620D01*
X205859135Y-59731315D01*
X205860174Y-59731223D01*
X205921075Y-59708931D01*
X205982093Y-59686880D01*
X205982092Y-59686880D01*
X205987196Y-59685036D01*
X205991352Y-59683207D01*
X206352712Y-59550938D01*
X206352763Y-59550934D01*
X206416326Y-59527653D01*
X206476422Y-59505657D01*
X206476425Y-59505654D01*
X206484216Y-59502803D01*
X206484399Y-59502721D01*
X206600784Y-59460096D01*
X206600785Y-59460095D01*
X206600785Y-59460097D01*
X206600795Y-59460091D01*
X207047189Y-59296720D01*
X207047372Y-59296654D01*
X207715555Y-59056109D01*
X207715959Y-59055965D01*
X208157883Y-58899898D01*
X208159497Y-58899342D01*
X208828037Y-58674524D01*
X208829135Y-58674161D01*
X209273103Y-58530544D01*
X209275628Y-58529759D01*
X209954843Y-58327040D01*
X209956506Y-58326558D01*
X210408448Y-58199111D01*
X210411636Y-58198256D01*
X211106115Y-58022293D01*
X211107898Y-58021857D01*
X211570199Y-57912689D01*
X211573308Y-57911999D01*
X212278604Y-57764958D01*
X212280232Y-57764631D01*
X212747643Y-57674514D01*
X212750419Y-57674012D01*
X213452954Y-57555520D01*
X213454272Y-57555307D01*
X213915850Y-57483622D01*
X213918086Y-57483297D01*
X214599820Y-57391242D01*
X214601072Y-57391080D01*
X215044910Y-57336111D01*
X215046776Y-57335896D01*
X215692459Y-57266971D01*
X215693560Y-57266860D01*
X216110717Y-57226342D01*
X216112439Y-57226188D01*
X216714955Y-57176878D01*
X216715785Y-57176814D01*
X217104898Y-57148482D01*
X217106689Y-57148365D01*
X217673559Y-57115729D01*
X217674355Y-57115687D01*
X218044100Y-57097880D01*
X218045924Y-57097806D01*
X218599850Y-57080083D01*
X218600934Y-57080053D01*
X218969199Y-57071906D01*
X218971215Y-57071879D01*
X219542619Y-57068675D01*
X219543639Y-57068675D01*
X219931693Y-57070287D01*
G37*
%TD.AperFunction*%
%TD*%
M02*
